<svg viewBox="0 0 356.59 489.29" xmlns="http://www.w3.org/2000/svg" xmlns:xlink="http://www.w3.org/1999/xlink" id="Layer_1" overflow="hidden"><defs></defs><rect x="0.5" y="0.5" rx="20.5" ry="20.5" width="355.59" height="488.29" stroke="#515251" stroke-miterlimit="10" fill="#FFFFFF" opacity="0.76"/><g><path d="M57.43 182.24 50.77 165.06 53.23 165.06 57.69 177.54C57.87 178.04 58.03 178.52 58.18 178.99 58.33 179.46 58.47 179.91 58.59 180.36 58.72 179.89 58.87 179.42 59.02 178.95 59.17 178.48 59.34 178.01 59.52 177.54L64.16 165.06 66.48 165.06 59.75 182.24 57.42 182.24Z" fill="#231F20"/><path d="M78.9 178.5C78.55 179.78 77.91 180.77 76.99 181.47 76.07 182.17 74.88 182.52 73.43 182.52 71.61 182.52 70.16 181.96 69.09 180.84 68.03 179.72 67.5 178.15 67.5 176.12 67.5 174.09 68.04 172.41 69.12 171.24 70.2 170.08 71.6 169.51 73.32 169.51 75.04 169.51 76.34 170.08 77.4 171.21 78.45 172.35 78.98 173.94 78.98 175.99L78.98 176.22C78.98 176.31 78.98 176.42 78.97 176.55L69.69 176.55C69.77 177.92 70.15 178.96 70.85 179.69 71.54 180.42 72.4 180.78 73.45 180.78 74.22 180.78 74.88 180.58 75.43 180.17 75.98 179.76 76.41 179.12 76.73 178.22L78.91 178.49ZM76.74 174.82C76.65 173.78 76.38 173 75.94 172.46 75.27 171.65 74.4 171.24 73.33 171.24 72.37 171.24 71.55 171.56 70.88 172.21 70.22 172.86 69.86 173.73 69.79 174.81L76.74 174.81Z" fill="#231F20"/><path d="M89.6 180.7C88.81 181.37 88.06 181.84 87.34 182.11 86.61 182.38 85.84 182.52 85.02 182.52 83.65 182.52 82.6 182.19 81.87 181.52 81.14 180.85 80.77 180 80.77 178.95 80.77 178.48 80.85 178.05 81.01 177.66 81.17 177.27 81.39 176.92 81.66 176.62 81.93 176.32 82.25 176.06 82.62 175.85 82.99 175.64 83.38 175.48 83.79 175.38 84.2 175.28 84.82 175.17 85.67 175.06 87.35 174.86 88.6 174.62 89.43 174.33 89.43 174.18 89.44 174.06 89.44 173.97L89.44 173.78C89.44 172.92 89.24 172.32 88.84 171.96 88.31 171.48 87.51 171.25 86.44 171.25 85.45 171.25 84.71 171.43 84.24 171.78 83.77 172.12 83.42 172.74 83.2 173.62L81.14 173.34C81.33 172.46 81.64 171.74 82.07 171.2 82.5 170.66 83.12 170.24 83.93 169.95 84.75 169.65 85.69 169.5 86.75 169.5 87.81 169.5 88.68 169.62 89.34 169.88 90 170.14 90.49 170.45 90.8 170.83 91.1 171.19 91.32 171.67 91.46 172.26 91.53 172.63 91.57 173.28 91.57 174.21L91.57 177.02C91.57 178 91.58 178.81 91.61 179.42 91.64 180.03 91.66 180.48 91.7 180.74 91.79 181.26 91.97 181.76 92.24 182.23L90.04 182.23C89.82 181.8 89.68 181.29 89.62 180.69ZM89.42 175.99C89.04 176.15 88.56 176.29 87.99 176.42 87.42 176.55 86.75 176.67 85.97 176.78 85.11 176.9 84.5 177.05 84.13 177.2 83.78 177.35 83.5 177.58 83.3 177.89 83.1 178.18 83.01 178.51 83.01 178.89 83.01 179.17 83.06 179.43 83.17 179.68 83.28 179.93 83.43 180.13 83.64 180.31 83.85 180.49 84.11 180.62 84.43 180.72 84.75 180.82 85.11 180.87 85.52 180.87 85.93 180.87 86.31 180.82 86.68 180.73 87.05 180.64 87.38 180.5 87.69 180.33 88 180.16 88.27 179.95 88.5 179.7 88.73 179.45 88.93 179.18 89.08 178.87 89.31 178.38 89.42 177.67 89.42 176.76L89.42 175.99Z" fill="#231F20"/><path d="M94.51 182.24 94.51 165.06 96.62 165.06 96.62 182.24 94.51 182.24Z" fill="#231F20"/><path d="M52.42 230.24 52.42 213.06 54.69 213.06 54.69 228.21 63.15 228.21 63.15 230.24 52.42 230.24Z" fill="#231F20"/><path d="M74.15 228.7C73.36 229.37 72.61 229.84 71.89 230.11 71.16 230.38 70.39 230.52 69.57 230.52 68.2 230.52 67.15 230.19 66.42 229.52 65.69 228.85 65.32 228 65.32 226.95 65.32 226.48 65.4 226.05 65.56 225.66 65.72 225.27 65.94 224.92 66.21 224.62 66.48 224.32 66.8 224.06 67.17 223.85 67.54 223.64 67.93 223.48 68.34 223.38 68.75 223.28 69.37 223.17 70.22 223.06 71.9 222.86 73.15 222.62 73.98 222.33 73.98 222.18 73.99 222.06 73.99 221.97L73.99 221.78C73.99 220.92 73.79 220.32 73.39 219.96 72.86 219.48 72.06 219.25 70.99 219.25 70 219.25 69.26 219.43 68.79 219.78 68.32 220.12 67.97 220.74 67.75 221.62L65.69 221.34C65.88 220.46 66.19 219.74 66.62 219.2 67.05 218.66 67.67 218.24 68.48 217.95 69.3 217.65 70.24 217.5 71.3 217.5 72.36 217.5 73.23 217.62 73.89 217.88 74.55 218.14 75.04 218.45 75.35 218.83 75.65 219.19 75.87 219.67 76.01 220.26 76.08 220.63 76.12 221.28 76.12 222.21L76.12 225.02C76.12 226 76.13 226.81 76.16 227.42 76.19 228.03 76.21 228.48 76.25 228.74 76.34 229.26 76.52 229.76 76.79 230.23L74.59 230.23C74.37 229.8 74.23 229.29 74.17 228.69ZM73.97 223.99C73.59 224.15 73.11 224.29 72.54 224.42 71.97 224.55 71.3 224.67 70.52 224.78 69.66 224.9 69.05 225.05 68.68 225.2 68.33 225.35 68.05 225.58 67.85 225.89 67.65 226.18 67.56 226.51 67.56 226.89 67.56 227.17 67.61 227.43 67.72 227.68 67.83 227.93 67.98 228.13 68.19 228.31 68.4 228.49 68.66 228.62 68.98 228.72 69.3 228.82 69.66 228.87 70.07 228.87 70.48 228.87 70.86 228.82 71.23 228.73 71.6 228.64 71.93 228.5 72.24 228.33 72.55 228.16 72.82 227.95 73.05 227.7 73.28 227.45 73.48 227.18 73.63 226.87 73.86 226.38 73.97 225.67 73.97 224.76L73.97 223.99Z" fill="#231F20"/><path d="M79.11 230.24 79.11 217.79 81 217.79 81 219.54C81.4 218.93 81.92 218.44 82.56 218.07 83.2 217.7 83.94 217.51 84.77 217.51 85.69 217.51 86.45 217.7 87.04 218.08 87.63 218.46 88.05 219 88.29 219.69 89.27 218.24 90.56 217.51 92.13 217.51 93.37 217.51 94.32 217.85 94.98 218.53 95.64 219.21 95.97 220.26 95.97 221.69L95.97 230.23 93.87 230.23 93.87 222.39C93.87 221.55 93.8 220.94 93.66 220.57 93.53 220.19 93.28 219.89 92.92 219.67 92.55 219.44 92.13 219.33 91.65 219.33 90.77 219.33 90.04 219.62 89.47 220.21 88.89 220.79 88.6 221.72 88.6 223L88.6 230.23 86.49 230.23 86.49 222.14C86.49 221.19 86.32 220.49 85.97 220.02 85.62 219.55 85.06 219.32 84.28 219.32 83.68 219.32 83.13 219.48 82.63 219.79 82.12 220.11 81.76 220.57 81.54 221.16 81.31 221.77 81.2 222.64 81.2 223.76L81.2 230.22 79.09 230.22Z" fill="#231F20"/><path d="M100.48 230.24 98.52 230.24 98.52 213.06 100.63 213.06 100.63 219.19C101.52 218.07 102.66 217.51 104.04 217.51 104.81 217.51 105.54 217.66 106.21 217.97 106.88 218.28 107.45 218.71 107.89 219.28 108.33 219.85 108.68 220.52 108.93 221.3 109.18 222.08 109.31 222.93 109.31 223.83 109.31 225.97 108.78 227.62 107.73 228.78 106.68 229.94 105.41 230.53 103.93 230.53 102.45 230.53 101.3 229.92 100.47 228.69L100.47 230.25ZM100.46 223.92C100.46 225.41 100.66 226.49 101.07 227.15 101.73 228.24 102.63 228.78 103.77 228.78 104.69 228.78 105.49 228.38 106.16 227.58 106.83 226.77 107.17 225.57 107.17 223.99 107.17 222.41 106.85 221.17 106.2 220.39 105.55 219.62 104.77 219.23 103.87 219.23 102.97 219.23 102.14 219.63 101.48 220.44 100.81 221.24 100.47 222.4 100.47 223.91Z" fill="#231F20"/><path d="M120.59 230.24 120.59 217.79 122.48 217.79 122.48 219.54C122.88 218.93 123.4 218.44 124.04 218.07 124.68 217.7 125.42 217.51 126.25 217.51 127.17 217.51 127.93 217.7 128.52 218.08 129.11 218.46 129.53 219 129.77 219.69 130.75 218.24 132.04 217.51 133.61 217.51 134.85 217.51 135.8 217.85 136.46 218.53 137.12 219.21 137.45 220.26 137.45 221.69L137.45 230.23 135.35 230.23 135.35 222.39C135.35 221.55 135.28 220.94 135.14 220.57 135.01 220.19 134.76 219.89 134.4 219.67 134.03 219.44 133.61 219.33 133.13 219.33 132.25 219.33 131.52 219.62 130.95 220.21 130.37 220.79 130.08 221.72 130.08 223L130.08 230.23 127.97 230.23 127.97 222.14C127.97 221.19 127.8 220.49 127.45 220.02 127.1 219.55 126.54 219.32 125.76 219.32 125.16 219.32 124.61 219.48 124.11 219.79 123.6 220.11 123.24 220.57 123.02 221.16 122.79 221.77 122.68 222.64 122.68 223.76L122.68 230.22 120.57 230.22Z" fill="#231F20"/><path d="M150.72 226.5C150.37 227.78 149.73 228.77 148.81 229.47 147.89 230.17 146.7 230.52 145.25 230.52 143.43 230.52 141.98 229.96 140.91 228.84 139.85 227.72 139.32 226.15 139.32 224.12 139.32 222.09 139.86 220.41 140.94 219.24 142.02 218.08 143.42 217.51 145.14 217.51 146.86 217.51 148.16 218.08 149.22 219.21 150.27 220.35 150.8 221.94 150.8 223.99L150.8 224.22C150.8 224.31 150.8 224.42 150.79 224.55L141.51 224.55C141.59 225.92 141.97 226.96 142.67 227.69 143.36 228.42 144.22 228.78 145.27 228.78 146.04 228.78 146.7 228.58 147.25 228.17 147.8 227.76 148.23 227.12 148.55 226.22L150.73 226.49ZM148.56 222.82C148.47 221.78 148.2 221 147.76 220.46 147.09 219.65 146.22 219.24 145.15 219.24 144.19 219.24 143.37 219.56 142.7 220.21 142.04 220.86 141.68 221.73 141.61 222.81L148.56 222.81Z" fill="#231F20"/><path d="M161.42 228.7C160.63 229.37 159.88 229.84 159.16 230.11 158.43 230.38 157.66 230.52 156.84 230.52 155.47 230.52 154.42 230.19 153.69 229.52 152.96 228.85 152.59 228 152.59 226.95 152.59 226.48 152.67 226.05 152.83 225.66 152.99 225.27 153.21 224.92 153.48 224.62 153.75 224.32 154.07 224.06 154.44 223.85 154.81 223.64 155.2 223.48 155.61 223.38 156.02 223.28 156.64 223.17 157.49 223.06 159.17 222.86 160.42 222.62 161.25 222.33 161.25 222.18 161.26 222.06 161.26 221.97L161.26 221.78C161.26 220.92 161.06 220.32 160.66 219.96 160.13 219.48 159.33 219.25 158.26 219.25 157.27 219.25 156.53 219.43 156.06 219.78 155.59 220.12 155.24 220.74 155.02 221.62L152.96 221.34C153.15 220.46 153.46 219.74 153.89 219.2 154.32 218.66 154.94 218.24 155.75 217.95 156.57 217.65 157.51 217.5 158.57 217.5 159.63 217.5 160.5 217.62 161.16 217.88 161.82 218.14 162.31 218.45 162.62 218.83 162.92 219.19 163.14 219.67 163.28 220.26 163.35 220.63 163.39 221.28 163.39 222.21L163.39 225.02C163.39 226 163.4 226.81 163.43 227.42 163.46 228.03 163.48 228.48 163.52 228.74 163.61 229.26 163.79 229.76 164.06 230.23L161.86 230.23C161.64 229.8 161.5 229.29 161.44 228.69ZM161.24 223.99C160.86 224.15 160.38 224.29 159.81 224.42 159.24 224.55 158.57 224.67 157.79 224.78 156.93 224.9 156.32 225.05 155.95 225.2 155.6 225.35 155.32 225.58 155.12 225.89 154.92 226.18 154.83 226.51 154.83 226.89 154.83 227.17 154.88 227.43 154.99 227.68 155.1 227.93 155.25 228.13 155.46 228.31 155.67 228.49 155.93 228.62 156.25 228.72 156.57 228.82 156.93 228.87 157.34 228.87 157.75 228.87 158.13 228.82 158.5 228.73 158.87 228.64 159.2 228.5 159.51 228.33 159.82 228.16 160.09 227.95 160.32 227.7 160.55 227.45 160.75 227.18 160.9 226.87 161.13 226.38 161.24 225.67 161.24 224.76L161.24 223.99Z" fill="#231F20"/><path d="M171.29 230.21C170.71 230.33 170.18 230.4 169.7 230.4 168.93 230.4 168.34 230.28 167.92 230.04 167.5 229.8 167.2 229.48 167.03 229.09 166.86 228.7 166.77 227.87 166.77 226.59L166.77 219.43 165.22 219.43 165.22 217.79 166.77 217.79 166.77 214.71 168.87 213.44 168.87 217.79 170.99 217.79 170.99 219.43 168.87 219.43 168.87 226.71C168.87 227.31 168.91 227.7 168.98 227.87 169.06 228.04 169.18 228.18 169.34 228.28 169.51 228.38 169.75 228.43 170.07 228.43 170.19 228.43 170.32 228.43 170.47 228.41 170.62 228.39 170.8 228.38 170.99 228.35L171.29 230.21Z" fill="#231F20"/><path d="M56.89 278.24 56.89 263.09 51.23 263.09 51.23 261.06 64.85 261.06 64.85 263.09 59.17 263.09 59.17 278.24 56.9 278.24Z" fill="#231F20"/><path d="M66.41 272.01C66.41 269.71 67.05 268.01 68.33 266.89 69.39 265.97 70.7 265.51 72.24 265.51 73.94 265.51 75.34 266.07 76.44 267.2 77.53 268.31 78.07 269.86 78.07 271.84 78.07 273.43 77.83 274.7 77.34 275.63 76.86 276.55 76.16 277.26 75.24 277.76 74.32 278.27 73.32 278.52 72.24 278.52 70.5 278.52 69.09 277.96 68.01 276.84 66.94 275.72 66.4 274.11 66.4 272.01ZM68.58 272.01C68.58 273.6 68.93 274.79 69.62 275.6 70.32 276.39 71.19 276.78 72.24 276.78 73.29 276.78 74.16 276.38 74.85 275.58 75.55 274.78 75.89 273.56 75.89 271.94 75.89 270.4 75.54 269.24 74.84 268.45 74.14 267.65 73.28 267.25 72.24 267.25 71.2 267.25 70.31 267.64 69.62 268.43 68.93 269.22 68.58 270.41 68.58 272Z" fill="#231F20"/><path d="M80.53 278.24 80.53 265.79 82.42 265.79 82.42 267.54C82.82 266.93 83.34 266.44 83.98 266.07 84.62 265.7 85.36 265.51 86.19 265.51 87.11 265.51 87.87 265.7 88.46 266.08 89.05 266.46 89.47 267 89.71 267.69 90.69 266.24 91.98 265.51 93.55 265.51 94.79 265.51 95.74 265.85 96.4 266.53 97.06 267.21 97.39 268.26 97.39 269.69L97.39 278.23 95.29 278.23 95.29 270.39C95.29 269.55 95.22 268.94 95.08 268.57 94.95 268.19 94.7 267.89 94.34 267.67 93.97 267.44 93.55 267.33 93.07 267.33 92.19 267.33 91.46 267.62 90.89 268.21 90.31 268.79 90.02 269.72 90.02 271L90.02 278.23 87.91 278.23 87.91 270.14C87.91 269.19 87.74 268.49 87.39 268.02 87.04 267.55 86.48 267.32 85.7 267.32 85.1 267.32 84.55 267.48 84.05 267.79 83.54 268.11 83.18 268.57 82.96 269.16 82.73 269.77 82.62 270.64 82.62 271.76L82.62 278.22 80.51 278.22Z" fill="#231F20"/><path d="M108.08 276.7C107.29 277.37 106.54 277.84 105.82 278.11 105.09 278.38 104.32 278.52 103.5 278.52 102.13 278.52 101.08 278.19 100.35 277.52 99.62 276.85 99.25 276 99.25 274.95 99.25 274.48 99.33 274.05 99.49 273.66 99.65 273.27 99.87 272.92 100.14 272.62 100.41 272.32 100.73 272.06 101.1 271.85 101.47 271.64 101.86 271.48 102.27 271.38 102.68 271.28 103.3 271.17 104.15 271.06 105.83 270.86 107.08 270.62 107.91 270.33 107.91 270.18 107.92 270.06 107.92 269.97L107.92 269.78C107.92 268.92 107.72 268.32 107.32 267.96 106.79 267.48 105.99 267.25 104.92 267.25 103.93 267.25 103.19 267.43 102.72 267.78 102.25 268.12 101.9 268.74 101.68 269.62L99.62 269.34C99.81 268.46 100.12 267.74 100.55 267.2 100.98 266.66 101.6 266.24 102.41 265.95 103.23 265.65 104.17 265.5 105.23 265.5 106.29 265.5 107.16 265.62 107.82 265.88 108.48 266.14 108.97 266.45 109.28 266.83 109.58 267.19 109.8 267.67 109.94 268.26 110.01 268.63 110.05 269.28 110.05 270.21L110.05 273.02C110.05 274 110.06 274.81 110.09 275.42 110.12 276.03 110.14 276.48 110.18 276.74 110.27 277.26 110.45 277.76 110.72 278.23L108.52 278.23C108.3 277.8 108.16 277.29 108.1 276.69ZM107.9 271.99C107.52 272.15 107.04 272.29 106.47 272.42 105.9 272.55 105.23 272.67 104.45 272.78 103.59 272.9 102.98 273.05 102.61 273.2 102.26 273.35 101.98 273.58 101.78 273.89 101.58 274.18 101.49 274.51 101.49 274.89 101.49 275.17 101.54 275.43 101.65 275.68 101.76 275.93 101.91 276.13 102.12 276.31 102.33 276.49 102.59 276.62 102.91 276.72 103.23 276.82 103.59 276.87 104 276.87 104.41 276.87 104.79 276.82 105.16 276.73 105.53 276.64 105.86 276.5 106.17 276.33 106.48 276.16 106.75 275.95 106.98 275.7 107.21 275.45 107.41 275.18 107.56 274.87 107.79 274.38 107.9 273.67 107.9 272.76L107.9 271.99Z" fill="#231F20"/><path d="M117.94 278.21C117.36 278.33 116.83 278.4 116.35 278.4 115.58 278.4 114.99 278.28 114.57 278.04 114.15 277.8 113.85 277.48 113.68 277.09 113.51 276.7 113.42 275.87 113.42 274.59L113.42 267.43 111.87 267.43 111.87 265.79 113.42 265.79 113.42 262.71 115.52 261.44 115.52 265.79 117.64 265.79 117.64 267.43 115.52 267.43 115.52 274.71C115.52 275.31 115.56 275.7 115.63 275.87 115.71 276.04 115.83 276.18 115.99 276.28 116.16 276.38 116.4 276.43 116.72 276.43 116.84 276.43 116.97 276.43 117.12 276.41 117.27 276.39 117.45 276.38 117.64 276.35L117.94 278.21Z" fill="#231F20"/><path d="M119.36 272.01C119.36 269.71 120 268.01 121.28 266.89 122.34 265.97 123.65 265.51 125.19 265.51 126.89 265.51 128.29 266.07 129.39 267.2 130.48 268.31 131.02 269.86 131.02 271.84 131.02 273.43 130.78 274.7 130.29 275.63 129.81 276.55 129.11 277.26 128.19 277.76 127.27 278.27 126.27 278.52 125.19 278.52 123.45 278.52 122.04 277.96 120.96 276.84 119.89 275.72 119.35 274.11 119.35 272.01ZM121.53 272.01C121.53 273.6 121.88 274.79 122.57 275.6 123.27 276.39 124.14 276.78 125.19 276.78 126.24 276.78 127.11 276.38 127.8 275.58 128.5 274.78 128.84 273.56 128.84 271.94 128.84 270.4 128.49 269.24 127.79 268.45 127.09 267.65 126.23 267.25 125.19 267.25 124.15 267.25 123.26 267.64 122.57 268.43 121.88 269.22 121.53 270.41 121.53 272Z" fill="#231F20"/><path d="M142.52 283 142.52 265.79 144.44 265.79 144.44 267.41C144.89 266.78 145.4 266.3 145.98 265.99 146.56 265.68 147.24 265.52 148.05 265.52 149.12 265.52 150.06 265.79 150.86 266.33 151.66 266.87 152.28 267.65 152.7 268.66 153.11 269.67 153.32 270.76 153.32 271.93 153.32 273.2 153.09 274.34 152.63 275.38 152.18 276.4 151.51 277.18 150.64 277.72 149.77 278.26 148.86 278.53 147.9 278.53 147.19 278.53 146.56 278.38 146 278.08 145.44 277.78 144.99 277.41 144.63 276.96L144.63 283.02 142.52 283.02ZM144.43 272.08C144.43 273.68 144.75 274.87 145.4 275.63 146.05 276.39 146.83 276.78 147.76 276.78 148.69 276.78 149.49 276.39 150.16 275.6 150.83 274.8 151.17 273.56 151.17 271.91 151.17 270.26 150.84 269.14 150.19 268.35 149.54 267.56 148.76 267.17 147.86 267.17 146.96 267.17 146.16 267.59 145.47 268.44 144.78 269.27 144.44 270.49 144.44 272.1Z" fill="#231F20"/><path d="M163.72 276.7C162.93 277.37 162.18 277.84 161.46 278.11 160.73 278.38 159.96 278.52 159.14 278.52 157.77 278.52 156.72 278.19 155.99 277.52 155.26 276.85 154.89 276 154.89 274.95 154.89 274.48 154.97 274.05 155.13 273.66 155.29 273.27 155.51 272.92 155.78 272.62 156.05 272.32 156.37 272.06 156.74 271.85 157.11 271.64 157.5 271.48 157.91 271.38 158.32 271.28 158.94 271.17 159.79 271.06 161.47 270.86 162.72 270.62 163.55 270.33 163.55 270.18 163.56 270.06 163.56 269.97L163.56 269.78C163.56 268.92 163.36 268.32 162.96 267.96 162.43 267.48 161.63 267.25 160.56 267.25 159.57 267.25 158.83 267.43 158.36 267.78 157.89 268.12 157.54 268.74 157.32 269.62L155.26 269.34C155.45 268.46 155.76 267.74 156.19 267.2 156.62 266.66 157.24 266.24 158.05 265.95 158.87 265.65 159.81 265.5 160.87 265.5 161.93 265.5 162.8 265.62 163.46 265.88 164.12 266.14 164.61 266.45 164.92 266.83 165.22 267.19 165.44 267.67 165.58 268.26 165.65 268.63 165.69 269.28 165.69 270.21L165.69 273.02C165.69 274 165.7 274.81 165.73 275.42 165.76 276.03 165.78 276.48 165.82 276.74 165.91 277.26 166.09 277.76 166.36 278.23L164.16 278.23C163.94 277.8 163.8 277.29 163.74 276.69ZM163.54 271.99C163.16 272.15 162.68 272.29 162.11 272.42 161.54 272.55 160.87 272.67 160.09 272.78 159.23 272.9 158.62 273.05 158.25 273.2 157.9 273.35 157.62 273.58 157.42 273.89 157.22 274.18 157.13 274.51 157.13 274.89 157.13 275.17 157.18 275.43 157.29 275.68 157.4 275.93 157.55 276.13 157.76 276.31 157.97 276.49 158.23 276.62 158.55 276.72 158.87 276.82 159.23 276.87 159.64 276.87 160.05 276.87 160.43 276.82 160.8 276.73 161.17 276.64 161.5 276.5 161.81 276.33 162.12 276.16 162.39 275.95 162.62 275.7 162.85 275.45 163.05 275.18 163.2 274.87 163.43 274.38 163.54 273.67 163.54 272.76L163.54 271.99Z" fill="#231F20"/><path d="M169.92 274.19C170.04 275.03 170.36 275.68 170.89 276.12 171.42 276.56 172.17 276.78 173.14 276.78 174.11 276.78 174.82 276.58 175.3 276.19 175.77 275.79 176 275.33 176 274.8 176 274.32 175.79 273.95 175.38 273.68 175.09 273.5 174.37 273.26 173.22 272.97 171.68 272.59 170.61 272.25 170 271.96 169.41 271.67 168.95 271.28 168.64 270.78 168.34 270.28 168.18 269.72 168.18 269.1 168.18 268.54 168.3 268.02 168.56 267.55 168.82 267.08 169.16 266.69 169.6 266.38 169.76 266.26 169.96 266.15 170.19 266.05 170.42 265.95 170.67 265.85 170.94 265.77 171.21 265.69 171.5 265.63 171.81 265.58 172.12 265.53 172.44 265.51 172.77 265.51 173.75 265.51 174.61 265.65 175.35 265.93 176.09 266.21 176.63 266.59 176.98 267.08 177.34 267.57 177.58 268.21 177.71 269L175.65 269.28C175.56 268.64 175.29 268.14 174.84 267.78 174.39 267.42 173.76 267.24 172.93 267.24 171.96 267.24 171.27 267.4 170.86 267.72 170.45 268.04 170.24 268.42 170.24 268.84 170.24 269.11 170.33 269.36 170.5 269.58 170.67 269.81 170.94 269.99 171.31 270.14 171.42 270.18 171.63 270.24 171.94 270.33 172.25 270.42 172.66 270.54 173.18 270.68 174.68 271.08 175.72 271.41 176.3 271.66 176.88 271.9 177.34 272.27 177.69 272.76 178.03 273.24 178.19 273.84 178.19 274.56 178.19 275.28 177.98 275.93 177.57 276.55 177.16 277.17 176.57 277.66 175.8 277.99 175.03 278.32 174.16 278.49 173.18 278.49 171.56 278.49 170.33 278.15 169.48 277.48 168.63 276.81 168.09 275.81 167.86 274.49L169.95 274.16Z" fill="#231F20"/><path d="M185.13 278.21C184.55 278.33 184.02 278.4 183.54 278.4 182.77 278.4 182.18 278.28 181.76 278.04 181.34 277.8 181.04 277.48 180.87 277.09 180.7 276.7 180.61 275.87 180.61 274.59L180.61 267.43 179.06 267.43 179.06 265.79 180.61 265.79 180.61 262.71 182.71 261.44 182.71 265.79 184.83 265.79 184.83 267.43 182.71 267.43 182.71 274.71C182.71 275.31 182.75 275.7 182.82 275.87 182.9 276.04 183.02 276.18 183.18 276.28 183.35 276.38 183.59 276.43 183.91 276.43 184.03 276.43 184.16 276.43 184.31 276.41 184.46 276.39 184.64 276.38 184.83 276.35L185.13 278.21Z" fill="#231F20"/><path d="M198.03 274.5C197.68 275.78 197.04 276.77 196.12 277.47 195.2 278.17 194.01 278.52 192.56 278.52 190.74 278.52 189.29 277.96 188.22 276.84 187.16 275.72 186.63 274.15 186.63 272.12 186.63 270.09 187.17 268.41 188.25 267.24 189.33 266.08 190.73 265.51 192.45 265.51 194.17 265.51 195.47 266.08 196.53 267.21 197.58 268.35 198.11 269.94 198.11 271.99L198.11 272.22C198.11 272.31 198.11 272.42 198.1 272.55L188.82 272.55C188.9 273.92 189.28 274.96 189.98 275.69 190.67 276.42 191.53 276.78 192.58 276.78 193.35 276.78 194.01 276.58 194.56 276.17 195.11 275.76 195.54 275.12 195.86 274.22L198.04 274.49ZM195.87 270.82C195.78 269.78 195.51 269 195.07 268.46 194.4 267.65 193.53 267.24 192.46 267.24 191.5 267.24 190.68 267.56 190.01 268.21 189.35 268.86 188.99 269.73 188.92 270.81L195.87 270.81Z" fill="#231F20"/><path d="M60.56 319.5 60.56 317.48 67.84 317.48C67.84 317.48 67.84 323.84 67.84 323.84 65.59 325.63 63.22 326.52 60.73 326.52 59.05 326.52 57.52 326.16 56.12 325.44 54.74 324.71 53.7 323.66 53 322.3 52.3 320.93 51.95 319.41 51.95 317.72 51.95 316.03 52.3 314.5 52.99 313.04 53.69 311.59 54.7 310.51 56.01 309.81 57.32 309.11 58.83 308.76 60.55 308.76 61.81 308.76 62.93 308.96 63.91 309.37 64.91 309.76 65.7 310.32 66.28 311.05 66.85 311.77 67.28 312.71 67.58 313.86L65.53 314.42C65.27 313.54 64.95 312.86 64.57 312.36 64.18 311.85 63.63 311.45 62.93 311.16 62.21 310.86 61.42 310.7 60.56 310.7 59.76 310.7 59.06 310.79 58.45 310.98 57.84 311.17 57.31 311.41 56.85 311.73 56.39 312.05 56.01 312.41 55.7 312.83 55.39 313.25 55.14 313.68 54.95 314.13 54.51 315.21 54.29 316.36 54.29 317.59 54.29 319.13 54.55 320.41 55.08 321.44 55.61 322.47 56.37 323.23 57.39 323.73 58.39 324.23 59.46 324.48 60.6 324.48 61.58 324.48 62.55 324.29 63.48 323.92 63.95 323.72 64.36 323.53 64.72 323.33 65.08 323.13 65.37 322.92 65.62 322.7L65.62 319.5 60.57 319.5Z" fill="#231F20"/><path d="M70.79 311.48 70.79 309.05 72.9 309.05 72.9 311.48 70.79 311.48ZM70.79 326.23 70.79 313.78 72.9 313.78 72.9 326.23 70.79 326.23Z" fill="#231F20"/><path d="M75.78 326.24 75.78 313.79 77.68 313.79 77.68 315.56C78.59 314.19 79.91 313.51 81.64 313.51 82.38 313.51 83.07 313.65 83.7 313.92 84.32 314.19 84.8 314.54 85.12 314.97 85.28 315.19 85.41 315.43 85.52 315.69 85.63 315.95 85.72 316.23 85.78 316.53 85.82 316.73 85.85 316.99 85.87 317.33 85.89 317.67 85.9 318.09 85.9 318.58L85.9 326.23 83.79 326.23 83.79 318.66C83.79 317.8 83.71 317.16 83.54 316.74 83.38 316.31 83.08 315.97 82.66 315.72 82.25 315.46 81.76 315.33 81.2 315.33 80.29 315.33 79.52 315.62 78.87 316.19 78.22 316.77 77.9 317.85 77.9 319.44L77.9 326.24 75.79 326.24Z" fill="#231F20"/><path d="M90.01 327.57C90.09 328.19 90.33 328.66 90.72 328.95 91.25 329.34 91.97 329.54 92.86 329.54 93.84 329.54 94.59 329.34 95.12 328.95 95.65 328.56 96.01 328.01 96.2 327.31 96.25 327.09 96.3 326.76 96.32 326.31 96.34 325.86 96.36 325.29 96.35 324.6 95.43 325.69 94.28 326.23 92.9 326.23 91.19 326.23 89.86 325.61 88.93 324.38 87.99 323.15 87.52 321.67 87.52 319.94 87.52 318.74 87.73 317.64 88.16 316.66 88.59 315.66 89.21 314.88 90.02 314.33 90.83 313.78 91.79 313.51 92.9 313.51 94.37 313.51 95.58 314.1 96.53 315.29L96.53 313.79 98.48 313.79 98.48 324.55C98.48 326.49 98.28 327.86 97.88 328.66 97.5 329.46 96.87 330.11 96 330.58 95.14 331.05 94.09 331.28 92.85 331.28 91.37 331.28 90.17 330.94 89.25 330.27 88.34 329.6 87.89 328.59 87.93 327.26L89.98 327.56ZM89.71 319.79C89.71 321.41 90.03 322.61 90.68 323.36 91.32 324.11 92.13 324.48 93.12 324.48 94.11 324.48 94.9 324.11 95.56 323.37 96.22 322.62 96.54 321.45 96.54 319.85 96.54 318.25 96.2 317.18 95.52 316.4 94.85 315.63 94.04 315.24 93.08 315.24 92.12 315.24 91.35 315.62 90.69 316.39 90.03 317.16 89.71 318.28 89.71 319.78Z" fill="#231F20"/><path d="M112.16 322.5C111.81 323.78 111.17 324.77 110.25 325.47 109.33 326.17 108.14 326.52 106.69 326.52 104.87 326.52 103.42 325.96 102.35 324.84 101.29 323.72 100.76 322.15 100.76 320.12 100.76 318.09 101.3 316.41 102.38 315.24 103.46 314.08 104.86 313.51 106.58 313.51 108.3 313.51 109.6 314.08 110.66 315.21 111.71 316.35 112.24 317.94 112.24 319.99L112.24 320.22C112.24 320.31 112.24 320.42 112.23 320.55L102.95 320.55C103.03 321.92 103.41 322.96 104.11 323.69 104.8 324.42 105.66 324.78 106.71 324.78 107.48 324.78 108.14 324.58 108.69 324.17 109.24 323.76 109.67 323.12 109.99 322.22L112.17 322.49ZM110 318.82C109.91 317.78 109.64 317 109.2 316.46 108.53 315.65 107.66 315.24 106.59 315.24 105.63 315.24 104.81 315.56 104.14 316.21 103.48 316.86 103.12 317.73 103.05 318.81L110 318.81Z" fill="#231F20"/><path d="M114.71 326.24 114.71 313.79 116.61 313.79 116.61 315.68C117.09 314.8 117.54 314.22 117.95 313.93 118.36 313.64 118.81 313.51 119.31 313.51 120.02 313.51 120.74 313.74 121.48 314.19L120.75 316.15C120.23 315.85 119.72 315.69 119.2 315.69 118.73 315.69 118.32 315.83 117.95 316.11 117.58 316.39 117.33 316.77 117.17 317.26 116.94 318.01 116.82 318.83 116.82 319.72L116.82 326.24 114.71 326.24Z" fill="#231F20"/><path d="M52.42 374.24 52.42 357.06 54.69 357.06 54.69 372.21 63.15 372.21 63.15 374.24 52.42 374.24Z" fill="#231F20"/><path d="M76.73 370.5C76.38 371.78 75.74 372.77 74.82 373.47 73.9 374.17 72.71 374.52 71.26 374.52 69.44 374.52 67.99 373.96 66.92 372.84 65.86 371.72 65.33 370.15 65.33 368.12 65.33 366.09 65.87 364.41 66.95 363.24 68.03 362.08 69.43 361.51 71.15 361.51 72.87 361.51 74.17 362.08 75.23 363.21 76.28 364.35 76.81 365.94 76.81 367.99L76.81 368.22C76.81 368.31 76.81 368.42 76.8 368.55L67.52 368.55C67.6 369.92 67.98 370.96 68.68 371.69 69.37 372.42 70.23 372.78 71.28 372.78 72.05 372.78 72.71 372.58 73.26 372.17 73.81 371.76 74.24 371.12 74.56 370.22L76.74 370.49ZM74.57 366.82C74.48 365.78 74.21 365 73.77 364.46 73.1 363.65 72.23 363.24 71.16 363.24 70.2 363.24 69.38 363.56 68.71 364.21 68.05 364.86 67.69 365.73 67.62 366.81L74.57 366.81Z" fill="#231F20"/><path d="M79.31 374.24 79.31 361.79 81.2 361.79 81.2 363.54C81.6 362.93 82.12 362.44 82.76 362.07 83.4 361.7 84.14 361.51 84.97 361.51 85.89 361.51 86.65 361.7 87.24 362.08 87.83 362.46 88.25 363 88.49 363.69 89.47 362.24 90.76 361.51 92.33 361.51 93.57 361.51 94.52 361.85 95.18 362.53 95.84 363.21 96.17 364.26 96.17 365.69L96.17 374.23 94.07 374.23 94.07 366.39C94.07 365.55 94 364.94 93.86 364.57 93.73 364.19 93.48 363.89 93.12 363.67 92.75 363.44 92.33 363.33 91.85 363.33 90.97 363.33 90.24 363.62 89.67 364.21 89.09 364.79 88.8 365.72 88.8 367L88.8 374.23 86.69 374.23 86.69 366.14C86.69 365.19 86.52 364.49 86.17 364.02 85.82 363.55 85.26 363.32 84.48 363.32 83.88 363.32 83.33 363.48 82.83 363.79 82.32 364.11 81.96 364.57 81.74 365.16 81.51 365.77 81.4 366.64 81.4 367.76L81.4 374.22 79.29 374.22Z" fill="#231F20"/><path d="M97.95 368.01C97.95 365.71 98.59 364.01 99.87 362.89 100.93 361.97 102.24 361.51 103.78 361.51 105.48 361.51 106.88 362.07 107.98 363.2 109.07 364.31 109.61 365.86 109.61 367.84 109.61 369.43 109.37 370.7 108.88 371.63 108.4 372.55 107.7 373.26 106.78 373.76 105.86 374.27 104.86 374.52 103.78 374.52 102.04 374.52 100.63 373.96 99.55 372.84 98.48 371.72 97.94 370.11 97.94 368.01ZM100.12 368.01C100.12 369.6 100.47 370.79 101.16 371.6 101.86 372.39 102.73 372.78 103.78 372.78 104.83 372.78 105.7 372.38 106.39 371.58 107.09 370.78 107.43 369.56 107.43 367.94 107.43 366.4 107.08 365.24 106.38 364.45 105.68 363.65 104.82 363.25 103.78 363.25 102.74 363.25 101.85 363.64 101.16 364.43 100.47 365.22 100.12 366.41 100.12 368Z" fill="#231F20"/><path d="M112.07 374.24 112.07 361.79 113.97 361.79 113.97 363.56C114.88 362.19 116.2 361.51 117.93 361.51 118.67 361.51 119.36 361.65 119.99 361.92 120.61 362.19 121.09 362.54 121.41 362.97 121.57 363.19 121.7 363.43 121.81 363.69 121.92 363.95 122.01 364.23 122.07 364.53 122.11 364.73 122.14 364.99 122.16 365.33 122.18 365.67 122.19 366.09 122.19 366.58L122.19 374.23 120.08 374.23 120.08 366.66C120.08 365.8 120 365.16 119.83 364.74 119.67 364.31 119.37 363.97 118.95 363.72 118.54 363.46 118.05 363.33 117.49 363.33 116.58 363.33 115.81 363.62 115.16 364.19 114.51 364.77 114.19 365.85 114.19 367.44L114.19 374.24 112.08 374.24Z" fill="#231F20"/></g><g><path d="M172.95 426.73C173.42 424.17 173.63 422.66 173.74 421.69 173.85 420.61 174.71 419.6 176.26 419.64L176.84 419.64C177.74 419.64 178.89 419.6 179.97 419.57L180.29 419.57C181.05 419.53 182.13 419.5 182.52 419.5 186.7 419.5 190.19 420.76 190.19 425.22 190.19 426.95 189.47 435.08 178.02 435.08L176.4 435.08C176 437.24 175.64 439.4 175.25 441.59 175.25 441.66 175.21 441.73 175.21 441.81 175.21 441.85 175.21 441.88 175.14 442.03L175.18 441.99C175.14 442.31 175.11 442.6 175.07 442.85 174.89 443.97 173.77 444.9 172.23 444.9L171.62 444.9C170.32 444.9 169.39 443.93 169.64 442.96 170.14 441.45 170.54 439.54 170.86 437.88 170.9 437.74 170.93 437.56 170.97 437.41L172.95 426.72ZM176.8 432.31 177.45 432.31C179.11 432.31 180.69 432.06 181.88 431.55L181.84 431.55C184.32 430.25 184.86 426.83 184.86 425.43 184.86 421.9 182.02 421.9 180.47 421.9L180.07 421.9C179.89 421.9 179.67 421.94 179.42 421.94L179.1 421.94C178.99 421.94 179.17 421.98 178.88 421.98 178.52 423.49 178.34 424.46 178.2 425.15 178.2 425.22 178.16 425.26 178.16 425.33 178.12 425.51 178.09 425.65 178.05 425.83 177.98 426.12 177.91 426.41 177.83 426.77L176.79 432.31Z" fill="#231F20"/><path d="M191.24 431.59C191.6 429.65 191.71 428.46 191.67 427.63 191.6 426.73 192.21 425.83 193.47 425.65 193.83 425.61 194.15 425.58 194.41 425.54L194.37 425.54C195.67 425.29 196.89 426.01 196.82 426.87 196.78 426.98 196.78 427.34 196.71 427.59 196.67 427.77 196.6 427.88 196.57 428.06 197.15 427.3 197.83 426.58 198.66 426.01 199.27 425.61 200.03 425.29 200.75 425.04 202.08 424.64 203.16 425.65 202.84 426.66 202.52 427.6 201.15 428.24 199.78 428.57L199.82 428.57C198.45 428.93 196.62 430.44 195.64 434.01 195.1 435.88 194.27 440.6 194.09 442.94 193.98 444.02 192.79 444.88 191.39 444.85L191.21 444.85C189.95 444.85 188.8 444.02 189.05 443.05 189.23 442.44 189.41 441.79 189.48 441.32L191.24 431.6Z" fill="#231F20"/><path d="M207.08 436.13C206.43 439.73 206.14 441.85 206.04 443.08 205.97 444.12 204.67 444.84 203.3 444.84L203.01 444.84C201.86 444.88 200.96 443.87 201.07 442.97 201.07 442.93 201.11 442.86 201.11 442.79 201.29 442.03 201.54 441.03 201.79 439.55L202.4 436.02C203.26 431.27 203.59 428.93 203.55 427.63 203.51 426.77 203.91 425.72 205.28 425.65 205.78 425.58 206.14 425.51 206.54 425.43 207.76 425.18 208.81 426.08 208.74 427.01 208.7 427.15 208.67 427.41 208.67 427.59 208.53 428.24 208.35 429.1 208.13 430.29L207.09 436.12ZM209.96 420.33C209.96 421.52 208.88 423.35 206.79 423.35 205.57 423.35 204.31 422.77 204.31 421.44 204.31 420.32 205.32 418.49 207.55 418.49 208.81 418.49 209.96 419.1 209.96 420.32Z" fill="#231F20"/><path d="M224.72 425.15C225.84 425.4 226.2 426.45 225.91 427.17 225.69 427.75 225.05 427.96 224.25 427.96 223.78 427.96 223.39 427.89 223.1 427.74L223.14 427.74C222.71 427.6 222.24 427.49 221.7 427.49 217.31 427.49 214.72 432.31 214.72 437.21 214.72 438.97 215.01 441.13 216.63 442.14 217.57 442.75 218.47 442.97 219.33 442.97 220.12 442.97 220.81 442.83 221.49 442.57 222.53 442.28 223.29 443 223.04 443.72 222.72 444.55 221.64 445.16 220.45 445.34 219.91 445.41 219.23 445.45 218.58 445.45 212.89 445.45 209.44 442.35 209.44 437.46 209.44 431.84 213.54 424.9 222.25 424.9 223.33 424.9 224.12 425.01 224.73 425.15Z" fill="#231F20"/><path d="M233.21 442.97C234.51 442.97 235.59 442.61 236.45 442.25 237.35 441.85 238.43 442.39 238.21 443.19 237.96 443.98 237.2 444.77 235.91 445.13 235.01 445.31 233.89 445.49 232.38 445.49 226.12 445.31 224.57 441.96 224.5 437.46 224.5 433.61 226.44 430.37 227.67 428.89 230.15 425.79 233.68 424.79 236.27 424.79 240.12 424.79 242.07 426.7 242.07 429.18 242.07 430.19 241.57 431.59 240.77 432.82 239.91 434.12 238.32 435.16 237.06 435.77 234.79 436.92 232.38 437.07 229.64 437.17 229.6 437.31 229.57 437.78 229.57 438.47 229.57 440.2 230.07 443.01 233.21 442.97ZM229.79 436.17C231.77 435.88 233.86 434.59 235.66 432.89 236.49 432.06 237.14 430.8 237.14 429.33 237.14 427.86 236.38 427.06 235.48 427.06 234.94 427.06 233.72 427.31 232.17 429.11 231.05 430.44 230.08 433.18 229.79 436.17Z" fill="#231F20"/><path d="M246.21 440.59C247.69 440.59 248.69 441.38 248.69 442.5 248.69 443.9 247.14 445.34 245.38 445.34 244.3 445.34 242.82 444.87 242.82 443.4 242.82 441.74 244.73 440.59 246.2 440.59ZM248.98 425.22C250.42 425.22 251.43 426.01 251.43 427.16 251.43 428.56 249.92 429.97 248.15 429.97 247.07 429.97 245.56 429.43 245.56 428.03 245.56 426.37 247.5 425.22 248.98 425.22Z" fill="#231F20"/><path d="M267.34 431.12C268.38 430.4 269.86 429.39 272.06 429.39 276.56 429.39 278.86 432.16 278.86 435.55 278.86 438.03 277.71 440.95 274.47 443.29 272.06 445.09 269.18 445.49 266.23 445.49 264.61 445.49 263.46 445.31 262.45 445.06 261.19 444.74 260.61 443.62 260.87 442.72 261.09 442.11 261.81 441.78 262.63 441.78 263.1 441.78 263.6 441.89 264.07 442.14 264.36 442.32 264.61 442.43 264.83 442.5 265.87 442.82 266.63 442.86 267.21 442.86 271.96 442.86 273.47 438.79 273.47 436.13 273.47 433.32 271.63 432.39 269.4 432.39 268 432.39 266.77 432.71 265.62 433.15 264.43 433.69 262.92 433.01 263.14 431.96 264 428.4 264.62 425.3 265.23 421.41 265.45 420.22 266.85 419.47 268.43 419.5 268.61 419.5 268.83 419.54 269.01 419.54 269.23 419.54 269.44 419.54 269.62 419.58L269.58 419.58C269.9 419.62 270.26 419.65 270.52 419.65 271.89 419.69 273.22 419.72 274.34 419.72 275.82 419.72 277.33 419.72 278.66 419.58L278.59 419.58C278.7 419.54 278.84 419.54 279.02 419.54L278.98 419.54C280.31 419.43 281.64 420.19 281.25 421.12 281.11 421.44 280.82 421.88 280.28 422.45 279.2 423.46 277.69 423.6 274.02 423.6 272.04 423.6 270.78 423.6 268.8 423.46L267.36 431.13Z" fill="#231F20"/><path d="M295.2 419.64C298.44 420.65 299.38 422.95 299.38 424.43 299.38 427.74 296.54 430.19 293.33 431.27 292.86 431.41 292.61 431.52 292.03 431.7 292.5 431.74 293.04 431.81 293.43 431.84 296.63 432.34 298.51 433.86 298.51 436.23 298.51 442.1 293.22 445.41 286.49 445.41 284.22 445.41 283.03 445.27 282.03 445.05 280.88 444.76 280.23 443.68 280.48 442.85 280.8 441.88 282.32 441.73 283.54 442.2 284.15 442.52 285.05 442.78 286.24 442.78 291.82 442.78 293.12 439.04 293.12 436.95 293.12 435.37 292.62 433.39 287.61 433.39 286.96 433.39 286.31 433.46 285.77 433.53 284.76 433.6 283.75 432.88 283.9 432.16 284.12 431.4 285.23 430.86 286.49 430.86L286.81 430.86C291.31 430.86 293.87 428.3 293.87 425.39 293.87 423.66 292.86 422.37 290.56 422.37 289.7 422.37 288.9 422.48 288.29 422.59 288.25 422.59 288.15 422.63 288.11 422.63 287.68 422.74 287.17 422.92 286.63 423.1 285.59 423.46 284.29 422.99 284.47 422.2 284.69 421.19 285.69 420.26 286.99 419.9 288.36 419.58 290.09 419.25 292.1 419.25 293.32 419.25 294.33 419.39 295.2 419.65Z" fill="#231F20"/><path d="M327.93 421.91C327.68 422.56 326.96 422.88 326.09 422.88 325.62 422.88 325.19 422.81 324.87 422.63 323.93 422.16 322.93 421.98 321.95 421.91 321.81 422.34 321.59 422.88 321.41 423.35 321.23 423.89 321.09 424.39 320.91 424.9 320.69 425.33 320.08 425.55 319.54 425.55 318.89 425.55 318.28 425.23 318.35 424.65 318.39 424.22 318.42 423.82 318.46 423.43 318.5 423.07 318.53 422.89 318.53 422.53 317.45 423.03 316.05 424.22 316.05 426.49 316.05 428.76 317.49 429.44 318.43 429.95 318.61 430.06 318.75 430.17 318.9 430.24 322.28 431.97 325.16 433.7 325.16 437.12 325.16 438.99 324.15 441.04 322.6 442.52 320.98 443.92 318.93 444.68 317.2 445.11 317.13 445.51 317.06 445.94 316.98 446.33 316.91 446.73 316.8 447.09 316.73 447.45L316.73 447.59 316.69 447.7C316.62 448.35 315.79 448.89 314.71 448.89 313.99 448.89 313.27 448.31 313.23 447.88 313.27 447.84 313.34 447.77 313.41 447.63L313.37 447.63 313.37 447.27C313.44 446.98 313.48 446.69 313.55 446.37 313.62 446.05 313.73 445.83 313.73 445.51L313.23 445.51C311.18 445.51 309.85 445.37 308.73 445.01 307.58 444.58 307.07 443.21 307.47 442.27 307.76 441.66 308.44 441.37 309.27 441.37 309.74 441.37 310.31 441.51 310.67 441.69 311.53 442.12 312.83 442.45 314.31 442.48 314.45 442.05 314.63 441.58 314.81 441.11 314.99 440.61 315.13 440.14 315.28 439.71 315.46 439.17 316.04 438.95 316.61 438.95 317.29 438.95 317.98 439.31 317.91 439.99 317.91 440.31 317.87 440.71 317.84 441.03 317.84 441.21 317.84 441.5 317.8 441.82 318.3 441.57 318.81 441.21 319.49 440.34 319.96 439.76 320.17 438.9 320.17 437.93 320.31 435.81 318.59 434.94 317.61 434.47 317.54 434.43 317.36 434.36 317.36 434.36 314.8 433.03 311.06 431.01 311.06 427.52 311.06 426.76 311.17 426.01 311.38 425.29 311.81 423.85 312.96 422.48 314.3 421.33 315.78 420.07 317.32 419.6 319.09 419.24 319.34 418.27 319.45 417.73 319.52 417.04 319.59 416.39 320.53 415.92 321.46 415.92 322.39 415.92 323.12 416.53 322.97 417.11 323.22 416.61 322.83 417.83 322.72 418.3 322.68 418.44 322.61 418.95 322.61 418.95 324.27 419.02 324.99 419.13 326.17 419.45 327.43 419.77 328.22 420.93 327.9 421.9Z" fill="#231F20"/></g><circle cx="32.27" cy="179.4" r="6.27" fill="#231F20"/><circle cx="32.27" cy="226.38" r="6.27" fill="#231F20"/><circle cx="32.27" cy="273.37" r="6.27" fill="#231F20"/><circle cx="32.27" cy="320.36" r="6.27" fill="#231F20"/><circle cx="32.27" cy="367.35" r="6.27" fill="#231F20"/><rect x="23.48" y="439.4" width="135.28" height="4.04" fill="#606161"/><g><path d="M54.37 81.4C54.44 82.05 54.51 82.66 54.59 83.16 54.63 83.3 54.63 83.56 54.66 83.66 54.77 84.49 54.84 84.99 54.91 85.42 55.05 86.43 53.94 87.4 52.5 87.37L52.39 87.33 51.99 87.33C50.59 87.37 49.47 86.65 49.43 85.64 49.43 85.42 49.39 84.99 49.36 84.6 49.32 84.24 49.29 83.63 49.25 83.13 49.21 82.7 49.18 82.05 49.14 81.62 49.1 81.01 49.07 80.47 49.03 79.93L41.47 79.93 40.68 81.58C40.39 82.16 40.14 82.77 39.85 83.31 39.42 84.21 39.06 85 38.84 85.54 38.41 86.62 37.18 87.41 35.64 87.38 35.5 87.34 35.42 87.34 35.32 87.34 34.28 87.34 33.34 86.48 33.74 85.72 34.78 83.96 36.01 81.69 37.09 79.6L37.95 78.02C39.75 74.67 43.35 67.62 45.15 63.95 45.73 62.87 47.27 62.22 48.82 62.26 49.07 62.3 49.32 62.3 49.58 62.3 51.06 62.3 52.46 63.02 52.57 64.17 52.64 65.18 52.71 66.19 52.82 67.23 52.82 67.41 52.86 67.59 52.86 67.77 52.9 67.95 52.9 68.2 52.93 68.38 52.93 68.52 52.97 68.63 52.97 68.77L54.37 81.4ZM42.74 77.19C44.9 77.23 45.8 77.23 46.56 77.23 47.42 77.23 47.93 77.23 48.76 77.19 48.65 76 48.58 74.78 48.47 73.59 48.36 72.37 48.22 71.18 48.11 69.99 47.97 68.84 47.89 68.01 47.86 67.51L47.86 67.47C47.86 67.47 47.82 67.54 47.79 67.58 47.57 67.94 47.39 68.3 47.18 68.7 46.89 69.24 46.6 69.74 46.39 70.14 46.21 70.46 46.07 70.75 45.99 70.93L42.75 77.19Z" fill="#231F20"/><path d="M59.41 73.77C60.09 69.92 60.63 66.79 60.63 64.77 60.63 64.48 60.59 64.19 60.56 63.98 60.49 63.12 61.1 62.22 62.4 62.04 62.76 62 63.12 61.93 63.55 61.82 64.81 61.57 66.29 62.14 66.07 63.19 66 63.48 65.93 63.8 65.85 64.23 65.78 64.48 65.71 64.95 65.67 65.27 65.56 65.85 65.42 66.6 65.24 67.5 65.13 68.19 65.02 69.01 64.88 69.73 64.81 70.05 64.74 70.38 64.7 70.7 65.96 69.12 67.76 67.42 70.1 67.42 73.16 67.42 76.08 69.33 76.08 73.65 76.08 74.94 75.86 76.28 75.54 77.54 73.88 83.66 69.53 88.01 62.55 88.01 60.93 88.01 59.78 87.87 58.88 87.62L58.92 87.62C57.41 87.26 56.94 85.89 57.23 84.78 57.48 83.84 57.73 82.69 58.17 80.57L59.43 73.77ZM64.99 73.37C63.26 76.21 62.61 81.79 62.18 85.5 62.76 85.61 63.19 85.68 63.73 85.68 70.32 85.68 71.11 76.93 71.11 74.88 71.11 72.61 70.46 70.63 68.63 70.63 67.33 70.63 66 71.75 64.99 73.36Z" fill="#231F20"/><path d="M92.71 84.43C91.77 89.58 91.09 93.5 85.62 95.52L85.66 95.52C83.86 96.2 81.56 96.49 79.47 96.49 78.35 96.49 77.42 96.42 76.7 96.28 75.73 96.03 75.01 95.09 75.4 94.3 75.87 93.36 77.13 93.01 78.35 93.4 78.96 93.58 79.65 93.72 80.55 93.72 82.31 93.72 84.15 93.14 85.52 91.67 86.71 90.59 87.39 88.03 88.11 84.36 86.81 86.16 85.12 87.85 82.53 87.85 80.15 87.85 78.35 86.88 77.49 85.44L77.53 85.44C76.52 83.89 76.45 82.38 76.45 81.63 76.45 75.84 80.7 67.41 88.8 67.41 90.82 67.41 91.93 67.88 92.87 68.27L92.76 68.27C92.76 68.27 92.83 68.31 92.83 68.31 93.08 68.2 93.26 68.13 93.26 68.13 94.59 67.66 95.85 68.56 95.56 69.64 95.24 70.79 94.91 72.19 94.41 75.18L92.72 84.43ZM88.28 69.85C82.52 69.85 81.44 77.59 81.44 80.36 81.44 81.26 81.55 82.56 82.02 83.28 82.56 84.18 83.21 84.65 83.93 84.65 85.15 84.65 86.52 83.43 87.49 82.17 88.57 80.41 89.25 77.31 90.62 70.44L90.73 70.44C90.12 70.19 89.29 69.86 88.28 69.86Z" fill="#231F20"/><path d="M113.84 69.24C115.71 71.11 115.78 73.2 115.78 74.21 115.78 79.83 112.14 87.92 103.9 87.92 101.81 87.92 99.76 87.34 98.36 86.08 97.5 85.25 96.13 83.67 96.13 80.5 96.13 74.71 99.98 67.36 108.08 67.36 110.64 67.36 112.65 67.97 113.84 69.23ZM109.74 70.75C109.31 70.35 108.59 69.81 107.54 69.81 102.39 69.81 101.13 78.12 101.13 80.93 101.13 84.31 102.57 85.5 104.23 85.5 109.92 85.5 110.71 75.78 110.71 74.05 110.71 73.15 110.67 71.6 109.74 70.74Z" fill="#231F20"/><path d="M134.07 69.24C135.94 71.11 136.01 73.2 136.01 74.21 136.01 79.83 132.37 87.92 124.13 87.92 122.04 87.92 119.99 87.34 118.59 86.08 117.73 85.25 116.36 83.67 116.36 80.5 116.36 74.71 120.21 67.36 128.31 67.36 130.87 67.36 132.88 67.97 134.07 69.23ZM129.97 70.75C129.54 70.35 128.82 69.81 127.77 69.81 122.62 69.81 121.36 78.12 121.36 80.93 121.36 84.31 122.8 85.5 124.46 85.5 130.15 85.5 130.94 75.78 130.94 74.05 130.94 73.15 130.9 71.6 129.97 70.74Z" fill="#231F20"/><path d="M140.34 78.38C139.22 77.73 137.1 76.44 137.1 74.13 137.1 72.19 138.43 70.39 140.2 68.98 142.04 67.61 144.84 67.36 146.32 67.36 147.4 67.36 148.16 67.43 148.8 67.61L148.76 67.61C149.95 67.86 150.56 68.9 150.2 69.73 149.95 70.31 149.23 70.59 148.44 70.59 147.97 70.59 147.54 70.52 147.22 70.34L147.26 70.34C146.72 70.09 146.11 69.91 145.5 69.91 143.2 69.91 141.97 71.64 141.97 73.01 141.97 74.7 143.12 75.35 144.31 76.03L146.11 77.15C147.26 77.84 149.03 78.92 149.03 81.04 149.03 82.59 148.24 84.64 145.97 86.3 143.85 87.85 141.18 87.95 139.53 87.95 138.56 87.95 137.55 87.84 136.87 87.7 135.61 87.38 134.75 86.44 134.96 85.65 135.43 84.46 136.87 84.03 137.98 84.57L137.94 84.57C138.62 84.89 139.45 85.15 140.71 85.15 143.09 85.15 144.35 83.64 144.35 82.2 144.35 80.76 143.49 80.22 142.59 79.68L140.36 78.38Z" fill="#231F20"/><path d="M152.9 70.75C153.62 66.93 153.91 65.03 153.87 63.95 153.83 63.12 154.23 62.19 155.53 62.04 155.89 62 156.29 61.97 156.65 61.9 157.95 61.72 159.31 62.44 159.1 63.41 158.88 64.45 158.7 65.36 158.34 67.12 158.16 68.13 157.94 69.17 157.76 70.22 157.733 70.2933 157.733 70.3067 157.76 70.26 158.26 69.58 158.84 69 159.67 68.5 161.22 67.49 162.8 67.31 163.95 67.31 166.61 67.31 169.17 68.43 169.17 71.3 169.17 72.06 169.03 72.99 168.74 74.83L167.34 82.86C167.2 83.76 167.09 84.84 167.02 85.49 166.95 86.57 165.72 87.4 164.21 87.4 162.95 87.4 161.83 86.5 162.05 85.56 162.23 84.87 162.45 83.87 162.66 82.64 163.09 80.01 163.56 77.13 164.03 74.51 164.14 73.9 164.25 73.18 164.25 72.64 164.25 71.31 163.82 70.3 162.34 70.3 161.12 70.3 159.78 70.99 158.7 72.14 158.16 72.72 157.15 74.62 156.36 77.86 156.14 78.8 155.32 83.11 154.99 85.38 154.81 86.57 153.55 87.43 151.97 87.43 150.75 87.43 149.77 86.53 150.06 85.63 150.24 84.95 150.6 83.29 151.07 80.77L152.91 70.76Z" fill="#231F20"/><path d="M178.68 67.4C178.86 67.4 179.04 67.36 179.22 67.36 179.69 67.36 180.12 67.36 180.48 67.32 181.56 67.21 182.42 67.93 182.28 68.65 182.06 69.44 181.02 69.95 179.83 69.95 179.15 69.91 178.57 69.91 178.07 69.91 178.03 70.09 178 70.2 177.96 70.41 177.78 71.27 177.56 72.35 177.35 73.43 177.17 74.4 176.95 75.48 176.77 76.45 176.63 77.28 176.45 78.03 176.34 78.57 175.94 80.44 175.66 82.06 175.66 83.11 175.66 84.44 176.24 84.98 177.03 84.98 177.25 84.98 177.5 84.94 177.79 84.87 178.76 84.73 179.7 85.34 179.59 85.95 179.37 86.85 178.44 87.64 177.14 87.82 176.89 87.86 176.46 87.86 176.2 87.86 173.79 87.86 172.24 87.17 171.7 86.42 171.16 85.63 170.87 84.98 170.87 84.26 170.87 83.54 171.01 82.78 171.19 81.78L173.46 69.83C172.74 69.69 172.16 69.18 172.27 68.61 172.38 67.89 173.06 67.31 174 67.31 174.18 66.41 174.25 65.65 174.32 64.93 174.43 63.78 175.51 62.77 177.06 62.41 178.32 62.16 179.65 62.84 179.4 63.78 179.04 64.97 178.82 65.83 178.57 67.38L178.68 67.38Z" fill="#231F20"/></g></svg>