<svg viewBox="0 0 356.59 489.29" xmlns="http://www.w3.org/2000/svg" xmlns:xlink="http://www.w3.org/1999/xlink" id="Layer_1" overflow="hidden"><defs></defs><rect x="0.5" y="0.5" rx="20.5" ry="20.5" width="355.59" height="488.29" stroke="#515251" stroke-miterlimit="10" fill="#FFFFFF" opacity="0.76"/><g><path d="M67.05 176.79C66.57 178.67 65.71 180.09 64.47 181.07 63.23 182.05 61.72 182.53 59.93 182.53 58.14 182.53 56.57 182.15 55.41 181.4 54.25 180.65 53.37 179.55 52.76 178.12 52.16 176.68 51.86 175.15 51.86 173.51 51.86 171.72 52.2 170.16 52.88 168.83 53.57 167.5 54.54 166.49 55.8 165.79 57.07 165.09 58.46 164.75 59.97 164.75 61.7 164.75 63.14 165.19 64.31 166.06 65.49 166.94 66.31 168.17 66.76 169.75L64.52 170.28C64.12 169.03 63.54 168.12 62.79 167.55 62.04 166.98 61.08 166.69 59.93 166.69 58.61 166.69 57.5 167.01 56.61 167.64 55.73 168.27 55.11 169.12 54.75 170.19 54.39 171.24 54.21 172.34 54.21 173.48 54.21 174.21 54.26 174.89 54.37 175.54 54.48 176.19 54.64 176.77 54.85 177.31 55.06 177.85 55.34 178.32 55.67 178.73 56 179.14 56.39 179.48 56.84 179.75 57.74 180.29 58.71 180.56 59.76 180.56 60.39 180.56 60.98 180.47 61.53 180.28 62.08 180.09 62.57 179.82 62.99 179.45 63.41 179.08 63.79 178.63 64.09 178.08 64.39 177.53 64.63 176.9 64.78 176.18L67.05 176.75Z" fill="#231F20"/><path d="M77.94 180.7C77.15 181.37 76.4 181.84 75.68 182.11 74.95 182.38 74.18 182.52 73.36 182.52 71.99 182.52 70.94 182.19 70.21 181.52 69.48 180.85 69.11 180 69.11 178.95 69.11 178.48 69.19 178.05 69.35 177.66 69.51 177.27 69.73 176.92 70 176.62 70.27 176.32 70.59 176.06 70.96 175.85 71.33 175.64 71.72 175.48 72.13 175.38 72.54 175.28 73.16 175.17 74.01 175.06 75.69 174.86 76.94 174.62 77.77 174.33 77.77 174.18 77.78 174.06 77.78 173.97L77.78 173.78C77.78 172.92 77.58 172.32 77.18 171.96 76.65 171.48 75.85 171.25 74.78 171.25 73.79 171.25 73.05 171.43 72.58 171.78 72.11 172.12 71.76 172.74 71.54 173.62L69.48 173.34C69.67 172.46 69.98 171.74 70.41 171.2 70.84 170.66 71.46 170.24 72.27 169.95 73.09 169.65 74.03 169.5 75.09 169.5 76.15 169.5 77.02 169.62 77.68 169.88 78.34 170.14 78.83 170.45 79.14 170.83 79.44 171.19 79.66 171.67 79.8 172.26 79.87 172.63 79.91 173.28 79.91 174.21L79.91 177.02C79.91 178 79.92 178.81 79.95 179.42 79.98 180.03 80 180.48 80.04 180.74 80.13 181.26 80.31 181.76 80.58 182.23L78.38 182.23C78.16 181.8 78.02 181.29 77.96 180.69ZM77.76 175.99C77.38 176.15 76.9 176.29 76.33 176.42 75.76 176.55 75.09 176.67 74.31 176.78 73.45 176.9 72.84 177.05 72.47 177.2 72.12 177.35 71.84 177.58 71.64 177.89 71.44 178.18 71.35 178.51 71.35 178.89 71.35 179.17 71.4 179.43 71.51 179.68 71.62 179.93 71.77 180.13 71.98 180.31 72.19 180.49 72.45 180.62 72.77 180.72 73.09 180.82 73.45 180.87 73.86 180.87 74.27 180.87 74.65 180.82 75.02 180.73 75.39 180.64 75.72 180.5 76.03 180.33 76.34 180.16 76.61 179.95 76.84 179.7 77.07 179.45 77.27 179.18 77.42 178.87 77.65 178.38 77.76 177.67 77.76 176.76L77.76 175.99Z" fill="#231F20"/><path d="M82.87 182.23 82.87 169.78 84.77 169.78 84.77 171.67C85.25 170.79 85.7 170.21 86.11 169.92 86.52 169.63 86.97 169.5 87.47 169.5 88.18 169.5 88.9 169.73 89.64 170.18L88.91 172.14C88.39 171.84 87.88 171.68 87.36 171.68 86.89 171.68 86.48 171.82 86.11 172.1 85.74 172.38 85.49 172.76 85.33 173.25 85.1 174 84.98 174.82 84.98 175.71L84.98 182.23 82.87 182.23Z" fill="#231F20"/><path d="M92.19 187 92.19 169.79 94.11 169.79 94.11 171.41C94.56 170.78 95.07 170.3 95.65 169.99 96.23 169.68 96.91 169.52 97.72 169.52 98.79 169.52 99.73 169.79 100.53 170.33 101.33 170.87 101.95 171.65 102.37 172.66 102.78 173.67 102.99 174.76 102.99 175.93 102.99 177.2 102.76 178.34 102.3 179.38 101.85 180.4 101.18 181.18 100.31 181.72 99.44 182.26 98.53 182.53 97.57 182.53 96.86 182.53 96.23 182.38 95.67 182.08 95.11 181.78 94.66 181.41 94.3 180.96L94.3 187.02 92.19 187.02ZM94.1 176.08C94.1 177.68 94.42 178.87 95.07 179.63 95.72 180.39 96.5 180.78 97.43 180.78 98.36 180.78 99.16 180.39 99.83 179.6 100.5 178.8 100.84 177.56 100.84 175.91 100.84 174.26 100.51 173.14 99.86 172.35 99.21 171.56 98.43 171.17 97.53 171.17 96.63 171.17 95.83 171.59 95.14 172.44 94.45 173.27 94.11 174.49 94.11 176.1Z" fill="#231F20"/><path d="M114.8 182.23 114.8 171.43 112.94 171.43 112.94 169.79 114.8 169.79 114.8 168.47C114.8 167.63 114.87 167.01 115.02 166.61 115.12 166.34 115.26 166.09 115.44 165.86 115.62 165.63 115.83 165.44 116.1 165.28 116.37 165.12 116.67 164.99 117.03 164.9 117.39 164.81 117.79 164.77 118.25 164.77 118.84 164.77 119.5 164.84 120.22 164.98L119.9 166.82C119.68 166.78 119.47 166.75 119.26 166.73 119.05 166.71 118.85 166.7 118.66 166.7 118.03 166.7 117.57 166.84 117.3 167.11 117.03 167.38 116.9 167.89 116.9 168.65L116.9 169.8 119.33 169.8 119.33 171.44 116.9 171.44 116.9 182.24 114.8 182.24Z" fill="#231F20"/><path d="M121.81 167.48 121.81 165.05 123.92 165.05 123.92 167.48 121.81 167.48ZM121.81 182.23 121.81 169.78 123.92 169.78 123.92 182.23 121.81 182.23Z" fill="#231F20"/><path d="M128.05 178.19C128.17 179.03 128.49 179.68 129.02 180.12 129.55 180.56 130.3 180.78 131.27 180.78 132.24 180.78 132.95 180.58 133.43 180.19 133.9 179.79 134.13 179.33 134.13 178.8 134.13 178.32 133.92 177.95 133.51 177.68 133.22 177.5 132.5 177.26 131.35 176.97 129.81 176.59 128.74 176.25 128.13 175.96 127.54 175.67 127.08 175.28 126.77 174.78 126.47 174.28 126.31 173.72 126.31 173.1 126.31 172.54 126.43 172.02 126.69 171.55 126.95 171.08 127.29 170.69 127.73 170.38 127.89 170.26 128.09 170.15 128.32 170.05 128.55 169.95 128.8 169.85 129.07 169.77 129.34 169.69 129.63 169.63 129.94 169.58 130.25 169.53 130.57 169.51 130.9 169.51 131.88 169.51 132.74 169.65 133.48 169.93 134.22 170.21 134.76 170.59 135.11 171.08 135.47 171.57 135.71 172.21 135.84 173L133.78 173.28C133.69 172.64 133.42 172.14 132.97 171.78 132.52 171.42 131.89 171.24 131.06 171.24 130.09 171.24 129.4 171.4 128.99 171.72 128.58 172.04 128.37 172.42 128.37 172.84 128.37 173.11 128.46 173.36 128.63 173.58 128.8 173.81 129.07 173.99 129.44 174.14 129.55 174.18 129.76 174.24 130.07 174.33 130.38 174.42 130.79 174.54 131.31 174.68 132.81 175.08 133.85 175.41 134.43 175.66 135.01 175.9 135.47 176.27 135.82 176.76 136.16 177.24 136.32 177.84 136.32 178.56 136.32 179.28 136.11 179.93 135.7 180.55 135.29 181.17 134.7 181.66 133.93 181.99 133.16 182.32 132.29 182.49 131.31 182.49 129.69 182.49 128.46 182.15 127.61 181.48 126.76 180.81 126.22 179.81 125.99 178.49L128.08 178.16Z" fill="#231F20"/><path d="M138.35 182.23 138.35 165.05 140.46 165.05 140.46 171.21C141.44 170.07 142.69 169.5 144.19 169.5 145.11 169.5 145.91 169.68 146.59 170.04 147.27 170.4 147.75 170.91 148.04 171.55 148.34 172.21 148.49 173.14 148.49 174.34L148.49 182.23 146.38 182.23 146.38 174.34C146.38 173.29 146.15 172.52 145.69 172.04 145.23 171.56 144.59 171.32 143.75 171.32 143.12 171.32 142.53 171.48 141.98 171.81 141.44 172.12 141.05 172.56 140.81 173.12 140.58 173.67 140.46 174.44 140.46 175.42L140.46 182.23 138.35 182.23Z" fill="#231F20"/><path d="M52.64 230.23 52.64 213.05 64.23 213.05 64.23 215.08 54.91 215.08 54.91 220.4 62.97 220.4 62.97 222.43 54.91 222.43 54.91 230.23 52.64 230.23Z" fill="#231F20"/><path d="M66.59 230.23 66.59 217.78 68.49 217.78 68.49 219.67C68.97 218.79 69.42 218.21 69.83 217.92 70.24 217.63 70.69 217.5 71.19 217.5 71.9 217.5 72.62 217.73 73.36 218.18L72.63 220.14C72.11 219.84 71.6 219.68 71.08 219.68 70.61 219.68 70.2 219.82 69.83 220.1 69.46 220.38 69.21 220.76 69.05 221.25 68.82 222 68.7 222.82 68.7 223.71L68.7 230.23 66.59 230.23Z" fill="#231F20"/><path d="M86.61 226.5C86.26 227.78 85.62 228.77 84.7 229.47 83.78 230.17 82.59 230.52 81.14 230.52 79.32 230.52 77.87 229.96 76.8 228.84 75.74 227.72 75.21 226.15 75.21 224.12 75.21 222.09 75.75 220.41 76.83 219.24 77.91 218.08 79.31 217.51 81.03 217.51 82.75 217.51 84.05 218.08 85.11 219.21 86.16 220.35 86.69 221.94 86.69 223.99L86.69 224.22C86.69 224.31 86.69 224.42 86.68 224.55L77.4 224.55C77.48 225.92 77.86 226.96 78.56 227.69 79.25 228.42 80.11 228.78 81.16 228.78 81.93 228.78 82.59 228.58 83.14 228.17 83.69 227.76 84.12 227.12 84.44 226.22L86.62 226.49ZM84.45 222.82C84.36 221.78 84.09 221 83.65 220.46 82.98 219.65 82.11 219.24 81.04 219.24 80.08 219.24 79.26 219.56 78.59 220.21 77.93 220.86 77.57 221.73 77.5 222.81L84.45 222.81Z" fill="#231F20"/><path d="M90.43 226.19C90.55 227.03 90.87 227.68 91.4 228.12 91.93 228.56 92.68 228.78 93.65 228.78 94.62 228.78 95.33 228.58 95.81 228.19 96.28 227.79 96.51 227.33 96.51 226.8 96.51 226.32 96.3 225.95 95.89 225.68 95.6 225.5 94.88 225.26 93.73 224.97 92.19 224.59 91.12 224.25 90.51 223.96 89.92 223.67 89.46 223.28 89.15 222.78 88.85 222.28 88.69 221.72 88.69 221.1 88.69 220.54 88.81 220.02 89.07 219.55 89.33 219.08 89.67 218.69 90.11 218.38 90.27 218.26 90.47 218.15 90.7 218.05 90.93 217.95 91.18 217.85 91.45 217.77 91.72 217.69 92.01 217.63 92.32 217.58 92.63 217.53 92.95 217.51 93.28 217.51 94.26 217.51 95.12 217.65 95.86 217.93 96.6 218.21 97.14 218.59 97.49 219.08 97.85 219.57 98.09 220.21 98.22 221L96.16 221.28C96.07 220.64 95.8 220.14 95.35 219.78 94.9 219.42 94.27 219.24 93.44 219.24 92.47 219.24 91.78 219.4 91.37 219.72 90.96 220.04 90.75 220.42 90.75 220.84 90.75 221.11 90.84 221.36 91.01 221.58 91.18 221.81 91.45 221.99 91.82 222.14 91.93 222.18 92.14 222.24 92.45 222.33 92.76 222.42 93.17 222.54 93.69 222.68 95.19 223.08 96.23 223.41 96.81 223.66 97.39 223.9 97.85 224.27 98.2 224.76 98.54 225.24 98.7 225.84 98.7 226.56 98.7 227.28 98.49 227.93 98.08 228.55 97.67 229.17 97.08 229.66 96.31 229.99 95.54 230.32 94.67 230.49 93.69 230.49 92.07 230.49 90.84 230.15 89.99 229.48 89.14 228.81 88.6 227.81 88.37 226.49L90.46 226.16Z" fill="#231F20"/><path d="M100.73 230.23 100.73 213.05 102.84 213.05 102.84 219.21C103.82 218.07 105.07 217.5 106.57 217.5 107.49 217.5 108.29 217.68 108.97 218.04 109.65 218.4 110.13 218.91 110.42 219.55 110.72 220.21 110.87 221.14 110.87 222.34L110.87 230.23 108.76 230.23 108.76 222.34C108.76 221.29 108.53 220.52 108.07 220.04 107.61 219.56 106.97 219.32 106.13 219.32 105.5 219.32 104.91 219.48 104.36 219.81 103.82 220.12 103.43 220.56 103.19 221.12 102.96 221.67 102.84 222.44 102.84 223.42L102.84 230.23 100.73 230.23Z" fill="#231F20"/><path d="M122.54 230.23 122.54 217.78 124.43 217.78 124.43 219.53C124.83 218.92 125.35 218.43 125.99 218.06 126.63 217.69 127.37 217.5 128.2 217.5 129.12 217.5 129.88 217.69 130.47 218.07 131.06 218.45 131.48 218.99 131.72 219.68 132.7 218.23 133.99 217.5 135.56 217.5 136.8 217.5 137.75 217.84 138.41 218.52 139.07 219.2 139.4 220.25 139.4 221.68L139.4 230.22 137.3 230.22 137.3 222.38C137.3 221.54 137.23 220.93 137.09 220.56 136.96 220.18 136.71 219.88 136.35 219.66 135.98 219.43 135.56 219.32 135.08 219.32 134.2 219.32 133.47 219.61 132.9 220.2 132.32 220.78 132.03 221.71 132.03 222.99L132.03 230.22 129.92 230.22 129.92 222.13C129.92 221.18 129.75 220.48 129.4 220.01 129.05 219.54 128.49 219.31 127.71 219.31 127.11 219.31 126.56 219.47 126.06 219.78 125.55 220.1 125.19 220.56 124.97 221.15 124.74 221.76 124.63 222.63 124.63 223.75L124.63 230.21 122.52 230.21Z" fill="#231F20"/><path d="M141.98 215.48 141.98 213.05 144.09 213.05 144.09 215.48 141.98 215.48ZM141.98 230.23 141.98 217.78 144.09 217.78 144.09 230.23 141.98 230.23Z" fill="#231F20"/><path d="M146.97 230.23 146.97 217.78 148.87 217.78 148.87 219.55C149.78 218.18 151.1 217.5 152.83 217.5 153.57 217.5 154.26 217.64 154.89 217.91 155.51 218.18 155.99 218.53 156.31 218.96 156.47 219.18 156.6 219.42 156.71 219.68 156.82 219.94 156.91 220.22 156.97 220.52 157.01 220.72 157.04 220.98 157.06 221.32 157.08 221.66 157.09 222.08 157.09 222.57L157.09 230.22 154.98 230.22 154.98 222.65C154.98 221.79 154.9 221.15 154.73 220.73 154.57 220.3 154.27 219.96 153.85 219.71 153.44 219.45 152.95 219.32 152.39 219.32 151.48 219.32 150.71 219.61 150.06 220.18 149.41 220.76 149.09 221.84 149.09 223.43L149.09 230.23 146.98 230.23Z" fill="#231F20"/><path d="M164.44 230.21C163.86 230.33 163.33 230.4 162.85 230.4 162.08 230.4 161.49 230.28 161.07 230.04 160.65 229.8 160.35 229.48 160.18 229.09 160.01 228.7 159.92 227.87 159.92 226.59L159.92 219.43 158.37 219.43 158.37 217.79 159.92 217.79 159.92 214.71 162.02 213.44 162.02 217.79 164.14 217.79 164.14 219.43 162.02 219.43 162.02 226.71C162.02 227.31 162.06 227.7 162.13 227.87 162.21 228.04 162.33 228.18 162.49 228.28 162.66 228.38 162.9 228.43 163.22 228.43 163.34 228.43 163.47 228.43 163.62 228.41 163.77 228.39 163.95 228.38 164.14 228.35L164.44 230.21Z" fill="#231F20"/><path d="M60.56 271.5 60.56 269.48 67.84 269.48C67.84 269.48 67.84 275.84 67.84 275.84 65.59 277.63 63.22 278.52 60.73 278.52 59.05 278.52 57.52 278.16 56.12 277.44 54.74 276.71 53.7 275.66 53 274.3 52.3 272.93 51.95 271.41 51.95 269.72 51.95 268.03 52.3 266.5 52.99 265.04 53.69 263.59 54.7 262.51 56.01 261.81 57.32 261.11 58.83 260.76 60.55 260.76 61.81 260.76 62.93 260.96 63.91 261.37 64.91 261.76 65.7 262.32 66.28 263.05 66.85 263.77 67.28 264.71 67.58 265.86L65.53 266.42C65.27 265.54 64.95 264.86 64.57 264.36 64.18 263.85 63.63 263.45 62.93 263.16 62.21 262.86 61.42 262.7 60.56 262.7 59.76 262.7 59.06 262.79 58.45 262.98 57.84 263.17 57.31 263.41 56.85 263.73 56.39 264.05 56.01 264.41 55.7 264.83 55.39 265.25 55.14 265.68 54.95 266.13 54.51 267.21 54.29 268.36 54.29 269.59 54.29 271.13 54.55 272.41 55.08 273.44 55.61 274.47 56.37 275.23 57.39 275.73 58.39 276.23 59.46 276.48 60.6 276.48 61.58 276.48 62.55 276.29 63.48 275.92 63.95 275.72 64.36 275.53 64.72 275.33 65.08 275.13 65.37 274.92 65.62 274.7L65.62 271.5 60.57 271.5Z" fill="#231F20"/><path d="M78.9 276.7C78.11 277.37 77.36 277.84 76.64 278.11 75.91 278.38 75.14 278.52 74.32 278.52 72.95 278.52 71.9 278.19 71.17 277.52 70.44 276.85 70.07 276 70.07 274.95 70.07 274.48 70.15 274.05 70.31 273.66 70.47 273.27 70.69 272.92 70.96 272.62 71.23 272.32 71.55 272.06 71.92 271.85 72.29 271.64 72.68 271.48 73.09 271.38 73.5 271.28 74.12 271.17 74.97 271.06 76.65 270.86 77.9 270.62 78.73 270.33 78.73 270.18 78.74 270.06 78.74 269.97L78.74 269.78C78.74 268.92 78.54 268.32 78.14 267.96 77.61 267.48 76.81 267.25 75.74 267.25 74.75 267.25 74.01 267.43 73.54 267.78 73.07 268.12 72.72 268.74 72.5 269.62L70.44 269.34C70.63 268.46 70.94 267.74 71.37 267.2 71.8 266.66 72.42 266.24 73.23 265.95 74.05 265.65 74.99 265.5 76.05 265.5 77.11 265.5 77.98 265.62 78.64 265.88 79.3 266.14 79.79 266.45 80.1 266.83 80.4 267.19 80.62 267.67 80.76 268.26 80.83 268.63 80.87 269.28 80.87 270.21L80.87 273.02C80.87 274 80.88 274.81 80.91 275.42 80.94 276.03 80.96 276.48 81 276.74 81.09 277.26 81.27 277.76 81.54 278.23L79.34 278.23C79.12 277.8 78.98 277.29 78.92 276.69ZM78.72 271.99C78.34 272.15 77.86 272.29 77.29 272.42 76.72 272.55 76.05 272.67 75.27 272.78 74.41 272.9 73.8 273.05 73.43 273.2 73.08 273.35 72.8 273.58 72.6 273.89 72.4 274.18 72.31 274.51 72.31 274.89 72.31 275.17 72.36 275.43 72.47 275.68 72.58 275.93 72.73 276.13 72.94 276.31 73.15 276.49 73.41 276.62 73.73 276.72 74.05 276.82 74.41 276.87 74.82 276.87 75.23 276.87 75.61 276.82 75.98 276.73 76.35 276.64 76.68 276.5 76.99 276.33 77.3 276.16 77.57 275.95 77.8 275.7 78.03 275.45 78.23 275.18 78.38 274.87 78.61 274.38 78.72 273.67 78.72 272.76L78.72 271.99Z" fill="#231F20"/><path d="M83.83 278.23 83.83 265.78 85.73 265.78 85.73 267.67C86.21 266.79 86.66 266.21 87.07 265.92 87.48 265.63 87.93 265.5 88.43 265.5 89.14 265.5 89.86 265.73 90.6 266.18L89.87 268.14C89.35 267.84 88.84 267.68 88.32 267.68 87.85 267.68 87.44 267.82 87.07 268.1 86.7 268.38 86.45 268.76 86.29 269.25 86.06 270 85.94 270.82 85.94 271.71L85.94 278.23 83.83 278.23Z" fill="#231F20"/><path d="M93.1 278.23 93.1 261.05 95.21 261.05 95.21 278.23 93.1 278.23Z" fill="#231F20"/><path d="M98.29 263.48 98.29 261.05 100.4 261.05 100.4 263.48 98.29 263.48ZM98.29 278.23 98.29 265.78 100.4 265.78 100.4 278.23 98.29 278.23Z" fill="#231F20"/><path d="M113.48 273.95C113.25 275.38 112.67 276.5 111.73 277.31 110.81 278.11 109.66 278.52 108.3 278.52 106.6 278.52 105.23 277.97 104.19 276.86 103.16 275.75 102.64 274.15 102.64 272.07 102.64 270.73 102.86 269.55 103.31 268.54 103.76 267.53 104.43 266.78 105.34 266.28 106.26 265.77 107.25 265.52 108.32 265.52 109.68 265.52 110.79 265.86 111.64 266.54 112.49 267.22 113.04 268.19 113.29 269.46L111.24 269.78C111.04 268.94 110.7 268.31 110.21 267.89 109.72 267.47 109.12 267.26 108.41 267.26 107.36 267.26 106.49 267.64 105.82 268.41 105.16 269.17 104.82 270.37 104.82 272.02 104.82 273.67 105.14 274.91 105.78 275.66 106.42 276.41 107.26 276.8 108.29 276.8 109.12 276.8 109.81 276.55 110.36 276.04 110.91 275.53 111.27 274.75 111.41 273.7L113.48 273.97Z" fill="#231F20"/><path d="M56.89 326.23 56.89 311.08 51.23 311.08 51.23 309.05 64.85 309.05 64.85 311.08 59.17 311.08 59.17 326.23 56.9 326.23Z" fill="#231F20"/><path d="M75.35 326.23 75.35 324.4C74.37 325.81 73.06 326.51 71.4 326.51 70.67 326.51 69.98 326.37 69.34 326.09 68.72 325.81 68.24 325.46 67.92 325.04 67.62 324.61 67.4 324.09 67.28 323.47 67.19 323.04 67.15 322.38 67.15 321.5L67.15 313.79 69.26 313.79 69.26 320.69C69.26 321.24 69.27 321.71 69.3 322.07 69.33 322.43 69.35 322.72 69.39 322.91 69.52 323.47 69.8 323.91 70.23 324.22 70.66 324.53 71.19 324.69 71.82 324.69 72.45 324.69 73.05 324.53 73.6 324.21 74.16 323.87 74.55 323.43 74.77 322.89 75 322.33 75.12 321.51 75.12 320.45L75.12 313.78 77.23 313.78 77.23 326.23 75.34 326.23Z" fill="#231F20"/><path d="M79.67 326.23 79.67 313.78 81.57 313.78 81.57 315.67C82.05 314.79 82.5 314.21 82.91 313.92 83.32 313.63 83.77 313.5 84.27 313.5 84.98 313.5 85.7 313.73 86.44 314.18L85.71 316.14C85.19 315.84 84.68 315.68 84.16 315.68 83.69 315.68 83.28 315.82 82.91 316.1 82.54 316.38 82.29 316.76 82.13 317.25 81.9 318 81.78 318.82 81.78 319.71L81.78 326.23 79.67 326.23Z" fill="#231F20"/><path d="M88.99 326.23 88.99 313.78 90.88 313.78 90.88 315.53C91.28 314.92 91.8 314.43 92.44 314.06 93.08 313.69 93.82 313.5 94.65 313.5 95.57 313.5 96.33 313.69 96.92 314.07 97.51 314.45 97.93 314.99 98.17 315.68 99.15 314.23 100.44 313.5 102.01 313.5 103.25 313.5 104.2 313.84 104.86 314.52 105.52 315.2 105.85 316.25 105.85 317.68L105.85 326.22 103.75 326.22 103.75 318.38C103.75 317.54 103.68 316.93 103.54 316.56 103.41 316.18 103.16 315.88 102.8 315.66 102.43 315.43 102.01 315.32 101.53 315.32 100.65 315.32 99.92 315.61 99.35 316.2 98.77 316.78 98.48 317.71 98.48 318.99L98.48 326.22 96.37 326.22 96.37 318.13C96.37 317.18 96.2 316.48 95.85 316.01 95.5 315.54 94.94 315.31 94.16 315.31 93.56 315.31 93.01 315.47 92.51 315.78 92 316.1 91.64 316.56 91.42 317.15 91.19 317.76 91.08 318.63 91.08 319.75L91.08 326.21 88.97 326.21Z" fill="#231F20"/><path d="M119.12 322.5C118.77 323.78 118.13 324.77 117.21 325.47 116.29 326.17 115.1 326.52 113.65 326.52 111.83 326.52 110.38 325.96 109.31 324.84 108.25 323.72 107.72 322.15 107.72 320.12 107.72 318.09 108.26 316.41 109.34 315.24 110.42 314.08 111.82 313.51 113.54 313.51 115.26 313.51 116.56 314.08 117.62 315.21 118.67 316.35 119.2 317.94 119.2 319.99L119.2 320.22C119.2 320.31 119.2 320.42 119.19 320.55L109.91 320.55C109.99 321.92 110.37 322.96 111.07 323.69 111.76 324.42 112.62 324.78 113.67 324.78 114.44 324.78 115.1 324.58 115.65 324.17 116.2 323.76 116.63 323.12 116.95 322.22L119.13 322.49ZM116.96 318.82C116.87 317.78 116.6 317 116.16 316.46 115.49 315.65 114.62 315.24 113.55 315.24 112.59 315.24 111.77 315.56 111.1 316.21 110.44 316.86 110.08 317.73 110.01 318.81L116.96 318.81Z" fill="#231F20"/><path d="M121.67 326.23 121.67 313.78 123.57 313.78 123.57 315.67C124.05 314.79 124.5 314.21 124.91 313.92 125.32 313.63 125.77 313.5 126.27 313.5 126.98 313.5 127.7 313.73 128.44 314.18L127.71 316.14C127.19 315.84 126.68 315.68 126.16 315.68 125.69 315.68 125.28 315.82 124.91 316.1 124.54 316.38 124.29 316.76 124.13 317.25 123.9 318 123.78 318.82 123.78 319.71L123.78 326.23 121.67 326.23Z" fill="#231F20"/><path d="M131 311.48 131 309.05 133.11 309.05 133.11 311.48 131 311.48ZM131 326.23 131 313.78 133.11 313.78 133.11 326.23 131 326.23Z" fill="#231F20"/><path d="M146.19 321.95C145.96 323.38 145.38 324.5 144.44 325.31 143.52 326.11 142.37 326.52 141.01 326.52 139.31 326.52 137.94 325.97 136.9 324.86 135.87 323.75 135.35 322.15 135.35 320.07 135.35 318.73 135.57 317.55 136.02 316.54 136.47 315.53 137.14 314.78 138.05 314.28 138.97 313.77 139.96 313.52 141.03 313.52 142.39 313.52 143.5 313.86 144.35 314.54 145.2 315.22 145.75 316.19 146 317.46L143.95 317.78C143.75 316.94 143.41 316.31 142.92 315.89 142.43 315.47 141.83 315.26 141.12 315.26 140.07 315.26 139.2 315.64 138.53 316.41 137.87 317.17 137.53 318.37 137.53 320.02 137.53 321.67 137.85 322.91 138.49 323.66 139.13 324.41 139.97 324.8 141 324.8 141.83 324.8 142.52 324.55 143.07 324.04 143.62 323.53 143.98 322.75 144.12 321.7L146.19 321.97Z" fill="#231F20"/><path d="M158.58 322.19C158.7 323.03 159.02 323.68 159.55 324.12 160.08 324.56 160.83 324.78 161.8 324.78 162.77 324.78 163.48 324.58 163.96 324.19 164.43 323.79 164.66 323.33 164.66 322.8 164.66 322.32 164.45 321.95 164.04 321.68 163.75 321.5 163.03 321.26 161.88 320.97 160.34 320.59 159.27 320.25 158.66 319.96 158.07 319.67 157.61 319.28 157.3 318.78 157 318.28 156.84 317.72 156.84 317.1 156.84 316.54 156.96 316.02 157.22 315.55 157.48 315.08 157.82 314.69 158.26 314.38 158.42 314.26 158.62 314.15 158.85 314.05 159.08 313.95 159.33 313.85 159.6 313.77 159.87 313.69 160.16 313.63 160.47 313.58 160.78 313.53 161.1 313.51 161.43 313.51 162.41 313.51 163.27 313.65 164.01 313.93 164.75 314.21 165.29 314.59 165.64 315.08 166 315.57 166.24 316.21 166.37 317L164.31 317.28C164.22 316.64 163.95 316.14 163.5 315.78 163.05 315.42 162.42 315.24 161.59 315.24 160.62 315.24 159.93 315.4 159.52 315.72 159.11 316.04 158.9 316.42 158.9 316.84 158.9 317.11 158.99 317.36 159.16 317.58 159.33 317.81 159.6 317.99 159.97 318.14 160.08 318.18 160.29 318.24 160.6 318.33 160.91 318.42 161.32 318.54 161.84 318.68 163.34 319.08 164.38 319.41 164.96 319.66 165.54 319.9 166 320.27 166.35 320.76 166.69 321.24 166.85 321.84 166.85 322.56 166.85 323.28 166.64 323.93 166.23 324.55 165.82 325.17 165.23 325.66 164.46 325.99 163.69 326.32 162.82 326.49 161.84 326.49 160.22 326.49 158.99 326.15 158.14 325.48 157.29 324.81 156.75 323.81 156.52 322.49L158.61 322.16Z" fill="#231F20"/><path d="M177.01 324.7C176.22 325.37 175.47 325.84 174.75 326.11 174.02 326.38 173.25 326.52 172.43 326.52 171.06 326.52 170.01 326.19 169.28 325.52 168.55 324.85 168.18 324 168.18 322.95 168.18 322.48 168.26 322.05 168.42 321.66 168.58 321.27 168.8 320.92 169.07 320.62 169.34 320.32 169.66 320.06 170.03 319.85 170.4 319.64 170.79 319.48 171.2 319.38 171.61 319.28 172.23 319.17 173.08 319.06 174.76 318.86 176.01 318.62 176.84 318.33 176.84 318.18 176.85 318.06 176.85 317.97L176.85 317.78C176.85 316.92 176.65 316.32 176.25 315.96 175.72 315.48 174.92 315.25 173.85 315.25 172.86 315.25 172.12 315.43 171.65 315.78 171.18 316.12 170.83 316.74 170.61 317.62L168.55 317.34C168.74 316.46 169.05 315.74 169.48 315.2 169.91 314.66 170.53 314.24 171.34 313.95 172.16 313.65 173.1 313.5 174.16 313.5 175.22 313.5 176.09 313.62 176.75 313.88 177.41 314.14 177.9 314.45 178.21 314.83 178.51 315.19 178.73 315.67 178.87 316.26 178.94 316.63 178.98 317.28 178.98 318.21L178.98 321.02C178.98 322 178.99 322.81 179.02 323.42 179.05 324.03 179.07 324.48 179.11 324.74 179.2 325.26 179.38 325.76 179.65 326.23L177.45 326.23C177.23 325.8 177.09 325.29 177.03 324.69ZM176.83 319.99C176.45 320.15 175.97 320.29 175.4 320.42 174.83 320.55 174.16 320.67 173.38 320.78 172.52 320.9 171.91 321.05 171.54 321.2 171.19 321.35 170.91 321.58 170.71 321.89 170.51 322.18 170.42 322.51 170.42 322.89 170.42 323.17 170.47 323.43 170.58 323.68 170.69 323.93 170.84 324.13 171.05 324.31 171.26 324.49 171.52 324.62 171.84 324.72 172.16 324.82 172.52 324.87 172.93 324.87 173.34 324.87 173.72 324.82 174.09 324.73 174.46 324.64 174.79 324.5 175.1 324.33 175.41 324.16 175.68 323.95 175.91 323.7 176.14 323.45 176.34 323.18 176.49 322.87 176.72 322.38 176.83 321.67 176.83 320.76L176.83 319.99Z" fill="#231F20"/><path d="M190.12 326.23 190.12 324.4C189.14 325.81 187.83 326.51 186.17 326.51 185.44 326.51 184.75 326.37 184.11 326.09 183.49 325.81 183.01 325.46 182.69 325.04 182.39 324.61 182.17 324.09 182.05 323.47 181.96 323.04 181.92 322.38 181.92 321.5L181.92 313.79 184.03 313.79 184.03 320.69C184.03 321.24 184.04 321.71 184.07 322.07 184.1 322.43 184.12 322.72 184.16 322.91 184.29 323.47 184.57 323.91 185 324.22 185.43 324.53 185.96 324.69 186.59 324.69 187.22 324.69 187.82 324.53 188.37 324.21 188.93 323.87 189.32 323.43 189.54 322.89 189.77 322.33 189.89 321.51 189.89 320.45L189.89 313.78 192 313.78 192 326.23 190.11 326.23Z" fill="#231F20"/><path d="M204.66 321.95C204.43 323.38 203.85 324.5 202.91 325.31 201.99 326.11 200.84 326.52 199.48 326.52 197.78 326.52 196.41 325.97 195.37 324.86 194.34 323.75 193.82 322.15 193.82 320.07 193.82 318.73 194.04 317.55 194.49 316.54 194.94 315.53 195.61 314.78 196.52 314.28 197.44 313.77 198.43 313.52 199.5 313.52 200.86 313.52 201.97 313.86 202.82 314.54 203.67 315.22 204.22 316.19 204.47 317.46L202.42 317.78C202.22 316.94 201.88 316.31 201.39 315.89 200.9 315.47 200.3 315.26 199.59 315.26 198.54 315.26 197.67 315.64 197 316.41 196.34 317.17 196 318.37 196 320.02 196 321.67 196.32 322.91 196.96 323.66 197.6 324.41 198.44 324.8 199.47 324.8 200.3 324.8 200.99 324.55 201.54 324.04 202.09 323.53 202.45 322.75 202.59 321.7L204.66 321.97Z" fill="#231F20"/><path d="M217.48 322.5C217.13 323.78 216.49 324.77 215.57 325.47 214.65 326.17 213.46 326.52 212.01 326.52 210.19 326.52 208.74 325.96 207.67 324.84 206.61 323.72 206.08 322.15 206.08 320.12 206.08 318.09 206.62 316.41 207.7 315.24 208.78 314.08 210.18 313.51 211.9 313.51 213.62 313.51 214.92 314.08 215.98 315.21 217.03 316.35 217.56 317.94 217.56 319.99L217.56 320.22C217.56 320.31 217.56 320.42 217.55 320.55L208.27 320.55C208.35 321.92 208.73 322.96 209.43 323.69 210.12 324.42 210.98 324.78 212.03 324.78 212.8 324.78 213.46 324.58 214.01 324.17 214.56 323.76 214.99 323.12 215.31 322.22L217.49 322.49ZM215.32 318.82C215.23 317.78 214.96 317 214.52 316.46 213.85 315.65 212.98 315.24 211.91 315.24 210.95 315.24 210.13 315.56 209.46 316.21 208.8 316.86 208.44 317.73 208.37 318.81L215.32 318.81Z" fill="#231F20"/><path d="M52.91 374.23 52.91 357.05 55.18 357.05 55.18 374.23 52.91 374.23Z" fill="#231F20"/><path d="M58.27 374.23 58.27 361.78 60.17 361.78 60.17 363.55C61.08 362.18 62.4 361.5 64.13 361.5 64.87 361.5 65.56 361.64 66.19 361.91 66.81 362.18 67.29 362.53 67.61 362.96 67.77 363.18 67.9 363.42 68.01 363.68 68.12 363.94 68.21 364.22 68.27 364.52 68.31 364.72 68.34 364.98 68.36 365.32 68.38 365.66 68.39 366.08 68.39 366.57L68.39 374.22 66.28 374.22 66.28 366.65C66.28 365.79 66.2 365.15 66.03 364.73 65.87 364.3 65.57 363.96 65.15 363.71 64.74 363.45 64.25 363.32 63.69 363.32 62.78 363.32 62.01 363.61 61.36 364.18 60.71 364.76 60.39 365.84 60.39 367.43L60.39 374.23 58.28 374.23Z" fill="#231F20"/><path d="M78.91 374.23 78.91 372.66C78.12 373.89 76.96 374.51 75.43 374.51 74.43 374.51 73.52 374.24 72.69 373.69 71.85 373.14 71.21 372.38 70.76 371.4 70.31 370.42 70.08 369.29 70.08 368.01 70.08 366.73 70.29 365.65 70.7 364.63 71.11 363.61 71.73 362.84 72.56 362.3 73.39 361.76 74.31 361.49 75.34 361.49 76.1 361.49 76.77 361.65 77.34 361.96 77.91 362.27 78.39 362.69 78.77 363.2L78.77 357.04 80.87 357.04 80.87 374.22 78.91 374.22ZM72.24 368.02C72.24 369.61 72.58 370.81 73.25 371.59 73.92 372.37 74.71 372.77 75.63 372.77 76.55 372.77 77.33 372.39 77.97 371.65 78.62 370.88 78.94 369.73 78.94 368.19 78.94 366.49 78.61 365.24 77.96 364.44 77.31 363.64 76.5 363.24 75.53 363.24 74.56 363.24 73.81 363.62 73.17 364.39 72.55 365.16 72.23 366.36 72.23 368.01Z" fill="#231F20"/><path d="M83.41 359.48 83.41 357.05 85.52 357.05 85.52 359.48 83.41 359.48ZM83.41 374.23 83.41 361.78 85.52 361.78 85.52 374.23 83.41 374.23Z" fill="#231F20"/><path d="M96.52 372.7C95.73 373.37 94.98 373.84 94.26 374.11 93.53 374.38 92.76 374.52 91.94 374.52 90.57 374.52 89.52 374.19 88.79 373.52 88.06 372.85 87.69 372 87.69 370.95 87.69 370.48 87.77 370.05 87.93 369.66 88.09 369.27 88.31 368.92 88.58 368.62 88.85 368.32 89.17 368.06 89.54 367.85 89.91 367.64 90.3 367.48 90.71 367.38 91.12 367.28 91.74 367.17 92.59 367.06 94.27 366.86 95.52 366.62 96.35 366.33 96.35 366.18 96.36 366.06 96.36 365.97L96.36 365.78C96.36 364.92 96.16 364.32 95.76 363.96 95.23 363.48 94.43 363.25 93.36 363.25 92.37 363.25 91.63 363.43 91.16 363.78 90.69 364.12 90.34 364.74 90.12 365.62L88.06 365.34C88.25 364.46 88.56 363.74 88.99 363.2 89.42 362.66 90.04 362.24 90.85 361.95 91.67 361.65 92.61 361.5 93.67 361.5 94.73 361.5 95.6 361.62 96.26 361.88 96.92 362.14 97.41 362.45 97.72 362.83 98.02 363.19 98.24 363.67 98.38 364.26 98.45 364.63 98.49 365.28 98.49 366.21L98.49 369.02C98.49 370 98.5 370.81 98.53 371.42 98.56 372.03 98.58 372.48 98.62 372.74 98.71 373.26 98.89 373.76 99.16 374.23L96.96 374.23C96.74 373.8 96.6 373.29 96.54 372.69ZM96.34 367.99C95.96 368.15 95.48 368.29 94.91 368.42 94.34 368.55 93.67 368.67 92.89 368.78 92.03 368.9 91.42 369.05 91.05 369.2 90.7 369.35 90.42 369.58 90.22 369.89 90.02 370.18 89.93 370.51 89.93 370.89 89.93 371.17 89.98 371.43 90.09 371.68 90.2 371.93 90.35 372.13 90.56 372.31 90.77 372.49 91.03 372.62 91.35 372.72 91.67 372.82 92.03 372.87 92.44 372.87 92.85 372.87 93.23 372.82 93.6 372.73 93.97 372.64 94.3 372.5 94.61 372.33 94.92 372.16 95.19 371.95 95.42 371.7 95.65 371.45 95.85 371.18 96 370.87 96.23 370.38 96.34 369.67 96.34 368.76L96.34 367.99Z" fill="#231F20"/><path d="M101.48 374.23 101.48 361.78 103.38 361.78 103.38 363.55C104.29 362.18 105.61 361.5 107.34 361.5 108.08 361.5 108.77 361.64 109.4 361.91 110.02 362.18 110.5 362.53 110.82 362.96 110.98 363.18 111.11 363.42 111.22 363.68 111.33 363.94 111.42 364.22 111.48 364.52 111.52 364.72 111.55 364.98 111.57 365.32 111.59 365.66 111.6 366.08 111.6 366.57L111.6 374.22 109.49 374.22 109.49 366.65C109.49 365.79 109.41 365.15 109.24 364.73 109.08 364.3 108.78 363.96 108.36 363.71 107.95 363.45 107.46 363.32 106.9 363.32 105.99 363.32 105.22 363.61 104.57 364.18 103.92 364.76 103.6 365.84 103.6 367.43L103.6 374.23 101.49 374.23Z" fill="#231F20"/><path d="M123.05 374.23 123.05 361.78 124.95 361.78 124.95 363.67C125.43 362.79 125.88 362.21 126.29 361.92 126.7 361.63 127.15 361.5 127.65 361.5 128.36 361.5 129.08 361.73 129.82 362.18L129.09 364.14C128.57 363.84 128.06 363.68 127.54 363.68 127.07 363.68 126.66 363.82 126.29 364.1 125.92 364.38 125.67 364.76 125.51 365.25 125.28 366 125.16 366.82 125.16 367.71L125.16 374.23 123.05 374.23Z" fill="#231F20"/><path d="M132.38 359.48 132.38 357.05 134.49 357.05 134.49 359.48 132.38 359.48ZM132.38 374.23 132.38 361.78 134.49 361.78 134.49 374.23 132.38 374.23Z" fill="#231F20"/><path d="M147.57 369.95C147.34 371.38 146.76 372.5 145.82 373.31 144.9 374.11 143.75 374.52 142.39 374.52 140.69 374.52 139.32 373.97 138.28 372.86 137.25 371.75 136.73 370.15 136.73 368.07 136.73 366.73 136.95 365.55 137.4 364.54 137.85 363.53 138.52 362.78 139.43 362.28 140.35 361.77 141.34 361.52 142.41 361.52 143.77 361.52 144.88 361.86 145.73 362.54 146.58 363.22 147.13 364.19 147.38 365.46L145.33 365.78C145.13 364.94 144.79 364.31 144.3 363.89 143.81 363.47 143.21 363.26 142.5 363.26 141.45 363.26 140.58 363.64 139.91 364.41 139.25 365.17 138.91 366.37 138.91 368.02 138.91 369.67 139.23 370.91 139.87 371.66 140.51 372.41 141.35 372.8 142.38 372.8 143.21 372.8 143.9 372.55 144.45 372.04 145 371.53 145.36 370.75 145.5 369.7L147.57 369.97Z" fill="#231F20"/><path d="M160.39 370.5C160.04 371.78 159.4 372.77 158.48 373.47 157.56 374.17 156.37 374.52 154.92 374.52 153.1 374.52 151.65 373.96 150.58 372.84 149.52 371.72 148.99 370.15 148.99 368.12 148.99 366.09 149.53 364.41 150.61 363.24 151.69 362.08 153.09 361.51 154.81 361.51 156.53 361.51 157.83 362.08 158.89 363.21 159.94 364.35 160.47 365.94 160.47 367.99L160.47 368.22C160.47 368.31 160.47 368.42 160.46 368.55L151.18 368.55C151.26 369.92 151.64 370.96 152.34 371.69 153.03 372.42 153.89 372.78 154.94 372.78 155.71 372.78 156.37 372.58 156.92 372.17 157.47 371.76 157.9 371.12 158.22 370.22L160.4 370.49ZM158.23 366.82C158.14 365.78 157.87 365 157.43 364.46 156.76 363.65 155.89 363.24 154.82 363.24 153.86 363.24 153.04 363.56 152.37 364.21 151.71 364.86 151.35 365.73 151.28 366.81L158.23 366.81Z" fill="#231F20"/></g><g><path d="M172.95 426.73C173.42 424.18 173.63 422.66 173.74 421.69 173.85 420.61 174.71 419.6 176.26 419.64L176.84 419.64C177.74 419.64 178.89 419.6 179.97 419.57L180.29 419.57C181.05 419.53 182.13 419.5 182.52 419.5 186.7 419.5 190.19 420.76 190.19 425.22 190.19 426.95 189.47 435.08 178.02 435.08L176.4 435.08C176 437.24 175.64 439.4 175.25 441.6 175.25 441.67 175.21 441.74 175.21 441.82 175.21 441.86 175.21 441.89 175.14 442.03L175.18 441.99C175.14 442.31 175.11 442.6 175.07 442.85 174.89 443.97 173.77 444.9 172.23 444.9L171.62 444.9C170.32 444.9 169.39 443.93 169.64 442.96 170.14 441.45 170.54 439.54 170.86 437.89 170.9 437.75 170.93 437.57 170.97 437.42L172.95 426.73ZM176.8 432.31 177.45 432.31C179.11 432.31 180.69 432.06 181.88 431.55L181.84 431.55C184.32 430.26 184.86 426.84 184.86 425.43 184.86 421.9 182.02 421.9 180.47 421.9L180.07 421.9C179.89 421.9 179.67 421.94 179.42 421.94L179.1 421.94C178.99 421.94 179.17 421.98 178.88 421.98 178.52 423.49 178.34 424.46 178.2 425.15 178.2 425.22 178.16 425.26 178.16 425.33 178.12 425.51 178.09 425.65 178.05 425.83 177.98 426.12 177.91 426.41 177.83 426.77L176.79 432.31Z" fill="#231F20"/><path d="M191.24 431.59C191.6 429.65 191.71 428.46 191.67 427.63 191.6 426.73 192.21 425.83 193.47 425.65 193.83 425.61 194.15 425.58 194.41 425.54L194.37 425.54C195.67 425.29 196.89 426.01 196.82 426.87 196.78 426.98 196.78 427.34 196.71 427.59 196.67 427.77 196.6 427.88 196.57 428.06 197.15 427.3 197.83 426.59 198.66 426.01 199.27 425.61 200.03 425.29 200.75 425.04 202.08 424.65 203.16 425.65 202.84 426.66 202.52 427.6 201.15 428.24 199.78 428.57L199.82 428.57C198.45 428.93 196.62 430.44 195.64 434.01 195.1 435.88 194.27 440.6 194.09 442.94 193.98 444.02 192.79 444.88 191.39 444.85L191.21 444.85C189.95 444.85 188.8 444.02 189.05 443.05 189.23 442.44 189.41 441.79 189.48 441.32L191.24 431.6Z" fill="#231F20"/><path d="M207.08 436.13C206.43 439.73 206.14 441.85 206.04 443.08 205.97 444.12 204.67 444.84 203.3 444.84L203.01 444.84C201.86 444.88 200.96 443.87 201.07 442.97 201.07 442.93 201.11 442.86 201.11 442.79 201.29 442.03 201.54 441.03 201.79 439.55L202.4 436.02C203.26 431.27 203.59 428.93 203.55 427.63 203.51 426.77 203.91 425.72 205.28 425.65 205.78 425.58 206.14 425.51 206.54 425.43 207.76 425.18 208.81 426.08 208.74 427.01 208.7 427.15 208.67 427.41 208.67 427.59 208.53 428.24 208.35 429.1 208.13 430.29L207.09 436.12ZM209.96 420.33C209.96 421.52 208.88 423.35 206.79 423.35 205.57 423.35 204.31 422.77 204.31 421.44 204.31 420.32 205.32 418.49 207.55 418.49 208.81 418.49 209.96 419.1 209.96 420.33Z" fill="#231F20"/><path d="M224.72 425.15C225.84 425.4 226.2 426.44 225.91 427.17 225.69 427.74 225.05 427.96 224.25 427.96 223.78 427.96 223.39 427.89 223.1 427.74L223.14 427.74C222.71 427.6 222.24 427.49 221.7 427.49 217.31 427.49 214.72 432.31 214.72 437.21 214.72 438.97 215.01 441.13 216.63 442.14 217.57 442.75 218.47 442.97 219.33 442.97 220.12 442.97 220.81 442.83 221.49 442.58 222.53 442.29 223.29 443.01 223.04 443.73 222.72 444.56 221.64 445.17 220.45 445.35 219.91 445.42 219.23 445.46 218.58 445.46 212.89 445.46 209.44 442.36 209.44 437.47 209.44 431.85 213.54 424.91 222.25 424.91 223.33 424.91 224.12 425.02 224.73 425.16Z" fill="#231F20"/><path d="M233.21 442.97C234.51 442.97 235.59 442.61 236.45 442.25 237.35 441.85 238.43 442.39 238.21 443.19 237.96 443.98 237.2 444.77 235.91 445.13 235.01 445.31 233.89 445.49 232.38 445.49 226.12 445.31 224.57 441.96 224.5 437.46 224.5 433.61 226.44 430.37 227.67 428.89 230.15 425.79 233.68 424.79 236.27 424.79 240.12 424.79 242.07 426.7 242.07 429.18 242.07 430.19 241.57 431.59 240.77 432.81 239.91 434.11 238.32 435.15 237.06 435.76 234.79 436.91 232.38 437.06 229.64 437.16 229.6 437.3 229.57 437.77 229.57 438.46 229.57 440.19 230.07 443 233.21 442.96ZM229.79 436.17C231.77 435.88 233.86 434.59 235.66 432.89 236.49 432.06 237.14 430.8 237.14 429.33 237.14 427.86 236.38 427.06 235.48 427.06 234.94 427.06 233.72 427.31 232.17 429.11 231.05 430.44 230.08 433.18 229.79 436.16Z" fill="#231F20"/><path d="M246.21 440.59C247.69 440.59 248.69 441.38 248.69 442.5 248.69 443.9 247.14 445.34 245.38 445.34 244.3 445.34 242.82 444.87 242.82 443.39 242.82 441.74 244.73 440.58 246.2 440.58ZM248.98 425.22C250.42 425.22 251.43 426.01 251.43 427.17 251.43 428.57 249.92 429.98 248.15 429.98 247.07 429.98 245.56 429.44 245.56 428.04 245.56 426.38 247.5 425.23 248.98 425.23Z" fill="#231F20"/><path d="M267.34 431.12C268.38 430.4 269.86 429.39 272.06 429.39 276.56 429.39 278.86 432.16 278.86 435.55 278.86 438.03 277.71 440.95 274.47 443.29 272.06 445.09 269.18 445.49 266.23 445.49 264.61 445.49 263.46 445.31 262.45 445.06 261.19 444.74 260.61 443.62 260.87 442.72 261.09 442.11 261.81 441.78 262.63 441.78 263.1 441.78 263.6 441.89 264.07 442.14 264.36 442.32 264.61 442.43 264.83 442.5 265.87 442.82 266.63 442.86 267.21 442.86 271.96 442.86 273.47 438.79 273.47 436.13 273.47 433.32 271.63 432.39 269.4 432.39 268 432.39 266.77 432.71 265.62 433.15 264.43 433.69 262.92 433.01 263.14 431.96 264 428.4 264.62 425.3 265.23 421.41 265.45 420.22 266.85 419.47 268.43 419.5 268.61 419.5 268.83 419.54 269.01 419.54 269.23 419.54 269.44 419.54 269.62 419.58L269.58 419.58C269.9 419.62 270.26 419.65 270.52 419.65 271.89 419.69 273.22 419.72 274.34 419.72 275.82 419.72 277.33 419.72 278.66 419.58L278.59 419.58C278.7 419.54 278.84 419.54 279.02 419.54L278.98 419.54C280.31 419.43 281.64 420.19 281.25 421.12 281.11 421.44 280.82 421.88 280.28 422.45 279.2 423.46 277.69 423.6 274.02 423.6 272.04 423.6 270.78 423.6 268.8 423.46L267.36 431.13Z" fill="#231F20"/><path d="M299.49 420.68C300.46 421.76 300.97 422.98 300.97 424.14 300.97 425.43 300.25 427.45 299.35 428.85 298.13 430.4 296.29 431.05 295.14 431.4 295.21 431.44 295.25 431.44 295.28 431.47L295.14 431.43C296.65 431.86 299.71 432.76 299.71 436.25 299.71 439.09 297.66 445.43 289.09 445.43 283.04 445.43 280.85 442.77 280.85 439.74 280.85 438.55 281.17 435.82 283.3 433.66 284.78 432.19 286.47 431.72 287.66 431.46 286.29 431.06 285.25 430.56 284.6 429.7 283.84 428.62 283.7 427.5 283.7 426.82 283.7 425.56 284.31 422.79 286.87 420.74 289.03 419.05 292.2 418.98 293.6 418.98 294.79 418.98 297.81 419.05 299.5 420.67ZM288.44 433.93C286.78 435.19 286.28 438 286.28 439.44 286.28 441.78 287.32 443.04 289.34 443.04 290.28 443.04 291.64 442.79 292.9 441.1 293.73 439.98 294.23 438 294.23 436.31 294.23 434.15 293.19 432.96 291.31 432.96 290.55 432.96 289.55 433.1 288.43 433.93ZM289.95 423.17C289.3 424.18 288.98 425.69 288.98 426.98 288.98 429.54 290.38 430.33 291.75 430.33 292.11 430.33 293.01 430.26 293.98 429.29 294.77 428.5 295.6 426.37 295.6 423.96 295.6 421.3 293.84 421.15 293.26 421.15 291.46 421.15 290.52 422.34 289.95 423.17Z" fill="#231F20"/><path d="M327.93 421.91C327.68 422.56 326.96 422.88 326.09 422.88 325.62 422.88 325.19 422.81 324.87 422.63 323.93 422.16 322.93 421.98 321.95 421.91 321.81 422.34 321.59 422.88 321.41 423.35 321.23 423.89 321.09 424.39 320.91 424.9 320.69 425.33 320.08 425.55 319.54 425.55 318.89 425.55 318.28 425.23 318.35 424.65 318.39 424.22 318.42 423.82 318.46 423.43 318.5 423.07 318.53 422.89 318.53 422.53 317.45 423.03 316.05 424.22 316.05 426.49 316.05 428.76 317.49 429.44 318.43 429.95 318.61 430.06 318.75 430.16 318.9 430.24 322.28 431.97 325.16 433.7 325.16 437.12 325.16 438.99 324.15 441.04 322.6 442.52 320.98 443.92 318.93 444.68 317.2 445.11 317.13 445.5 317.06 445.94 316.98 446.33 316.91 446.73 316.8 447.09 316.73 447.45L316.73 447.59 316.69 447.7C316.62 448.35 315.79 448.89 314.71 448.89 313.99 448.89 313.27 448.31 313.23 447.88 313.27 447.84 313.34 447.77 313.41 447.63L313.37 447.63 313.37 447.27C313.44 446.98 313.48 446.7 313.55 446.37 313.62 446.04 313.73 445.83 313.73 445.5L313.23 445.5C311.18 445.5 309.85 445.36 308.73 445 307.58 444.57 307.07 443.2 307.47 442.27 307.76 441.66 308.44 441.37 309.27 441.37 309.74 441.37 310.31 441.51 310.67 441.69 311.53 442.12 312.83 442.45 314.31 442.48 314.45 442.05 314.63 441.58 314.81 441.11 314.99 440.61 315.13 440.14 315.28 439.71 315.46 439.17 316.04 438.95 316.61 438.95 317.29 438.95 317.98 439.31 317.91 439.99 317.91 440.31 317.87 440.71 317.84 441.03 317.84 441.21 317.84 441.5 317.8 441.82 318.3 441.57 318.81 441.21 319.49 440.34 319.96 439.76 320.17 438.9 320.17 437.93 320.31 435.81 318.59 434.94 317.61 434.47 317.54 434.43 317.36 434.36 317.36 434.36 314.8 433.03 311.06 431.01 311.06 427.52 311.06 426.76 311.17 426.01 311.38 425.29 311.81 423.85 312.96 422.48 314.3 421.33 315.78 420.07 317.32 419.6 319.09 419.24 319.34 418.27 319.45 417.73 319.52 417.04 319.59 416.39 320.53 415.92 321.46 415.92 322.39 415.92 323.12 416.53 322.97 417.11 323.22 416.61 322.83 417.83 322.72 418.3 322.68 418.44 322.61 418.95 322.61 418.95 324.27 419.02 324.99 419.13 326.17 419.45 327.43 419.77 328.22 420.92 327.9 421.9Z" fill="#231F20"/></g><circle cx="32.27" cy="179.4" r="6.27" fill="#231F20"/><circle cx="32.27" cy="226.38" r="6.27" fill="#231F20"/><circle cx="32.27" cy="273.37" r="6.27" fill="#231F20"/><circle cx="32.27" cy="320.36" r="6.27" fill="#231F20"/><circle cx="32.27" cy="367.35" r="6.27" fill="#231F20"/><rect x="23.48" y="439.4" width="135.28" height="4.04" fill="#606161"/><g><path d="M41.3 82.84C41.08 83.99 40.98 84.82 40.9 85.43 40.79 86.55 39.6 87.45 38.16 87.45L37.51 87.45C36.25 87.45 35.24 86.51 35.53 85.54 35.85 84.64 36.14 83.27 36.39 81.8L38.77 69.09C39.24 66.71 39.38 65.24 39.42 64.23 39.42 63.19 40.36 62.18 41.8 62.21L43.46 62.21C44 62.21 45.73 62.21 47.31 62.17 48.21 62.17 49.07 62.13 49.65 62.13L50.26 62.13C51.27 62.09 51.88 62.06 52.42 62.02 53.57 62.06 54.58 63.06 54.44 63.93 54.22 64.9 52.71 65.37 51.42 65.15 50.59 64.97 49.58 64.9 48.54 64.9 47.75 64.9 47.57 64.9 44.65 65.01 44.15 66.85 43.71 69.19 43.32 71.42 43.28 71.67 43.21 71.92 43.18 72.21 43.14 72.5 43.07 72.71 43.07 73L43.39 73C44.15 73.04 44.72 73.04 45.26 73.04 46.34 73.04 47.24 73 48.14 72.9 48.46 72.86 48.75 72.83 49 72.79 49.07 72.79 49.18 72.75 49.22 72.75L49.33 72.75C50.48 72.61 51.74 73.36 51.67 74.23 51.38 75.35 50.12 76.14 48.57 75.89 47.81 75.75 46.99 75.71 45.55 75.71L42.56 75.71 41.3 82.84Z" fill="#231F20"/><path d="M54.77 74.1C55.13 72.16 55.24 70.97 55.2 70.14 55.13 69.24 55.74 68.34 57 68.16 57.36 68.12 57.68 68.09 57.94 68.05L57.9 68.05C59.2 67.8 60.42 68.52 60.35 69.38 60.31 69.49 60.31 69.85 60.24 70.1 60.2 70.28 60.13 70.39 60.1 70.57 60.68 69.81 61.36 69.09 62.19 68.52 62.8 68.12 63.56 67.8 64.28 67.55 65.61 67.15 66.69 68.16 66.37 69.17 66.05 70.11 64.68 70.75 63.31 71.08L63.35 71.08C61.98 71.44 60.15 72.95 59.17 76.52 58.63 78.39 57.8 83.11 57.62 85.45 57.51 86.53 56.32 87.39 54.92 87.36L54.74 87.36C53.48 87.36 52.33 86.53 52.58 85.56 52.76 84.95 52.94 84.3 53.01 83.83L54.77 74.11Z" fill="#231F20"/><path d="M70.61 78.63C69.96 82.23 69.67 84.35 69.57 85.58 69.5 86.62 68.2 87.34 66.83 87.34L66.54 87.34C65.39 87.38 64.49 86.37 64.6 85.47 64.6 85.43 64.64 85.36 64.64 85.29 64.82 84.53 65.07 83.53 65.32 82.05L65.93 78.52C66.79 73.77 67.12 71.43 67.08 70.13 67.04 69.27 67.44 68.22 68.81 68.15 69.31 68.08 69.67 68.01 70.07 67.93 71.29 67.68 72.34 68.58 72.27 69.51 72.23 69.65 72.2 69.91 72.2 70.09 72.06 70.74 71.88 71.6 71.66 72.79L70.62 78.62ZM73.49 62.83C73.49 64.02 72.41 65.85 70.32 65.85 69.1 65.85 67.84 65.27 67.84 63.94 67.84 62.82 68.85 60.99 71.08 60.99 72.34 60.99 73.49 61.6 73.49 62.82Z" fill="#231F20"/><path d="M81.73 85.47C83.03 85.47 84.11 85.11 84.97 84.75 85.87 84.35 86.95 84.89 86.73 85.69 86.48 86.48 85.72 87.27 84.43 87.63 83.53 87.81 82.41 87.99 80.9 87.99 74.64 87.81 73.09 84.46 73.02 79.96 73.02 76.11 74.96 72.87 76.19 71.39 78.67 68.29 82.2 67.29 84.79 67.29 88.64 67.29 90.59 69.2 90.59 71.68 90.59 72.69 90.09 74.09 89.29 75.32 88.43 76.62 86.84 77.66 85.58 78.27 83.31 79.42 80.9 79.57 78.16 79.67 78.12 79.81 78.09 80.28 78.09 80.97 78.09 82.7 78.59 85.51 81.73 85.47ZM78.31 78.67C80.29 78.38 82.38 77.09 84.18 75.39 85.01 74.56 85.66 73.3 85.66 71.83 85.66 70.36 84.9 69.56 84 69.56 83.46 69.56 82.24 69.81 80.69 71.61 79.57 72.94 78.6 75.68 78.31 78.67Z" fill="#231F20"/><path d="M107.26 78.85C107.22 79.17 107.19 79.46 107.12 79.79 106.8 81.7 106.4 84 106.4 85.55 106.36 86.52 105.46 87.42 104.1 87.46 102.73 87.46 101.47 86.6 101.62 85.52 101.66 85.16 101.62 85.27 101.8 84.26 100.47 86.1 98.85 87.86 96.18 87.86 92.94 87.86 90.13 85.81 90.13 81.7 90.13 80.73 90.63 75.72 93.87 71.62 95.89 69.17 99.09 67.48 102.54 67.48 103.37 67.48 104.02 67.59 104.56 67.7 104.88 66.01 105.03 65 104.96 64.24 104.92 63.3 105.64 62.33 106.94 62.15 107.05 62.11 107.3 62.08 107.44 62.04 108.84 61.79 110.28 62.4 110.07 63.41 109.93 63.81 109.89 64.31 109.78 64.92 109.71 65.28 109.64 65.68 109.56 66.14 109.52 66.39 109.45 66.68 109.42 66.97 109.35 67.29 109.28 67.65 109.2 68.05L107.26 78.85ZM95.13 80.51C95.13 82.99 95.99 84.79 97.54 84.79 98.55 84.79 100.06 84 101.32 81.48 102.26 79.64 102.69 77.45 104.09 70.18 103.41 70 102.83 69.86 102.18 69.86 96.49 69.86 95.13 78.25 95.13 80.51Z" fill="#231F20"/><path d="M133.43 67.65C134.55 67.9 134.91 68.95 134.62 69.67 134.4 70.25 133.76 70.46 132.96 70.46 132.49 70.46 132.1 70.39 131.81 70.24L131.85 70.24C131.42 70.1 130.95 69.99 130.41 69.99 126.02 69.99 123.43 74.81 123.43 79.71 123.43 81.47 123.72 83.63 125.34 84.64 126.28 85.25 127.18 85.47 128.04 85.47 128.83 85.47 129.52 85.33 130.2 85.07 131.24 84.78 132 85.5 131.75 86.22 131.43 87.05 130.35 87.66 129.16 87.84 128.62 87.91 127.94 87.95 127.29 87.95 121.6 87.95 118.15 84.85 118.15 79.96 118.15 74.34 122.25 67.4 130.96 67.4 132.04 67.4 132.83 67.51 133.44 67.65Z" fill="#231F20"/><path d="M149.81 67.94C151.11 67.54 152.26 68.55 152.08 69.52 151.83 70.71 151.43 72.54 150.82 75.86L150.17 79.39C149.67 82.34 149.38 84.83 149.38 85.87 149.38 86.77 148.19 87.42 146.97 87.45 145.71 87.49 144.63 86.73 144.7 85.83 144.74 85.22 144.84 84.39 144.99 83.63 143.51 85.65 141.61 87.84 138.8 87.84 135.81 87.84 132.86 85.9 132.86 81.79 132.86 80.13 133.83 73.58 139.09 69.41 139.95 68.76 142.04 67.39 145.39 67.39 147.08 67.39 148.2 67.75 149.24 68.15L149.82 67.93ZM147.07 70.28C146.42 70.06 145.63 69.81 144.77 69.81 139.3 69.81 137.86 77.51 137.86 80.47 137.86 82.92 138.54 84.68 140.34 84.68 141.38 84.68 142.72 84.1 143.94 82.3 144.91 80.97 145.52 78.88 146.14 75.28L147.08 70.28Z" fill="#231F20"/><path d="M154.7 74.1C155.06 72.16 155.17 70.97 155.13 70.14 155.06 69.24 155.67 68.34 156.93 68.16 157.29 68.12 157.61 68.09 157.87 68.05L157.83 68.05C159.13 67.8 160.35 68.52 160.28 69.38 160.24 69.49 160.24 69.85 160.17 70.1 160.13 70.28 160.06 70.39 160.03 70.57 160.61 69.81 161.29 69.09 162.12 68.52 162.73 68.12 163.49 67.8 164.21 67.55 165.54 67.15 166.62 68.16 166.3 69.17 165.98 70.11 164.61 70.75 163.24 71.08L163.28 71.08C161.91 71.44 160.08 72.95 159.1 76.52 158.56 78.39 157.73 83.11 157.55 85.45 157.44 86.53 156.25 87.39 154.85 87.36L154.67 87.36C153.41 87.36 152.26 86.53 152.51 85.56 152.69 84.95 152.87 84.3 152.94 83.83L154.7 74.11Z" fill="#231F20"/><path d="M183.61 73.38C183.61 77.05 181.92 81.8 179.07 84.61 177.13 86.55 174.46 87.78 171.44 87.78 170.76 87.78 169.89 87.78 168.81 87.56 168.7 88.28 168.56 88.89 168.41 89.61 168.27 90.37 168.12 91.09 167.98 91.81 167.76 93 167.66 94.01 167.58 94.65 167.47 95.8 166.43 96.7 164.88 96.63L164.63 96.63C163.44 96.63 162.29 95.84 162.47 94.97 162.76 93.89 163.05 92.49 163.33 91.12 163.4 90.72 163.51 90.33 163.55 89.93 163.55 89.89 163.59 89.75 163.66 89.57 163.7 89.46 163.7 89.32 163.73 89.21L163.69 89.25 165.96 77.55C166.1 76.79 166.18 76.15 166.28 75.53 166.35 75.03 166.46 74.52 166.57 73.87 166.68 73.65 166.68 73.44 166.68 73.33 166.97 71.85 167 70.67 166.97 69.91 167.01 69.23 167.44 68.29 168.55 68.15 169.02 68.11 169.45 68.04 169.81 67.97 171.07 67.75 172.26 68.51 172.19 69.45 172.08 69.95 171.97 70.42 171.87 70.89 172.45 70.06 173.13 69.23 173.96 68.62 174.39 68.3 175.72 67.4 178.17 67.4 181.48 67.4 183.6 69.49 183.6 73.37ZM170.94 77.09C170.33 79.11 169.79 82.24 169.5 83.79 169.39 84.01 169.36 84.19 169.36 84.51L169.25 84.51C169.93 84.87 170.76 85.27 171.88 85.27 174.11 85.27 175.34 84.01 175.98 83.22 177.92 80.88 178.54 76.6 178.54 74.44 178.54 72.28 177.86 70.62 176.16 70.62 174.25 70.62 172.2 73.03 170.94 77.1Z" fill="#231F20"/><path d="M194.05 68.34C194.16 67.76 194.99 67.4 195.81 67.33 196.49 63.48 197.57 61.61 199.59 60.02 201.25 58.87 203.08 58.54 204.74 58.47 205.86 58.43 206.72 59.3 206.4 60.13 206 60.92 204.78 61.21 203.7 61.25 201.94 61.36 201.11 64.17 200.46 67.37L201.58 67.37C201.72 67.37 201.87 67.33 201.98 67.33L202.88 67.33C203.89 67.33 204.79 67.94 204.64 68.63 204.53 69.35 203.49 69.75 202.44 69.75 201.97 69.71 200.89 69.71 200.5 69.71L200.03 69.71C199.71 71.58 199.38 73.42 199.09 75.4 198.77 77.38 198.44 79.32 198.12 81.2 198.08 81.49 198.05 81.78 197.98 82.06 197.91 82.35 197.87 82.67 197.8 82.96 197.69 83.5 197.58 84.15 197.48 84.69 196.87 88.15 194.92 95.49 187.58 95.92 186.5 95.88 185.82 94.95 186.03 94.23 186.35 93.44 187.47 93.08 188.51 93.04 189.55 92.9 190.34 92 190.67 91.56 191.75 90.26 192.51 86.52 193.26 82.13 193.62 80.11 193.94 77.95 194.3 75.87 194.66 73.75 194.98 71.69 195.24 69.68 194.45 69.54 193.94 68.92 194.05 68.35Z" fill="#231F20"/><path d="M208.05 78.63C207.4 82.23 207.11 84.35 207.01 85.58 206.94 86.62 205.64 87.34 204.27 87.34L203.98 87.34C202.83 87.38 201.93 86.37 202.04 85.47 202.04 85.43 202.08 85.36 202.08 85.29 202.26 84.53 202.51 83.53 202.76 82.05L203.37 78.52C204.23 73.77 204.56 71.43 204.52 70.13 204.48 69.27 204.88 68.22 206.25 68.15 206.75 68.08 207.11 68.01 207.51 67.93 208.73 67.68 209.78 68.58 209.71 69.51 209.67 69.65 209.64 69.91 209.64 70.09 209.5 70.74 209.32 71.6 209.1 72.79L208.06 78.62ZM210.93 62.83C210.93 64.02 209.85 65.85 207.76 65.85 206.54 65.85 205.28 65.27 205.28 63.94 205.28 62.82 206.29 60.99 208.52 60.99 209.78 60.99 210.93 61.6 210.93 62.82Z" fill="#231F20"/><path d="M214.03 78.38C212.91 77.73 210.79 76.44 210.79 74.13 210.79 72.19 212.12 70.39 213.89 68.98 215.73 67.61 218.53 67.36 220.01 67.36 221.09 67.36 221.85 67.43 222.49 67.61L222.45 67.61C223.64 67.86 224.25 68.91 223.89 69.73 223.64 70.31 222.92 70.59 222.13 70.59 221.66 70.59 221.23 70.52 220.91 70.34L220.95 70.34C220.41 70.09 219.8 69.91 219.19 69.91 216.89 69.91 215.66 71.64 215.66 73.01 215.66 74.7 216.81 75.35 218 76.03L219.8 77.15C220.95 77.83 222.72 78.91 222.72 81.04 222.72 82.59 221.93 84.64 219.66 86.3 217.54 87.85 214.87 87.96 213.22 87.96 212.25 87.96 211.24 87.85 210.56 87.71 209.3 87.39 208.44 86.45 208.65 85.66 209.12 84.47 210.56 84.04 211.67 84.58L211.63 84.58C212.31 84.9 213.14 85.16 214.4 85.16 216.78 85.16 218.04 83.65 218.04 82.21 218.04 80.77 217.18 80.23 216.28 79.69L214.05 78.39Z" fill="#231F20"/><path d="M226.59 70.75C227.31 66.93 227.6 65.03 227.56 63.95 227.52 63.12 227.92 62.19 229.22 62.04 229.58 62 229.98 61.97 230.34 61.9 231.64 61.72 233 62.44 232.79 63.41 232.57 64.45 232.39 65.35 232.03 67.12 231.85 68.13 231.63 69.17 231.45 70.22 231.423 70.2933 231.423 70.3067 231.45 70.26 231.95 69.58 232.53 69 233.36 68.5 234.91 67.49 236.49 67.31 237.64 67.31 240.3 67.31 242.86 68.43 242.86 71.31 242.86 72.07 242.72 73 242.43 74.84L241.03 82.87C240.89 83.77 240.78 84.85 240.71 85.5 240.64 86.58 239.41 87.41 237.9 87.41 236.64 87.41 235.52 86.51 235.74 85.57 235.92 84.89 236.14 83.88 236.35 82.65 236.78 80.02 237.25 77.14 237.72 74.52 237.83 73.91 237.94 73.19 237.94 72.65 237.94 71.32 237.51 70.31 236.03 70.31 234.81 70.31 233.47 70.99 232.39 72.15 231.85 72.73 230.84 74.63 230.05 77.87 229.83 78.81 229.01 83.12 228.68 85.39 228.5 86.58 227.24 87.44 225.66 87.44 224.44 87.44 223.46 86.54 223.75 85.64 223.93 84.96 224.29 83.3 224.76 80.78L226.6 70.77Z" fill="#231F20"/></g></svg>