<svg viewBox="0 0 356.59 489.29" xmlns="http://www.w3.org/2000/svg" xmlns:xlink="http://www.w3.org/1999/xlink" id="Layer_1" overflow="hidden"><defs></defs><rect x="0.5" y="0.5" rx="20.5" ry="20.5" width="355.59" height="488.29" stroke="#515251" stroke-miterlimit="10" fill="#FFFFFF" opacity="0.76"/><g><path d="M67.05 176.79C66.57 178.67 65.71 180.09 64.47 181.07 63.23 182.05 61.72 182.53 59.93 182.53 58.14 182.53 56.57 182.15 55.41 181.4 54.25 180.65 53.37 179.55 52.76 178.12 52.16 176.68 51.86 175.15 51.86 173.51 51.86 171.72 52.2 170.16 52.88 168.83 53.57 167.5 54.54 166.49 55.8 165.79 57.07 165.09 58.46 164.75 59.97 164.75 61.7 164.75 63.14 165.19 64.31 166.06 65.49 166.94 66.31 168.17 66.76 169.75L64.52 170.28C64.12 169.03 63.54 168.12 62.79 167.55 62.04 166.98 61.08 166.69 59.93 166.69 58.61 166.69 57.5 167.01 56.61 167.64 55.73 168.27 55.11 169.12 54.75 170.19 54.39 171.24 54.21 172.34 54.21 173.48 54.21 174.21 54.26 174.89 54.37 175.54 54.48 176.19 54.64 176.77 54.85 177.31 55.06 177.85 55.34 178.32 55.67 178.73 56 179.14 56.39 179.48 56.84 179.75 57.74 180.29 58.71 180.56 59.76 180.56 60.39 180.56 60.98 180.47 61.53 180.28 62.08 180.09 62.57 179.82 62.99 179.45 63.41 179.08 63.79 178.63 64.09 178.08 64.39 177.53 64.63 176.9 64.78 176.18L67.05 176.75Z" fill="#231F20"/><path d="M69.81 182.23 69.81 165.05 71.92 165.05 71.92 171.21C72.9 170.07 74.15 169.5 75.65 169.5 76.57 169.5 77.37 169.68 78.05 170.04 78.73 170.4 79.21 170.91 79.5 171.55 79.8 172.21 79.95 173.14 79.95 174.34L79.95 182.23 77.84 182.23 77.84 174.34C77.84 173.29 77.61 172.52 77.15 172.04 76.69 171.56 76.05 171.32 75.21 171.32 74.58 171.32 73.99 171.48 73.44 171.81 72.9 172.12 72.51 172.56 72.27 173.12 72.04 173.67 71.92 174.44 71.92 175.42L71.92 182.23 69.81 182.23Z" fill="#231F20"/><path d="M82.6 167.48 82.6 165.05 84.71 165.05 84.71 167.48 82.6 167.48ZM82.6 182.23 82.6 169.78 84.71 169.78 84.71 182.23 82.6 182.23Z" fill="#231F20"/><path d="M97.79 177.95C97.56 179.38 96.98 180.5 96.04 181.31 95.12 182.11 93.97 182.52 92.61 182.52 90.91 182.52 89.54 181.97 88.5 180.86 87.47 179.75 86.95 178.15 86.95 176.07 86.95 174.73 87.17 173.55 87.62 172.54 88.07 171.53 88.74 170.78 89.65 170.28 90.57 169.77 91.56 169.52 92.63 169.52 93.99 169.52 95.1 169.86 95.95 170.54 96.8 171.22 97.35 172.19 97.6 173.46L95.55 173.78C95.35 172.94 95.01 172.31 94.52 171.89 94.03 171.47 93.43 171.26 92.72 171.26 91.67 171.26 90.8 171.64 90.13 172.41 89.47 173.17 89.13 174.37 89.13 176.02 89.13 177.67 89.45 178.91 90.09 179.66 90.73 180.41 91.57 180.8 92.6 180.8 93.43 180.8 94.12 180.55 94.67 180.04 95.22 179.53 95.58 178.75 95.72 177.7L97.79 177.97Z" fill="#231F20"/><path d="M99.91 182.23 99.91 165.05 102.02 165.05 102.02 171.21C103 170.07 104.25 169.5 105.75 169.5 106.67 169.5 107.47 169.68 108.15 170.04 108.83 170.4 109.31 170.91 109.6 171.55 109.9 172.21 110.05 173.14 110.05 174.34L110.05 182.23 107.94 182.23 107.94 174.34C107.94 173.29 107.71 172.52 107.25 172.04 106.79 171.56 106.15 171.32 105.31 171.32 104.68 171.32 104.09 171.48 103.54 171.81 103 172.12 102.61 172.56 102.37 173.12 102.14 173.67 102.02 174.44 102.02 175.42L102.02 182.23 99.91 182.23Z" fill="#231F20"/><path d="M123.38 178.5C123.03 179.78 122.39 180.77 121.47 181.47 120.55 182.17 119.36 182.52 117.91 182.52 116.09 182.52 114.64 181.96 113.57 180.84 112.51 179.72 111.98 178.15 111.98 176.12 111.98 174.09 112.52 172.41 113.6 171.24 114.68 170.08 116.08 169.51 117.8 169.51 119.52 169.51 120.82 170.08 121.88 171.21 122.93 172.35 123.46 173.94 123.46 175.99L123.46 176.22C123.46 176.31 123.46 176.42 123.45 176.55L114.17 176.55C114.25 177.92 114.63 178.96 115.33 179.69 116.02 180.42 116.88 180.78 117.93 180.78 118.7 180.78 119.36 180.58 119.91 180.17 120.46 179.76 120.89 179.12 121.21 178.22L123.39 178.49ZM121.22 174.82C121.13 173.78 120.86 173 120.42 172.46 119.75 171.65 118.88 171.24 117.81 171.24 116.85 171.24 116.03 171.56 115.36 172.21 114.7 172.86 114.34 173.73 114.27 174.81L121.22 174.81Z" fill="#231F20"/><path d="M125.96 182.23 125.96 169.78 127.86 169.78 127.86 171.55C128.77 170.18 130.09 169.5 131.82 169.5 132.56 169.5 133.25 169.64 133.88 169.91 134.5 170.18 134.98 170.53 135.3 170.96 135.46 171.18 135.59 171.42 135.7 171.68 135.81 171.94 135.9 172.22 135.96 172.52 136 172.72 136.03 172.98 136.05 173.32 136.07 173.66 136.08 174.08 136.08 174.57L136.08 182.22 133.97 182.22 133.97 174.65C133.97 173.79 133.89 173.15 133.72 172.73 133.56 172.3 133.26 171.96 132.84 171.71 132.43 171.45 131.94 171.32 131.38 171.32 130.47 171.32 129.7 171.61 129.05 172.18 128.4 172.76 128.08 173.84 128.08 175.43L128.08 182.23 125.97 182.23Z" fill="#231F20"/><path d="M56.89 230.23 56.89 215.08 51.23 215.08 51.23 213.05 64.85 213.05 64.85 215.08 59.17 215.08 59.17 230.23 56.9 230.23Z" fill="#231F20"/><path d="M66.4 224.01C66.4 221.71 67.04 220.01 68.32 218.89 69.38 217.97 70.69 217.51 72.23 217.51 73.93 217.51 75.33 218.07 76.43 219.2 77.52 220.31 78.06 221.86 78.06 223.84 78.06 225.43 77.82 226.7 77.33 227.63 76.85 228.55 76.15 229.26 75.23 229.76 74.31 230.27 73.31 230.52 72.23 230.52 70.49 230.52 69.08 229.96 68 228.84 66.93 227.72 66.39 226.11 66.39 224.01ZM68.57 224.01C68.57 225.6 68.92 226.79 69.61 227.6 70.31 228.39 71.18 228.78 72.23 228.78 73.28 228.78 74.15 228.38 74.84 227.58 75.54 226.78 75.88 225.56 75.88 223.94 75.88 222.4 75.53 221.24 74.83 220.45 74.13 219.65 73.27 219.25 72.23 219.25 71.19 219.25 70.3 219.64 69.61 220.43 68.92 221.22 68.57 222.41 68.57 224Z" fill="#231F20"/><path d="M80.53 230.23 80.53 217.78 82.42 217.78 82.42 219.53C82.82 218.92 83.34 218.43 83.98 218.06 84.62 217.69 85.36 217.5 86.19 217.5 87.11 217.5 87.87 217.69 88.46 218.07 89.05 218.45 89.47 218.99 89.71 219.68 90.69 218.23 91.98 217.5 93.55 217.5 94.79 217.5 95.74 217.84 96.4 218.52 97.06 219.2 97.39 220.25 97.39 221.68L97.39 230.22 95.29 230.22 95.29 222.38C95.29 221.54 95.22 220.93 95.08 220.56 94.95 220.18 94.7 219.88 94.34 219.66 93.97 219.43 93.55 219.32 93.07 219.32 92.19 219.32 91.46 219.61 90.89 220.2 90.31 220.78 90.02 221.71 90.02 222.99L90.02 230.22 87.91 230.22 87.91 222.13C87.91 221.18 87.74 220.48 87.39 220.01 87.04 219.54 86.48 219.31 85.7 219.31 85.1 219.31 84.55 219.47 84.05 219.78 83.54 220.1 83.18 220.56 82.96 221.15 82.73 221.76 82.62 222.63 82.62 223.75L82.62 230.21 80.51 230.21Z" fill="#231F20"/><path d="M108.08 228.7C107.29 229.37 106.54 229.84 105.82 230.11 105.09 230.38 104.32 230.52 103.5 230.52 102.13 230.52 101.08 230.19 100.35 229.52 99.62 228.85 99.25 228 99.25 226.95 99.25 226.48 99.33 226.05 99.49 225.66 99.65 225.27 99.87 224.92 100.14 224.62 100.41 224.32 100.73 224.06 101.1 223.85 101.47 223.64 101.86 223.48 102.27 223.38 102.68 223.28 103.3 223.17 104.15 223.06 105.83 222.86 107.08 222.62 107.91 222.33 107.91 222.18 107.92 222.06 107.92 221.97L107.92 221.78C107.92 220.92 107.72 220.32 107.32 219.96 106.79 219.48 105.99 219.25 104.92 219.25 103.93 219.25 103.19 219.43 102.72 219.78 102.25 220.12 101.9 220.74 101.68 221.62L99.62 221.34C99.81 220.46 100.12 219.74 100.55 219.2 100.98 218.66 101.6 218.24 102.41 217.95 103.23 217.65 104.17 217.5 105.23 217.5 106.29 217.5 107.16 217.62 107.82 217.88 108.48 218.14 108.97 218.45 109.28 218.83 109.58 219.19 109.8 219.67 109.94 220.26 110.01 220.63 110.05 221.28 110.05 222.21L110.05 225.02C110.05 226 110.06 226.81 110.09 227.42 110.12 228.03 110.14 228.48 110.18 228.74 110.27 229.26 110.45 229.76 110.72 230.23L108.52 230.23C108.3 229.8 108.16 229.29 108.1 228.69ZM107.9 223.99C107.52 224.15 107.04 224.29 106.47 224.42 105.9 224.55 105.23 224.67 104.45 224.78 103.59 224.9 102.98 225.05 102.61 225.2 102.26 225.35 101.98 225.58 101.78 225.89 101.58 226.18 101.49 226.51 101.49 226.89 101.49 227.17 101.54 227.43 101.65 227.68 101.76 227.93 101.91 228.13 102.12 228.31 102.33 228.49 102.59 228.62 102.91 228.72 103.23 228.82 103.59 228.87 104 228.87 104.41 228.87 104.79 228.82 105.16 228.73 105.53 228.64 105.86 228.5 106.17 228.33 106.48 228.16 106.75 227.95 106.98 227.7 107.21 227.45 107.41 227.18 107.56 226.87 107.79 226.38 107.9 225.67 107.9 224.76L107.9 223.99Z" fill="#231F20"/><path d="M117.94 230.21C117.36 230.33 116.83 230.4 116.35 230.4 115.58 230.4 114.99 230.28 114.57 230.04 114.15 229.8 113.85 229.48 113.68 229.09 113.51 228.7 113.42 227.87 113.42 226.59L113.42 219.43 111.87 219.43 111.87 217.79 113.42 217.79 113.42 214.71 115.52 213.44 115.52 217.79 117.64 217.79 117.64 219.43 115.52 219.43 115.52 226.71C115.52 227.31 115.56 227.7 115.63 227.87 115.71 228.04 115.83 228.18 115.99 228.28 116.16 228.38 116.4 228.43 116.72 228.43 116.84 228.43 116.97 228.43 117.12 228.41 117.27 228.39 117.45 228.38 117.64 228.35L117.94 230.21Z" fill="#231F20"/><path d="M119.36 224.01C119.36 221.71 120 220.01 121.28 218.89 122.34 217.97 123.65 217.51 125.19 217.51 126.89 217.51 128.29 218.07 129.39 219.2 130.48 220.31 131.02 221.86 131.02 223.84 131.02 225.43 130.78 226.7 130.29 227.63 129.81 228.55 129.11 229.26 128.19 229.76 127.27 230.27 126.27 230.52 125.19 230.52 123.45 230.52 122.04 229.96 120.96 228.84 119.89 227.72 119.35 226.11 119.35 224.01ZM121.53 224.01C121.53 225.6 121.88 226.79 122.57 227.6 123.27 228.39 124.14 228.78 125.19 228.78 126.24 228.78 127.11 228.38 127.8 227.58 128.5 226.78 128.84 225.56 128.84 223.94 128.84 222.4 128.49 221.24 127.79 220.45 127.09 219.65 126.23 219.25 125.19 219.25 124.15 219.25 123.26 219.64 122.57 220.43 121.88 221.22 121.53 222.41 121.53 224Z" fill="#231F20"/><path d="M52.64 278.23 52.64 261.05 64.23 261.05 64.23 263.08 54.91 263.08 54.91 268.4 62.97 268.4 62.97 270.43 54.91 270.43 54.91 278.23 52.64 278.23Z" fill="#231F20"/><path d="M66.59 278.23 66.59 265.78 68.49 265.78 68.49 267.67C68.97 266.79 69.42 266.21 69.83 265.92 70.24 265.63 70.69 265.5 71.19 265.5 71.9 265.5 72.62 265.73 73.36 266.18L72.63 268.14C72.11 267.84 71.6 267.68 71.08 267.68 70.61 267.68 70.2 267.82 69.83 268.1 69.46 268.38 69.21 268.76 69.05 269.25 68.82 270 68.7 270.82 68.7 271.71L68.7 278.23 66.59 278.23Z" fill="#231F20"/><path d="M75.92 263.48 75.92 261.05 78.03 261.05 78.03 263.48 75.92 263.48ZM75.92 278.23 75.92 265.78 78.03 265.78 78.03 278.23 75.92 278.23Z" fill="#231F20"/><path d="M91.61 274.5C91.26 275.78 90.62 276.77 89.7 277.47 88.78 278.17 87.59 278.52 86.14 278.52 84.32 278.52 82.87 277.96 81.8 276.84 80.74 275.72 80.21 274.15 80.21 272.12 80.21 270.09 80.75 268.41 81.83 267.24 82.91 266.08 84.31 265.51 86.03 265.51 87.75 265.51 89.05 266.08 90.11 267.21 91.16 268.35 91.69 269.94 91.69 271.99L91.69 272.22C91.69 272.31 91.69 272.42 91.68 272.55L82.4 272.55C82.48 273.92 82.86 274.96 83.56 275.69 84.25 276.42 85.11 276.78 86.16 276.78 86.93 276.78 87.59 276.58 88.14 276.17 88.69 275.76 89.12 275.12 89.44 274.22L91.62 274.49ZM89.45 270.82C89.36 269.78 89.09 269 88.65 268.46 87.98 267.65 87.11 267.24 86.04 267.24 85.08 267.24 84.26 267.56 83.59 268.21 82.93 268.86 82.57 269.73 82.5 270.81L89.45 270.81Z" fill="#231F20"/><path d="M102.26 278.23 102.26 276.66C101.47 277.89 100.31 278.51 98.78 278.51 97.78 278.51 96.87 278.24 96.04 277.69 95.2 277.14 94.56 276.38 94.11 275.4 93.66 274.42 93.43 273.29 93.43 272.01 93.43 270.73 93.64 269.65 94.05 268.63 94.46 267.61 95.08 266.84 95.91 266.3 96.74 265.76 97.66 265.49 98.69 265.49 99.45 265.49 100.12 265.65 100.69 265.96 101.26 266.27 101.74 266.69 102.12 267.2L102.12 261.04 104.22 261.04 104.22 278.22 102.26 278.22ZM95.59 272.02C95.59 273.61 95.93 274.81 96.6 275.59 97.27 276.37 98.06 276.77 98.98 276.77 99.9 276.77 100.68 276.39 101.32 275.65 101.97 274.88 102.29 273.73 102.29 272.19 102.29 270.49 101.96 269.24 101.31 268.44 100.66 267.64 99.85 267.24 98.88 267.24 97.91 267.24 97.16 267.62 96.52 268.39 95.9 269.16 95.58 270.36 95.58 272.01Z" fill="#231F20"/><path d="M115.79 283 115.79 265.79 117.71 265.79 117.71 267.41C118.16 266.78 118.67 266.3 119.25 265.99 119.83 265.68 120.51 265.52 121.32 265.52 122.39 265.52 123.33 265.79 124.13 266.33 124.93 266.87 125.55 267.65 125.97 268.66 126.38 269.67 126.59 270.76 126.59 271.93 126.59 273.2 126.36 274.34 125.9 275.38 125.45 276.4 124.78 277.18 123.91 277.72 123.04 278.26 122.13 278.53 121.17 278.53 120.46 278.53 119.83 278.38 119.27 278.08 118.71 277.78 118.26 277.41 117.9 276.96L117.9 283.02 115.79 283.02ZM117.7 272.08C117.7 273.68 118.02 274.87 118.67 275.63 119.32 276.39 120.1 276.78 121.03 276.78 121.96 276.78 122.76 276.39 123.43 275.6 124.1 274.8 124.44 273.56 124.44 271.91 124.44 270.26 124.11 269.14 123.46 268.35 122.81 267.56 122.03 267.17 121.13 267.17 120.23 267.17 119.43 267.59 118.74 268.44 118.05 269.27 117.71 270.49 117.71 272.1Z" fill="#231F20"/><path d="M128.08 272.01C128.08 269.71 128.72 268.01 130 266.89 131.06 265.97 132.37 265.51 133.91 265.51 135.61 265.51 137.01 266.07 138.11 267.2 139.2 268.31 139.74 269.86 139.74 271.84 139.74 273.43 139.5 274.7 139.01 275.63 138.53 276.55 137.83 277.26 136.91 277.76 135.99 278.27 134.99 278.52 133.91 278.52 132.17 278.52 130.76 277.96 129.68 276.84 128.61 275.72 128.07 274.11 128.07 272.01ZM130.25 272.01C130.25 273.6 130.6 274.79 131.29 275.6 131.99 276.39 132.86 276.78 133.91 276.78 134.96 276.78 135.83 276.38 136.52 275.58 137.22 274.78 137.56 273.56 137.56 271.94 137.56 270.4 137.21 269.24 136.51 268.45 135.81 267.65 134.95 267.25 133.91 267.25 132.87 267.25 131.98 267.64 131.29 268.43 130.6 269.22 130.25 270.41 130.25 272Z" fill="#231F20"/><path d="M147.11 278.21C146.53 278.33 146 278.4 145.52 278.4 144.75 278.4 144.16 278.28 143.74 278.04 143.32 277.8 143.02 277.48 142.85 277.09 142.68 276.7 142.59 275.87 142.59 274.59L142.59 267.43 141.04 267.43 141.04 265.79 142.59 265.79 142.59 262.71 144.69 261.44 144.69 265.79 146.81 265.79 146.81 267.43 144.69 267.43 144.69 274.71C144.69 275.31 144.73 275.7 144.8 275.87 144.88 276.04 145 276.18 145.16 276.28 145.33 276.38 145.57 276.43 145.89 276.43 146.01 276.43 146.14 276.43 146.29 276.41 146.44 276.39 146.62 276.38 146.81 276.35L147.11 278.21Z" fill="#231F20"/><path d="M157.44 276.7C156.65 277.37 155.9 277.84 155.18 278.11 154.45 278.38 153.68 278.52 152.86 278.52 151.49 278.52 150.44 278.19 149.71 277.52 148.98 276.85 148.61 276 148.61 274.95 148.61 274.48 148.69 274.05 148.85 273.66 149.01 273.27 149.23 272.92 149.5 272.62 149.77 272.32 150.09 272.06 150.46 271.85 150.83 271.64 151.22 271.48 151.63 271.38 152.04 271.28 152.66 271.17 153.51 271.06 155.19 270.86 156.44 270.62 157.27 270.33 157.27 270.18 157.28 270.06 157.28 269.97L157.28 269.78C157.28 268.92 157.08 268.32 156.68 267.96 156.15 267.48 155.35 267.25 154.28 267.25 153.29 267.25 152.55 267.43 152.08 267.78 151.61 268.12 151.26 268.74 151.04 269.62L148.98 269.34C149.17 268.46 149.48 267.74 149.91 267.2 150.34 266.66 150.96 266.24 151.77 265.95 152.59 265.65 153.53 265.5 154.59 265.5 155.65 265.5 156.52 265.62 157.18 265.88 157.84 266.14 158.33 266.45 158.64 266.83 158.94 267.19 159.16 267.67 159.3 268.26 159.37 268.63 159.41 269.28 159.41 270.21L159.41 273.02C159.41 274 159.42 274.81 159.45 275.42 159.48 276.03 159.5 276.48 159.54 276.74 159.63 277.26 159.81 277.76 160.08 278.23L157.88 278.23C157.66 277.8 157.52 277.29 157.46 276.69ZM157.26 271.99C156.88 272.15 156.4 272.29 155.83 272.42 155.26 272.55 154.59 272.67 153.81 272.78 152.95 272.9 152.34 273.05 151.97 273.2 151.62 273.35 151.34 273.58 151.14 273.89 150.94 274.18 150.85 274.51 150.85 274.89 150.85 275.17 150.9 275.43 151.01 275.68 151.12 275.93 151.27 276.13 151.48 276.31 151.69 276.49 151.95 276.62 152.27 276.72 152.59 276.82 152.95 276.87 153.36 276.87 153.77 276.87 154.15 276.82 154.52 276.73 154.89 276.64 155.22 276.5 155.53 276.33 155.84 276.16 156.11 275.95 156.34 275.7 156.57 275.45 156.77 275.18 156.92 274.87 157.15 274.38 157.26 273.67 157.26 272.76L157.26 271.99Z" fill="#231F20"/><path d="M167.3 278.21C166.72 278.33 166.19 278.4 165.71 278.4 164.94 278.4 164.35 278.28 163.93 278.04 163.51 277.8 163.21 277.48 163.04 277.09 162.87 276.7 162.78 275.87 162.78 274.59L162.78 267.43 161.23 267.43 161.23 265.79 162.78 265.79 162.78 262.71 164.88 261.44 164.88 265.79 167 265.79 167 267.43 164.88 267.43 164.88 274.71C164.88 275.31 164.92 275.7 164.99 275.87 165.07 276.04 165.19 276.18 165.35 276.28 165.52 276.38 165.76 276.43 166.08 276.43 166.2 276.43 166.33 276.43 166.48 276.41 166.63 276.39 166.81 276.38 167 276.35L167.3 278.21Z" fill="#231F20"/><path d="M168.72 272.01C168.72 269.71 169.36 268.01 170.64 266.89 171.7 265.97 173.01 265.51 174.55 265.51 176.25 265.51 177.65 266.07 178.75 267.2 179.84 268.31 180.38 269.86 180.38 271.84 180.38 273.43 180.14 274.7 179.65 275.63 179.17 276.55 178.47 277.26 177.55 277.76 176.63 278.27 175.63 278.52 174.55 278.52 172.81 278.52 171.4 277.96 170.32 276.84 169.25 275.72 168.71 274.11 168.71 272.01ZM170.89 272.01C170.89 273.6 171.24 274.79 171.93 275.6 172.63 276.39 173.5 276.78 174.55 276.78 175.6 276.78 176.47 276.38 177.16 275.58 177.86 274.78 178.2 273.56 178.2 271.94 178.2 270.4 177.85 269.24 177.15 268.45 176.45 267.65 175.59 267.25 174.55 267.25 173.51 267.25 172.62 267.64 171.93 268.43 171.24 269.22 170.89 270.41 170.89 272Z" fill="#231F20"/><path d="M193.54 274.5C193.19 275.78 192.55 276.77 191.63 277.47 190.71 278.17 189.52 278.52 188.07 278.52 186.25 278.52 184.8 277.96 183.73 276.84 182.67 275.72 182.14 274.15 182.14 272.12 182.14 270.09 182.68 268.41 183.76 267.24 184.84 266.08 186.24 265.51 187.96 265.51 189.68 265.51 190.98 266.08 192.04 267.21 193.09 268.35 193.62 269.94 193.62 271.99L193.62 272.22C193.62 272.31 193.62 272.42 193.61 272.55L184.33 272.55C184.41 273.92 184.79 274.96 185.49 275.69 186.18 276.42 187.04 276.78 188.09 276.78 188.86 276.78 189.52 276.58 190.07 276.17 190.62 275.76 191.05 275.12 191.37 274.22L193.55 274.49ZM191.38 270.82C191.29 269.78 191.02 269 190.58 268.46 189.91 267.65 189.04 267.24 187.97 267.24 187.01 267.24 186.19 267.56 185.52 268.21 184.86 268.86 184.5 269.73 184.43 270.81L191.38 270.81Z" fill="#231F20"/><path d="M197.36 274.19C197.48 275.03 197.8 275.68 198.33 276.12 198.86 276.56 199.61 276.78 200.58 276.78 201.55 276.78 202.26 276.58 202.74 276.19 203.21 275.79 203.44 275.33 203.44 274.8 203.44 274.32 203.23 273.95 202.82 273.68 202.53 273.5 201.81 273.26 200.66 272.97 199.12 272.59 198.05 272.25 197.44 271.96 196.85 271.67 196.39 271.28 196.08 270.78 195.78 270.28 195.62 269.72 195.62 269.1 195.62 268.54 195.74 268.02 196 267.55 196.26 267.08 196.6 266.69 197.04 266.38 197.2 266.26 197.4 266.15 197.63 266.05 197.86 265.95 198.11 265.85 198.38 265.77 198.65 265.69 198.94 265.63 199.25 265.58 199.56 265.53 199.88 265.51 200.21 265.51 201.19 265.51 202.05 265.65 202.79 265.93 203.53 266.21 204.07 266.59 204.42 267.08 204.78 267.57 205.02 268.21 205.15 269L203.09 269.28C203 268.64 202.73 268.14 202.28 267.78 201.83 267.42 201.2 267.24 200.37 267.24 199.4 267.24 198.71 267.4 198.3 267.72 197.89 268.04 197.68 268.42 197.68 268.84 197.68 269.11 197.77 269.36 197.94 269.58 198.11 269.81 198.38 269.99 198.75 270.14 198.86 270.18 199.07 270.24 199.38 270.33 199.69 270.42 200.1 270.54 200.62 270.68 202.12 271.08 203.16 271.41 203.74 271.66 204.32 271.9 204.78 272.27 205.13 272.76 205.47 273.24 205.63 273.84 205.63 274.56 205.63 275.28 205.42 275.93 205.01 276.55 204.6 277.17 204.01 277.66 203.24 277.99 202.47 278.32 201.6 278.49 200.62 278.49 199 278.49 197.77 278.15 196.92 277.48 196.07 276.81 195.53 275.81 195.3 274.49L197.39 274.16Z" fill="#231F20"/><path d="M52.55 326.23 52.55 309.05 60.17 309.05C61.71 309.05 62.87 309.21 63.66 309.52 64.46 309.82 65.09 310.37 65.57 311.15 66.05 311.93 66.28 312.79 66.28 313.74 66.28 314.96 65.89 315.99 65.1 316.82 64.3 317.66 63.08 318.2 61.44 318.41 62.05 318.71 62.51 318.99 62.81 319.27 63.15 319.57 63.47 319.92 63.78 320.3 64.09 320.68 64.4 321.1 64.69 321.56L67.68 326.24 64.82 326.24 62.55 322.67C62.05 321.88 61.62 321.24 61.26 320.76 60.9 320.28 60.58 319.89 60.29 319.61 60 319.33 59.74 319.12 59.49 318.99 59.24 318.86 58.98 318.76 58.71 318.69 58.47 318.64 58.05 318.61 57.44 318.61L54.8 318.61 54.8 326.24 52.53 326.24ZM54.82 316.63 59.71 316.63C60.23 316.63 60.68 316.6 61.09 316.55 61.5 316.5 61.85 316.42 62.15 316.3 62.45 316.18 62.71 316.05 62.93 315.88 63.15 315.71 63.33 315.51 63.49 315.28 63.79 314.8 63.95 314.29 63.95 313.73 63.95 312.92 63.65 312.25 63.06 311.73 62.48 311.21 61.55 310.94 60.27 310.94L54.83 310.94 54.83 316.62Z" fill="#231F20"/><path d="M80.51 322.5C80.16 323.78 79.52 324.77 78.6 325.47 77.68 326.17 76.49 326.52 75.04 326.52 73.22 326.52 71.77 325.96 70.7 324.84 69.64 323.72 69.11 322.15 69.11 320.12 69.11 318.09 69.65 316.41 70.73 315.24 71.81 314.08 73.21 313.51 74.93 313.51 76.65 313.51 77.95 314.08 79.01 315.21 80.06 316.35 80.59 317.94 80.59 319.99L80.59 320.22C80.59 320.31 80.59 320.42 80.58 320.55L71.3 320.55C71.38 321.92 71.76 322.96 72.46 323.69 73.15 324.42 74.01 324.78 75.06 324.78 75.83 324.78 76.49 324.58 77.04 324.17 77.59 323.76 78.02 323.12 78.34 322.22L80.52 322.49ZM78.35 318.82C78.26 317.78 77.99 317 77.55 316.46 76.88 315.65 76.01 315.24 74.94 315.24 73.98 315.24 73.16 315.56 72.49 316.21 71.83 316.86 71.47 317.73 71.4 318.81L78.35 318.81Z" fill="#231F20"/><path d="M91.17 326.23 91.17 324.66C90.38 325.89 89.22 326.51 87.69 326.51 86.69 326.51 85.78 326.24 84.95 325.69 84.11 325.14 83.47 324.38 83.02 323.4 82.57 322.42 82.34 321.29 82.34 320.01 82.34 318.73 82.55 317.65 82.96 316.63 83.37 315.61 83.99 314.84 84.82 314.3 85.65 313.76 86.57 313.49 87.6 313.49 88.36 313.49 89.03 313.65 89.6 313.96 90.17 314.27 90.65 314.69 91.03 315.2L91.03 309.04 93.13 309.04 93.13 326.22 91.17 326.22ZM84.5 320.02C84.5 321.61 84.84 322.81 85.51 323.59 86.18 324.37 86.97 324.77 87.89 324.77 88.81 324.77 89.59 324.39 90.23 323.65 90.88 322.88 91.2 321.73 91.2 320.19 91.2 318.49 90.87 317.24 90.22 316.44 89.57 315.64 88.76 315.24 87.79 315.24 86.82 315.24 86.07 315.62 85.43 316.39 84.81 317.16 84.49 318.36 84.49 320.01Z" fill="#231F20"/><path d="M104.69 331 104.69 313.79 106.61 313.79 106.61 315.41C107.06 314.78 107.57 314.3 108.15 313.99 108.73 313.68 109.41 313.52 110.22 313.52 111.29 313.52 112.23 313.79 113.03 314.33 113.83 314.87 114.45 315.65 114.87 316.66 115.28 317.67 115.49 318.76 115.49 319.93 115.49 321.2 115.26 322.34 114.8 323.38 114.35 324.4 113.68 325.18 112.81 325.72 111.94 326.26 111.03 326.53 110.07 326.53 109.36 326.53 108.73 326.38 108.17 326.08 107.61 325.78 107.16 325.41 106.8 324.96L106.8 331.02 104.69 331.02ZM106.6 320.08C106.6 321.68 106.92 322.87 107.57 323.63 108.22 324.39 109 324.78 109.93 324.78 110.86 324.78 111.66 324.39 112.33 323.6 113 322.8 113.34 321.56 113.34 319.91 113.34 318.26 113.01 317.14 112.36 316.35 111.71 315.56 110.93 315.17 110.03 315.17 109.13 315.17 108.33 315.59 107.64 316.44 106.95 317.27 106.61 318.49 106.61 320.1Z" fill="#231F20"/><path d="M128.47 322.5C128.12 323.78 127.48 324.77 126.56 325.47 125.64 326.17 124.45 326.52 123 326.52 121.18 326.52 119.73 325.96 118.66 324.84 117.6 323.72 117.07 322.15 117.07 320.12 117.07 318.09 117.61 316.41 118.69 315.24 119.77 314.08 121.17 313.51 122.89 313.51 124.61 313.51 125.91 314.08 126.97 315.21 128.02 316.35 128.55 317.94 128.55 319.99L128.55 320.22C128.55 320.31 128.55 320.42 128.54 320.55L119.26 320.55C119.34 321.92 119.72 322.96 120.42 323.69 121.11 324.42 121.97 324.78 123.02 324.78 123.79 324.78 124.45 324.58 125 324.17 125.55 323.76 125.98 323.12 126.3 322.22L128.48 322.49ZM126.31 318.82C126.22 317.78 125.95 317 125.51 316.46 124.84 315.65 123.97 315.24 122.9 315.24 121.94 315.24 121.12 315.56 120.45 316.21 119.79 316.86 119.43 317.73 119.36 318.81L126.31 318.81Z" fill="#231F20"/><path d="M131.05 331 131.05 313.79 132.97 313.79 132.97 315.41C133.42 314.78 133.93 314.3 134.51 313.99 135.09 313.68 135.77 313.52 136.58 313.52 137.65 313.52 138.59 313.79 139.39 314.33 140.19 314.87 140.81 315.65 141.23 316.66 141.64 317.67 141.85 318.76 141.85 319.93 141.85 321.2 141.62 322.34 141.16 323.38 140.71 324.4 140.04 325.18 139.17 325.72 138.3 326.26 137.39 326.53 136.43 326.53 135.72 326.53 135.09 326.38 134.53 326.08 133.97 325.78 133.52 325.41 133.16 324.96L133.16 331.02 131.05 331.02ZM132.96 320.08C132.96 321.68 133.28 322.87 133.93 323.63 134.58 324.39 135.36 324.78 136.29 324.78 137.22 324.78 138.02 324.39 138.69 323.6 139.36 322.8 139.7 321.56 139.7 319.91 139.7 318.26 139.37 317.14 138.72 316.35 138.07 315.56 137.29 315.17 136.39 315.17 135.49 315.17 134.69 315.59 134 316.44 133.31 317.27 132.97 318.49 132.97 320.1Z" fill="#231F20"/><path d="M144.12 331 144.12 313.79 146.04 313.79 146.04 315.41C146.49 314.78 147 314.3 147.58 313.99 148.16 313.68 148.84 313.52 149.65 313.52 150.72 313.52 151.66 313.79 152.46 314.33 153.26 314.87 153.88 315.65 154.3 316.66 154.71 317.67 154.92 318.76 154.92 319.93 154.92 321.2 154.69 322.34 154.23 323.38 153.78 324.4 153.11 325.18 152.24 325.72 151.37 326.26 150.46 326.53 149.5 326.53 148.79 326.53 148.16 326.38 147.6 326.08 147.04 325.78 146.59 325.41 146.23 324.96L146.23 331.02 144.12 331.02ZM146.03 320.08C146.03 321.68 146.35 322.87 147 323.63 147.65 324.39 148.43 324.78 149.36 324.78 150.29 324.78 151.09 324.39 151.76 323.6 152.43 322.8 152.77 321.56 152.77 319.91 152.77 318.26 152.44 317.14 151.79 316.35 151.14 315.56 150.36 315.17 149.46 315.17 148.56 315.17 147.76 315.59 147.07 316.44 146.38 317.27 146.04 318.49 146.04 320.1Z" fill="#231F20"/><path d="M167.9 322.5C167.55 323.78 166.91 324.77 165.99 325.47 165.07 326.17 163.88 326.52 162.43 326.52 160.61 326.52 159.16 325.96 158.09 324.84 157.03 323.72 156.5 322.15 156.5 320.12 156.5 318.09 157.04 316.41 158.12 315.24 159.2 314.08 160.6 313.51 162.32 313.51 164.04 313.51 165.34 314.08 166.4 315.21 167.45 316.35 167.98 317.94 167.98 319.99L167.98 320.22C167.98 320.31 167.98 320.42 167.97 320.55L158.69 320.55C158.77 321.92 159.15 322.96 159.85 323.69 160.54 324.42 161.4 324.78 162.45 324.78 163.22 324.78 163.88 324.58 164.43 324.17 164.98 323.76 165.41 323.12 165.73 322.22L167.91 322.49ZM165.74 318.82C165.65 317.78 165.38 317 164.94 316.46 164.27 315.65 163.4 315.24 162.33 315.24 161.37 315.24 160.55 315.56 159.88 316.21 159.22 316.86 158.86 317.73 158.79 318.81L165.74 318.81Z" fill="#231F20"/><path d="M170.46 326.23 170.46 313.78 172.36 313.78 172.36 315.67C172.84 314.79 173.29 314.21 173.7 313.92 174.11 313.63 174.56 313.5 175.06 313.5 175.77 313.5 176.49 313.73 177.23 314.18L176.5 316.14C175.98 315.84 175.47 315.68 174.95 315.68 174.48 315.68 174.07 315.82 173.7 316.1 173.33 316.38 173.08 316.76 172.92 317.25 172.69 318 172.57 318.82 172.57 319.71L172.57 326.23 170.46 326.23Z" fill="#231F20"/><path d="M52.9 374.23 52.9 357.05 55.17 357.05 55.17 374.23 52.9 374.23Z" fill="#231F20"/><path d="M58.27 374.23 58.27 361.78 60.17 361.78 60.17 363.55C61.08 362.18 62.4 361.5 64.13 361.5 64.87 361.5 65.56 361.64 66.19 361.91 66.81 362.18 67.29 362.53 67.61 362.96 67.77 363.18 67.9 363.42 68.01 363.68 68.12 363.94 68.21 364.22 68.27 364.52 68.31 364.72 68.34 364.98 68.36 365.32 68.38 365.66 68.39 366.08 68.39 366.57L68.39 374.22 66.28 374.22 66.28 366.65C66.28 365.79 66.2 365.15 66.03 364.73 65.87 364.3 65.57 363.96 65.15 363.71 64.74 363.45 64.25 363.32 63.69 363.32 62.78 363.32 62.01 363.61 61.36 364.18 60.71 364.76 60.39 365.84 60.39 367.43L60.39 374.23 58.28 374.23Z" fill="#231F20"/><path d="M78.91 374.23 78.91 372.66C78.12 373.89 76.96 374.51 75.43 374.51 74.43 374.51 73.52 374.24 72.69 373.69 71.85 373.14 71.21 372.38 70.76 371.4 70.31 370.42 70.08 369.29 70.08 368.01 70.08 366.73 70.29 365.65 70.7 364.63 71.11 363.61 71.73 362.84 72.56 362.3 73.39 361.76 74.31 361.49 75.34 361.49 76.1 361.49 76.77 361.65 77.34 361.96 77.91 362.27 78.39 362.69 78.77 363.2L78.77 357.04 80.87 357.04 80.87 374.22 78.91 374.22ZM72.24 368.02C72.24 369.61 72.58 370.81 73.25 371.59 73.92 372.37 74.71 372.77 75.63 372.77 76.55 372.77 77.33 372.39 77.97 371.65 78.62 370.88 78.94 369.73 78.94 368.19 78.94 366.49 78.61 365.24 77.96 364.44 77.31 363.64 76.5 363.24 75.53 363.24 74.56 363.24 73.81 363.62 73.17 364.39 72.55 365.16 72.23 366.36 72.23 368.01Z" fill="#231F20"/><path d="M83.41 359.48 83.41 357.05 85.52 357.05 85.52 359.48 83.41 359.48ZM83.41 374.23 83.41 361.78 85.52 361.78 85.52 374.23 83.41 374.23Z" fill="#231F20"/><path d="M96.52 372.7C95.73 373.37 94.98 373.84 94.26 374.11 93.53 374.38 92.76 374.52 91.94 374.52 90.57 374.52 89.52 374.19 88.79 373.52 88.06 372.85 87.69 372 87.69 370.95 87.69 370.48 87.77 370.05 87.93 369.66 88.09 369.27 88.31 368.92 88.58 368.62 88.85 368.32 89.17 368.06 89.54 367.85 89.91 367.64 90.3 367.48 90.71 367.38 91.12 367.28 91.74 367.17 92.59 367.06 94.27 366.86 95.52 366.62 96.35 366.33 96.35 366.18 96.36 366.06 96.36 365.97L96.36 365.78C96.36 364.92 96.16 364.32 95.76 363.96 95.23 363.48 94.43 363.25 93.36 363.25 92.37 363.25 91.63 363.43 91.16 363.78 90.69 364.12 90.34 364.74 90.12 365.62L88.06 365.34C88.25 364.46 88.56 363.74 88.99 363.2 89.42 362.66 90.04 362.24 90.85 361.95 91.67 361.65 92.61 361.5 93.67 361.5 94.73 361.5 95.6 361.62 96.26 361.88 96.92 362.14 97.41 362.45 97.72 362.83 98.02 363.19 98.24 363.67 98.38 364.26 98.45 364.63 98.49 365.28 98.49 366.21L98.49 369.02C98.49 370 98.5 370.81 98.53 371.42 98.56 372.03 98.58 372.48 98.62 372.74 98.71 373.26 98.89 373.76 99.16 374.23L96.96 374.23C96.74 373.8 96.6 373.29 96.54 372.69ZM96.34 367.99C95.96 368.15 95.48 368.29 94.91 368.42 94.34 368.55 93.67 368.67 92.89 368.78 92.03 368.9 91.42 369.05 91.05 369.2 90.7 369.35 90.42 369.58 90.22 369.89 90.02 370.18 89.93 370.51 89.93 370.89 89.93 371.17 89.98 371.43 90.09 371.68 90.2 371.93 90.35 372.13 90.56 372.31 90.77 372.49 91.03 372.62 91.35 372.72 91.67 372.82 92.03 372.87 92.44 372.87 92.85 372.87 93.23 372.82 93.6 372.73 93.97 372.64 94.3 372.5 94.61 372.33 94.92 372.16 95.19 371.95 95.42 371.7 95.65 371.45 95.85 371.18 96 370.87 96.23 370.38 96.34 369.67 96.34 368.76L96.34 367.99Z" fill="#231F20"/><path d="M101.48 374.23 101.48 361.78 103.38 361.78 103.38 363.55C104.29 362.18 105.61 361.5 107.34 361.5 108.08 361.5 108.77 361.64 109.4 361.91 110.02 362.18 110.5 362.53 110.82 362.96 110.98 363.18 111.11 363.42 111.22 363.68 111.33 363.94 111.42 364.22 111.48 364.52 111.52 364.72 111.55 364.98 111.57 365.32 111.59 365.66 111.6 366.08 111.6 366.57L111.6 374.22 109.49 374.22 109.49 366.65C109.49 365.79 109.41 365.15 109.24 364.73 109.08 364.3 108.78 363.96 108.36 363.71 107.95 363.45 107.46 363.32 106.9 363.32 105.99 363.32 105.22 363.61 104.57 364.18 103.92 364.76 103.6 365.84 103.6 367.43L103.6 374.23 101.49 374.23Z" fill="#231F20"/><path d="M123.05 374.23 123.05 361.78 124.95 361.78 124.95 363.67C125.43 362.79 125.88 362.21 126.29 361.92 126.7 361.63 127.15 361.5 127.65 361.5 128.36 361.5 129.08 361.73 129.82 362.18L129.09 364.14C128.57 363.84 128.06 363.68 127.54 363.68 127.07 363.68 126.66 363.82 126.29 364.1 125.92 364.38 125.67 364.76 125.51 365.25 125.28 366 125.16 366.82 125.16 367.71L125.16 374.23 123.05 374.23Z" fill="#231F20"/><path d="M132.38 359.48 132.38 357.05 134.49 357.05 134.49 359.48 132.38 359.48ZM132.38 374.23 132.38 361.78 134.49 361.78 134.49 374.23 132.38 374.23Z" fill="#231F20"/><path d="M147.57 369.95C147.34 371.38 146.76 372.5 145.82 373.31 144.9 374.11 143.75 374.52 142.39 374.52 140.69 374.52 139.32 373.97 138.28 372.86 137.25 371.75 136.73 370.15 136.73 368.07 136.73 366.73 136.95 365.55 137.4 364.54 137.85 363.53 138.52 362.78 139.43 362.28 140.35 361.77 141.34 361.52 142.41 361.52 143.77 361.52 144.88 361.86 145.73 362.54 146.58 363.22 147.13 364.19 147.38 365.46L145.33 365.78C145.13 364.94 144.79 364.31 144.3 363.89 143.81 363.47 143.21 363.26 142.5 363.26 141.45 363.26 140.58 363.64 139.91 364.41 139.25 365.17 138.91 366.37 138.91 368.02 138.91 369.67 139.23 370.91 139.87 371.66 140.51 372.41 141.35 372.8 142.38 372.8 143.21 372.8 143.9 372.55 144.45 372.04 145 371.53 145.36 370.75 145.5 369.7L147.57 369.97Z" fill="#231F20"/><path d="M160.39 370.5C160.04 371.78 159.4 372.77 158.48 373.47 157.56 374.17 156.37 374.52 154.92 374.52 153.1 374.52 151.65 373.96 150.58 372.84 149.52 371.72 148.99 370.15 148.99 368.12 148.99 366.09 149.53 364.41 150.61 363.24 151.69 362.08 153.09 361.51 154.81 361.51 156.53 361.51 157.83 362.08 158.89 363.21 159.94 364.35 160.47 365.94 160.47 367.99L160.47 368.22C160.47 368.31 160.47 368.42 160.46 368.55L151.18 368.55C151.26 369.92 151.64 370.96 152.34 371.69 153.03 372.42 153.89 372.78 154.94 372.78 155.71 372.78 156.37 372.58 156.92 372.17 157.47 371.76 157.9 371.12 158.22 370.22L160.4 370.49ZM158.23 366.82C158.14 365.78 157.87 365 157.43 364.46 156.76 363.65 155.89 363.24 154.82 363.24 153.86 363.24 153.04 363.56 152.37 364.21 151.71 364.86 151.35 365.73 151.28 366.81L158.23 366.81Z" fill="#231F20"/></g><g><path d="M172.95 426.73C173.42 424.17 173.63 422.66 173.74 421.69 173.85 420.61 174.71 419.6 176.26 419.64L176.84 419.64C177.74 419.64 178.89 419.6 179.97 419.57L180.29 419.57C181.05 419.53 182.13 419.5 182.52 419.5 186.7 419.5 190.19 420.76 190.19 425.22 190.19 426.95 189.47 435.08 178.02 435.08L176.4 435.08C176 437.24 175.64 439.4 175.25 441.59 175.25 441.66 175.21 441.73 175.21 441.81 175.21 441.85 175.21 441.88 175.14 442.03L175.18 441.99C175.14 442.31 175.11 442.6 175.07 442.85 174.89 443.97 173.77 444.9 172.23 444.9L171.62 444.9C170.32 444.9 169.39 443.93 169.64 442.96 170.14 441.45 170.54 439.54 170.86 437.88 170.9 437.74 170.93 437.56 170.97 437.41L172.95 426.72ZM176.8 432.31 177.45 432.31C179.11 432.31 180.69 432.06 181.88 431.55L181.84 431.55C184.32 430.25 184.86 426.83 184.86 425.43 184.86 421.9 182.02 421.9 180.47 421.9L180.07 421.9C179.89 421.9 179.67 421.94 179.42 421.94L179.1 421.94C178.99 421.94 179.17 421.98 178.88 421.98 178.52 423.49 178.34 424.46 178.2 425.15 178.2 425.22 178.16 425.26 178.16 425.33 178.12 425.51 178.09 425.65 178.05 425.83 177.98 426.12 177.91 426.41 177.83 426.77L176.79 432.31Z" fill="#231F20"/><path d="M191.24 431.59C191.6 429.65 191.71 428.46 191.67 427.63 191.6 426.73 192.21 425.83 193.47 425.65 193.83 425.61 194.15 425.58 194.41 425.54L194.37 425.54C195.67 425.29 196.89 426.01 196.82 426.87 196.78 426.98 196.78 427.34 196.71 427.59 196.67 427.77 196.6 427.88 196.57 428.06 197.15 427.3 197.83 426.58 198.66 426.01 199.27 425.61 200.03 425.29 200.75 425.04 202.08 424.64 203.16 425.65 202.84 426.66 202.52 427.6 201.15 428.24 199.78 428.57L199.82 428.57C198.45 428.93 196.62 430.44 195.64 434.01 195.1 435.88 194.27 440.6 194.09 442.94 193.98 444.02 192.79 444.88 191.39 444.85L191.21 444.85C189.95 444.85 188.8 444.02 189.05 443.05 189.23 442.44 189.41 441.79 189.48 441.32L191.24 431.6Z" fill="#231F20"/><path d="M207.08 436.13C206.43 439.73 206.14 441.85 206.04 443.08 205.97 444.12 204.67 444.84 203.3 444.84L203.01 444.84C201.86 444.88 200.96 443.87 201.07 442.97 201.07 442.93 201.11 442.86 201.11 442.79 201.29 442.03 201.54 441.03 201.79 439.55L202.4 436.02C203.26 431.27 203.59 428.93 203.55 427.63 203.51 426.77 203.91 425.72 205.28 425.65 205.78 425.58 206.14 425.51 206.54 425.43 207.76 425.18 208.81 426.08 208.74 427.01 208.7 427.15 208.67 427.41 208.67 427.59 208.53 428.24 208.35 429.1 208.13 430.29L207.09 436.12ZM209.96 420.33C209.96 421.52 208.88 423.35 206.79 423.35 205.57 423.35 204.31 422.77 204.31 421.44 204.31 420.32 205.32 418.49 207.55 418.49 208.81 418.49 209.96 419.1 209.96 420.32Z" fill="#231F20"/><path d="M224.72 425.15C225.84 425.4 226.2 426.45 225.91 427.17 225.69 427.75 225.05 427.96 224.25 427.96 223.78 427.96 223.39 427.89 223.1 427.74L223.14 427.74C222.71 427.6 222.24 427.49 221.7 427.49 217.31 427.49 214.72 432.31 214.72 437.21 214.72 438.97 215.01 441.13 216.63 442.14 217.57 442.75 218.47 442.97 219.33 442.97 220.12 442.97 220.81 442.83 221.49 442.57 222.53 442.28 223.29 443 223.04 443.72 222.72 444.55 221.64 445.16 220.45 445.34 219.91 445.41 219.23 445.45 218.58 445.45 212.89 445.45 209.44 442.35 209.44 437.46 209.44 431.84 213.54 424.9 222.25 424.9 223.33 424.9 224.12 425.01 224.73 425.15Z" fill="#231F20"/><path d="M233.21 442.97C234.51 442.97 235.59 442.61 236.45 442.25 237.35 441.85 238.43 442.39 238.21 443.19 237.96 443.98 237.2 444.77 235.91 445.13 235.01 445.31 233.89 445.49 232.38 445.49 226.12 445.31 224.57 441.96 224.5 437.46 224.5 433.61 226.44 430.37 227.67 428.89 230.15 425.79 233.68 424.79 236.27 424.79 240.12 424.79 242.07 426.7 242.07 429.18 242.07 430.19 241.57 431.59 240.77 432.82 239.91 434.12 238.32 435.16 237.06 435.77 234.79 436.92 232.38 437.07 229.64 437.17 229.6 437.31 229.57 437.78 229.57 438.47 229.57 440.2 230.07 443.01 233.21 442.97ZM229.79 436.17C231.77 435.88 233.86 434.59 235.66 432.89 236.49 432.06 237.14 430.8 237.14 429.33 237.14 427.86 236.38 427.06 235.48 427.06 234.94 427.06 233.72 427.31 232.17 429.11 231.05 430.44 230.08 433.18 229.79 436.17Z" fill="#231F20"/><path d="M246.21 440.59C247.69 440.59 248.69 441.38 248.69 442.5 248.69 443.9 247.14 445.34 245.38 445.34 244.3 445.34 242.82 444.87 242.82 443.4 242.82 441.74 244.73 440.59 246.2 440.59ZM248.98 425.22C250.42 425.22 251.43 426.01 251.43 427.16 251.43 428.56 249.92 429.97 248.15 429.97 247.07 429.97 245.56 429.43 245.56 428.03 245.56 426.37 247.5 425.22 248.98 425.22Z" fill="#231F20"/><path d="M267.34 431.12C268.38 430.4 269.86 429.39 272.06 429.39 276.56 429.39 278.86 432.16 278.86 435.55 278.86 438.03 277.71 440.95 274.47 443.29 272.06 445.09 269.18 445.49 266.23 445.49 264.61 445.49 263.46 445.31 262.45 445.06 261.19 444.74 260.61 443.62 260.87 442.72 261.09 442.11 261.81 441.78 262.63 441.78 263.1 441.78 263.6 441.89 264.07 442.14 264.36 442.32 264.61 442.43 264.83 442.5 265.87 442.82 266.63 442.86 267.21 442.86 271.96 442.86 273.47 438.79 273.47 436.13 273.47 433.32 271.63 432.39 269.4 432.39 268 432.39 266.77 432.71 265.62 433.15 264.43 433.69 262.92 433.01 263.14 431.96 264 428.4 264.62 425.3 265.23 421.41 265.45 420.22 266.85 419.47 268.43 419.5 268.61 419.5 268.83 419.54 269.01 419.54 269.23 419.54 269.44 419.54 269.62 419.58L269.58 419.58C269.9 419.62 270.26 419.65 270.52 419.65 271.89 419.69 273.22 419.72 274.34 419.72 275.82 419.72 277.33 419.72 278.66 419.58L278.59 419.58C278.7 419.54 278.84 419.54 279.02 419.54L278.98 419.54C280.31 419.43 281.64 420.19 281.25 421.12 281.11 421.44 280.82 421.88 280.28 422.45 279.2 423.46 277.69 423.6 274.02 423.6 272.04 423.6 270.78 423.6 268.8 423.46L267.36 431.13Z" fill="#231F20"/><path d="M287.57 431.12C288.61 430.4 290.09 429.39 292.29 429.39 296.79 429.39 299.09 432.16 299.09 435.55 299.09 438.03 297.94 440.95 294.7 443.29 292.29 445.09 289.41 445.49 286.46 445.49 284.84 445.49 283.69 445.31 282.68 445.06 281.42 444.74 280.85 443.62 281.1 442.72 281.32 442.11 282.04 441.78 282.86 441.78 283.33 441.78 283.83 441.89 284.3 442.14 284.59 442.32 284.84 442.43 285.06 442.5 286.1 442.82 286.86 442.86 287.44 442.86 292.19 442.86 293.7 438.79 293.7 436.13 293.7 433.32 291.86 432.39 289.63 432.39 288.23 432.39 287 432.71 285.85 433.15 284.66 433.69 283.15 433.01 283.37 431.96 284.23 428.4 284.85 425.3 285.46 421.41 285.68 420.22 287.08 419.47 288.66 419.5 288.84 419.5 289.06 419.54 289.24 419.54 289.46 419.54 289.67 419.54 289.85 419.58L289.81 419.58C290.13 419.62 290.49 419.65 290.75 419.65 292.12 419.69 293.45 419.72 294.57 419.72 296.05 419.72 297.56 419.72 298.89 419.58L298.82 419.58C298.93 419.54 299.07 419.54 299.25 419.54L299.21 419.54C300.54 419.43 301.87 420.19 301.48 421.12 301.34 421.44 301.05 421.88 300.51 422.45 299.43 423.46 297.92 423.6 294.25 423.6 292.27 423.6 291.01 423.6 289.03 423.46L287.59 431.13Z" fill="#231F20"/><path d="M327.93 421.91C327.68 422.56 326.96 422.88 326.09 422.88 325.62 422.88 325.19 422.81 324.87 422.63 323.93 422.16 322.93 421.98 321.95 421.91 321.81 422.34 321.59 422.88 321.41 423.35 321.23 423.89 321.09 424.39 320.91 424.9 320.69 425.33 320.08 425.55 319.54 425.55 318.89 425.55 318.28 425.23 318.35 424.65 318.39 424.22 318.42 423.82 318.46 423.43 318.5 423.07 318.53 422.89 318.53 422.53 317.45 423.03 316.05 424.22 316.05 426.49 316.05 428.76 317.49 429.44 318.43 429.95 318.61 430.06 318.75 430.17 318.9 430.24 322.28 431.97 325.16 433.7 325.16 437.12 325.16 438.99 324.15 441.04 322.6 442.52 320.98 443.92 318.93 444.68 317.2 445.11 317.13 445.51 317.06 445.94 316.98 446.33 316.91 446.73 316.8 447.09 316.73 447.45L316.73 447.59 316.69 447.7C316.62 448.35 315.79 448.89 314.71 448.89 313.99 448.89 313.27 448.31 313.23 447.88 313.27 447.84 313.34 447.77 313.41 447.63L313.37 447.63 313.37 447.27C313.44 446.98 313.48 446.69 313.55 446.37 313.62 446.05 313.73 445.83 313.73 445.51L313.23 445.51C311.18 445.51 309.85 445.37 308.73 445.01 307.58 444.58 307.07 443.21 307.47 442.27 307.76 441.66 308.44 441.37 309.27 441.37 309.74 441.37 310.31 441.51 310.67 441.69 311.53 442.12 312.83 442.45 314.31 442.48 314.45 442.05 314.63 441.58 314.81 441.11 314.99 440.61 315.13 440.14 315.28 439.71 315.46 439.17 316.04 438.95 316.61 438.95 317.29 438.95 317.98 439.31 317.91 439.99 317.91 440.31 317.87 440.71 317.84 441.03 317.84 441.21 317.84 441.5 317.8 441.82 318.3 441.57 318.81 441.21 319.49 440.34 319.96 439.76 320.17 438.9 320.17 437.93 320.31 435.81 318.59 434.94 317.61 434.47 317.54 434.43 317.36 434.36 317.36 434.36 314.8 433.03 311.06 431.01 311.06 427.52 311.06 426.76 311.17 426.01 311.38 425.29 311.81 423.85 312.96 422.48 314.3 421.33 315.78 420.07 317.32 419.6 319.09 419.24 319.34 418.27 319.45 417.73 319.52 417.04 319.59 416.39 320.53 415.92 321.46 415.92 322.39 415.92 323.12 416.53 322.97 417.11 323.22 416.61 322.83 417.83 322.72 418.3 322.68 418.44 322.61 418.95 322.61 418.95 324.27 419.02 324.99 419.13 326.17 419.45 327.43 419.77 328.22 420.93 327.9 421.9Z" fill="#231F20"/></g><circle cx="32.27" cy="179.4" r="6.27" fill="#231F20"/><circle cx="32.27" cy="226.38" r="6.27" fill="#231F20"/><circle cx="32.27" cy="273.37" r="6.27" fill="#231F20"/><circle cx="32.27" cy="320.36" r="6.27" fill="#231F20"/><circle cx="32.27" cy="367.35" r="6.27" fill="#231F20"/><rect x="23.48" y="439.4" width="135.28" height="4.04" fill="#606161"/><g><path d="M43.1 72.55C45.12 72.62 46.95 72.62 49.11 72.62 50.87 72.62 51.88 72.62 53.11 72.55 53.33 71.4 53.54 70.17 53.76 68.99 53.98 67.8 54.19 66.4 54.41 65.28 54.55 64.7 54.55 64.6 54.59 64.42L54.59 64.13C54.7 63.09 55.92 62.19 57.33 62.11 57.37 62.11 57.47 62.15 57.51 62.15 57.55 62.15 57.58 62.15 57.69 62.11 59.02 62.11 60.03 62.94 59.81 63.8 59.74 64.09 59.63 64.48 59.52 64.92 59.45 65.28 59.34 65.68 59.23 66.11 59.23 66.15 59.19 66.29 59.12 66.4 59.08 66.51 59.08 66.69 59.05 66.76L59.09 66.72C58.12 71.87 57.15 77.12 56.21 82.27 55.96 83.64 55.81 84.68 55.74 85.4 55.63 86.48 54.48 87.34 53 87.31L52.32 87.31C51.1 87.35 50.2 86.37 50.48 85.47 50.7 84.82 50.91 83.81 51.24 82.12L52.57 75.46 52.32 75.46C50.92 75.42 49.15 75.39 46.81 75.39 44.76 75.39 43.86 75.43 42.53 75.46 42.39 76.43 42.24 77.48 42.06 78.45 41.88 79.49 41.7 80.5 41.52 81.55 41.2 83.28 41.05 84.39 40.94 85.26 40.8 86.45 39.5 87.35 37.95 87.35L37.66 87.35C36.36 87.39 35.25 86.45 35.57 85.44 35.75 84.97 35.97 84.04 36.25 82.49 36.32 82.17 36.39 81.81 36.47 81.45 36.94 78.93 37.41 76.3 37.91 73.75 38.38 71.19 38.85 68.6 39.31 66.08 39.45 65.29 39.56 64.53 39.6 64.06 39.71 63.02 40.79 62.12 42.26 62.15L42.44 62.15C42.44 62.15 42.51 62.19 42.62 62.19 42.66 62.19 42.69 62.19 42.8 62.15 44.17 62.15 45.1 63.16 44.85 64.02 44.67 64.67 44.53 65.42 44.35 66.43 44.31 66.61 44.24 66.79 44.21 67.01 44.1 67.23 44.1 67.44 44.1 67.55L43.09 72.55Z" fill="#231F20"/><path d="M77.09 69.24C78.96 71.11 79.03 73.2 79.03 74.21 79.03 79.83 75.39 87.92 67.15 87.92 65.06 87.92 63.01 87.34 61.61 86.09 60.75 85.26 59.38 83.68 59.38 80.51 59.38 74.72 63.23 67.37 71.33 67.37 73.89 67.37 75.9 67.98 77.09 69.24ZM72.99 70.75C72.56 70.35 71.84 69.81 70.79 69.81 65.64 69.81 64.38 78.13 64.38 80.93 64.38 84.31 65.82 85.5 67.48 85.5 73.17 85.5 73.96 75.78 73.96 74.05 73.96 73.15 73.92 71.6 72.99 70.74Z" fill="#231F20"/><path d="M81.62 74.67C81.87 73.19 82.16 71.39 82.16 70.03L82.16 69.81C82.12 68.98 82.63 68.05 83.89 67.9 84.25 67.86 84.54 67.83 84.9 67.76 84.94 67.76 85.04 67.72 85.08 67.72 86.23 67.58 87.46 68.33 87.35 69.2 87.28 69.63 87.46 68.88 87.28 69.78 87.46 69.56 87.71 69.31 87.96 69.1 89.4 67.98 91.31 67.3 93.4 67.3 95.67 67.3 98.73 68.09 98.73 71.12 98.73 71.77 98.62 72.56 98.33 74.22 98.19 74.98 98.04 75.91 97.9 76.74 97.76 77.6 97.58 78.4 97.43 79.22 97.14 80.77 96.64 83.68 96.53 85.48 96.46 86.56 95.2 87.35 93.79 87.35L93.47 87.35C92.28 87.39 91.2 86.56 91.45 85.66 91.81 84.51 92.21 82.78 92.75 79.33L93.18 76.95C93.5 75.19 93.72 73.78 93.72 72.74 93.72 71.01 93.18 70.29 91.6 70.29 90.23 70.29 88.58 71.41 87.53 72.7 86.41 74.14 85.98 76.8 85.66 78.75L85.01 82.96C84.83 84.08 84.76 84.87 84.72 85.55 84.65 86.59 83.35 87.31 81.98 87.31L81.69 87.31C80.47 87.35 79.42 86.48 79.6 85.65 79.96 84.35 80.21 83.02 80.46 81.4L81.61 74.67Z" fill="#231F20"/><path d="M108.73 85.47C110.03 85.47 111.11 85.11 111.97 84.75 112.87 84.35 113.95 84.89 113.73 85.69 113.48 86.48 112.72 87.27 111.43 87.63 110.53 87.81 109.41 87.99 107.9 87.99 101.64 87.81 100.09 84.46 100.02 79.96 100.02 76.11 101.96 72.87 103.19 71.39 105.67 68.29 109.2 67.29 111.79 67.29 115.64 67.29 117.59 69.2 117.59 71.68 117.59 72.69 117.09 74.09 116.29 75.32 115.43 76.62 113.84 77.66 112.58 78.27 110.31 79.42 107.9 79.57 105.16 79.67 105.12 79.81 105.09 80.28 105.09 80.97 105.09 82.7 105.59 85.51 108.73 85.47ZM105.31 78.67C107.29 78.38 109.38 77.09 111.18 75.39 112.01 74.56 112.66 73.3 112.66 71.83 112.66 70.36 111.9 69.56 111 69.56 110.46 69.56 109.24 69.81 107.69 71.61 106.57 72.94 105.6 75.68 105.31 78.67Z" fill="#231F20"/><path d="M123.24 87.56C122.09 87.27 121.04 86.66 120.97 85.69 120.61 81.55 120.32 79.64 119.49 75 119.02 72.26 118.63 70.68 118.37 69.67L118.37 69.71C118.08 68.74 119.13 67.91 120.31 67.95L121.07 67.95C122.58 67.91 123.7 68.89 123.81 70 123.85 70.76 123.95 71.94 124.17 73.46 124.6 76.77 125.03 79.47 125.5 82.85 125.75 82.31 125.97 81.73 126.18 81.16 128.66 75.29 129.89 71.98 130.5 69.93 130.86 68.71 132.12 67.81 133.78 67.91L134.03 67.91C135.11 67.91 135.94 68.85 135.51 69.57 135.4 69.75 135.33 69.89 135.22 70.11 134.36 71.73 133.42 73.85 132.81 75.29L126.98 88.1C124.96 91.92 122.66 95.8 117.26 96.63 116 96.63 114.78 95.84 114.99 95.01 115.39 93.86 116.65 93.28 117.94 93.21 120.03 93.07 121.58 90.65 122.3 89.29L123.24 87.56Z" fill="#231F20"/><path d="M158.16 67.65C159.28 67.9 159.64 68.95 159.35 69.67 159.13 70.25 158.49 70.46 157.69 70.46 157.22 70.46 156.83 70.39 156.54 70.24L156.58 70.24C156.15 70.1 155.68 69.99 155.14 69.99 150.75 69.99 148.16 74.81 148.16 79.71 148.16 81.47 148.45 83.63 150.07 84.64 151.01 85.25 151.91 85.47 152.77 85.47 153.56 85.47 154.25 85.33 154.93 85.07 155.97 84.78 156.73 85.5 156.48 86.22 156.16 87.05 155.08 87.66 153.89 87.84 153.35 87.91 152.67 87.95 152.02 87.95 146.33 87.95 142.88 84.85 142.88 79.96 142.88 74.34 146.98 67.4 155.69 67.4 156.77 67.4 157.56 67.51 158.17 67.65Z" fill="#231F20"/><path d="M160.57 70.75C161.29 66.93 161.58 65.03 161.54 63.95 161.5 63.12 161.9 62.19 163.2 62.04 163.56 62 163.96 61.97 164.32 61.9 165.62 61.72 166.98 62.44 166.77 63.41 166.55 64.45 166.37 65.35 166.01 67.12 165.83 68.13 165.61 69.17 165.43 70.22 165.403 70.2933 165.403 70.3067 165.43 70.26 165.93 69.58 166.51 69 167.34 68.5 168.89 67.49 170.47 67.31 171.62 67.31 174.28 67.31 176.84 68.43 176.84 71.31 176.84 72.07 176.7 73 176.41 74.84L175.01 82.87C174.87 83.77 174.76 84.85 174.69 85.5 174.62 86.58 173.39 87.41 171.88 87.41 170.62 87.41 169.5 86.51 169.72 85.57 169.9 84.89 170.12 83.88 170.33 82.65 170.76 80.02 171.23 77.14 171.7 74.52 171.81 73.91 171.92 73.19 171.92 72.65 171.92 71.32 171.49 70.31 170.01 70.31 168.79 70.31 167.45 70.99 166.37 72.15 165.83 72.73 164.82 74.63 164.03 77.87 163.81 78.81 162.99 83.12 162.66 85.39 162.48 86.58 161.22 87.44 159.64 87.44 158.42 87.44 157.44 86.54 157.73 85.64 157.91 84.96 158.27 83.3 158.74 80.78L160.58 70.77Z" fill="#231F20"/><path d="M184.01 78.63C183.36 82.23 183.07 84.35 182.97 85.58 182.9 86.62 181.6 87.34 180.23 87.34L179.94 87.34C178.79 87.38 177.89 86.37 178 85.47 178 85.43 178.04 85.36 178.04 85.29 178.22 84.53 178.47 83.53 178.72 82.05L179.33 78.52C180.19 73.77 180.52 71.43 180.48 70.13 180.44 69.27 180.84 68.22 182.21 68.15 182.71 68.08 183.07 68.01 183.47 67.93 184.69 67.68 185.74 68.58 185.67 69.51 185.63 69.65 185.6 69.91 185.6 70.09 185.46 70.74 185.28 71.6 185.06 72.79L184.02 78.62ZM186.89 62.83C186.89 64.02 185.81 65.85 183.72 65.85 182.5 65.85 181.24 65.27 181.24 63.94 181.24 62.82 182.25 60.99 184.48 60.99 185.74 60.99 186.89 61.6 186.89 62.82Z" fill="#231F20"/><path d="M201.65 67.65C202.77 67.9 203.13 68.95 202.84 69.67 202.62 70.25 201.98 70.46 201.18 70.46 200.71 70.46 200.32 70.39 200.03 70.24L200.07 70.24C199.64 70.1 199.17 69.99 198.63 69.99 194.24 69.99 191.65 74.81 191.65 79.71 191.65 81.47 191.94 83.63 193.56 84.64 194.5 85.25 195.4 85.47 196.26 85.47 197.05 85.47 197.74 85.33 198.42 85.07 199.46 84.78 200.22 85.5 199.97 86.22 199.65 87.05 198.57 87.66 197.38 87.84 196.84 87.91 196.16 87.95 195.51 87.95 189.82 87.95 186.37 84.85 186.37 79.96 186.37 74.34 190.47 67.4 199.18 67.4 200.26 67.4 201.05 67.51 201.66 67.65Z" fill="#231F20"/><path d="M206.47 82.23 206.51 82.23C206.37 82.41 206.37 82.95 206.4 83.67L206.4 83.96C206.4 84.28 206.44 84.61 206.33 85.11 206.29 85.25 206.29 85.4 206.29 85.51 206.18 86.59 204.85 87.35 203.45 87.35 202.19 87.35 200.93 86.7 201.15 85.95 201.11 85.99 201.22 85.73 201.29 85.63 201.33 85.59 201.33 85.56 201.33 85.49L201.33 85.31C201.65 84.16 202.05 81.93 202.34 80.38 202.34 80.31 202.38 80.16 202.41 80.06 202.45 79.92 202.48 79.74 202.45 79.7 202.88 77.43 203.28 75.16 203.71 72.86 204.14 70.59 204.54 68.29 204.93 65.98 205.07 65.22 205.15 64.54 205.11 64.11 205.07 63.25 205.4 62.24 206.69 62.17 207.09 62.13 207.45 62.1 207.88 61.99 209.21 61.74 210.44 62.57 210.22 63.54 209.79 65.48 209.46 67.14 209 69.87L207.6 77.36C209.51 75.6 211.74 72.79 212.78 70.63 212.82 70.59 212.85 70.45 212.92 70.38 212.88 70.42 212.88 70.38 212.88 70.34 212.92 70.3 212.95 70.2 213.02 70.12 212.98 70.16 212.98 70.12 212.98 70.08 213.38 69 214.28 67.85 215.79 67.92L216.15 67.92C217.37 67.92 218.53 68.93 218.06 69.75 216.76 71.73 214.71 74.68 212.77 76.52L212.84 76.48C213.16 78.17 213.34 78.75 213.74 79.79 215.07 83.68 216.3 84.87 217.52 85.91 217.99 86.45 217.63 87.46 216.8 87.46L216.51 87.46C214.93 87.53 213.45 87.03 212.62 85.98 211.47 84.5 210.39 83.35 209.24 79.75L206.47 82.23Z" fill="#231F20"/><path d="M227.96 85.47C229.26 85.47 230.34 85.11 231.2 84.75 232.1 84.35 233.18 84.89 232.96 85.69 232.71 86.48 231.95 87.27 230.66 87.63 229.76 87.81 228.64 87.99 227.13 87.99 220.87 87.81 219.32 84.46 219.25 79.96 219.25 76.11 221.19 72.87 222.42 71.39 224.9 68.29 228.43 67.29 231.02 67.29 234.87 67.29 236.82 69.2 236.82 71.68 236.82 72.69 236.32 74.09 235.52 75.32 234.66 76.62 233.07 77.66 231.81 78.27 229.54 79.42 227.13 79.57 224.39 79.67 224.35 79.81 224.32 80.28 224.32 80.97 224.32 82.7 224.82 85.51 227.96 85.47ZM224.54 78.67C226.52 78.38 228.61 77.09 230.41 75.39 231.24 74.56 231.89 73.3 231.89 71.83 231.89 70.36 231.13 69.56 230.23 69.56 229.69 69.56 228.47 69.81 226.92 71.61 225.8 72.94 224.83 75.68 224.54 78.67Z" fill="#231F20"/><path d="M238.51 74.67C238.76 73.19 239.05 71.39 239.05 70.03L239.05 69.81C239.01 68.98 239.52 68.05 240.78 67.9 241.14 67.86 241.43 67.83 241.79 67.76 241.83 67.76 241.93 67.72 241.97 67.72 243.12 67.58 244.35 68.33 244.24 69.2 244.17 69.63 244.35 68.88 244.17 69.78 244.35 69.56 244.6 69.31 244.85 69.1 246.29 67.98 248.2 67.3 250.29 67.3 252.56 67.3 255.62 68.09 255.62 71.12 255.62 71.77 255.51 72.56 255.22 74.22 255.08 74.98 254.93 75.91 254.79 76.74 254.65 77.6 254.47 78.4 254.32 79.22 254.03 80.77 253.53 83.68 253.42 85.48 253.35 86.56 252.09 87.35 250.68 87.35L250.36 87.35C249.17 87.39 248.09 86.56 248.34 85.66 248.7 84.51 249.1 82.78 249.64 79.33L250.07 76.95C250.39 75.19 250.61 73.78 250.61 72.74 250.61 71.01 250.07 70.29 248.49 70.29 247.12 70.29 245.47 71.41 244.42 72.7 243.3 74.14 242.87 76.8 242.55 78.75L241.9 82.96C241.72 84.08 241.65 84.87 241.61 85.55 241.54 86.59 240.24 87.31 238.87 87.31L238.58 87.31C237.36 87.35 236.31 86.48 236.49 85.65 236.85 84.35 237.1 83.02 237.35 81.4L238.5 74.67Z" fill="#231F20"/><path d="M283.47 73.81C281.99 75.29 280.23 75.93 278.79 76.33 279.11 79.86 280.95 83.17 283.5 85.9 284 86.48 283.46 87.48 282.49 87.45L281.88 87.45C281.81 87.45 281.7 87.41 281.59 87.41 280.04 87.41 278.46 86.98 277.74 85.9 277.06 84.93 276.37 83.78 275.69 82.41 274.79 80.57 274.18 78.67 273.89 77.01L271.91 77.01C271.73 78.2 271.51 79.49 271.26 80.86 271.01 82.23 270.79 83.6 270.58 84.78L270.58 84.92C270.58 84.99 270.54 85.06 270.54 85.1 270.54 85.14 270.54 85.28 270.5 85.39 270.32 86.47 269.17 87.44 267.73 87.44 267.69 87.44 267.66 87.4 267.51 87.4L267.26 87.44C265.96 87.44 264.85 86.5 265.1 85.57 265.53 84.31 265.96 82.08 266.4 79.92 266.65 78.59 266.9 77.26 267.16 75.89 267.7 73.01 268.24 70.13 268.74 67.4 269.03 65.96 269.14 64.95 269.21 64.2 269.32 63.16 270.29 62.15 271.73 62.18L273.96 62.18C274.86 62.14 276.16 62.14 276.62 62.14 276.91 62.14 277.2 62.1 277.41 62.1L277.91 62.1C279.57 62.1 281.87 62.17 283.42 63.11 285.54 64.48 286.16 66.49 286.16 67.97 286.16 68.76 285.94 71.35 283.46 73.8ZM272.42 74.28 272.78 74.28C273.03 74.28 273.28 74.32 273.54 74.32 274.87 74.32 276.24 74.21 277.57 73.6 279.95 72.59 280.67 69.78 280.67 68.31 280.67 65.43 278.87 64.57 276.67 64.57 276.06 64.57 275.48 64.64 274.33 64.75 273.97 66.19 273.79 67.02 273.25 69.75L272.42 74.29Z" fill="#231F20"/><path d="M291.97 78.63C291.32 82.23 291.03 84.35 290.93 85.58 290.86 86.62 289.56 87.34 288.19 87.34L287.9 87.34C286.75 87.38 285.85 86.37 285.96 85.47 285.96 85.43 286 85.36 286 85.29 286.18 84.53 286.43 83.53 286.68 82.05L287.29 78.52C288.15 73.77 288.48 71.43 288.44 70.13 288.4 69.27 288.8 68.22 290.17 68.15 290.67 68.08 291.03 68.01 291.43 67.93 292.65 67.68 293.7 68.58 293.63 69.51 293.59 69.65 293.56 69.91 293.56 70.09 293.42 70.74 293.24 71.6 293.02 72.79L291.98 78.62ZM294.85 62.83C294.85 64.02 293.77 65.85 291.68 65.85 290.46 65.85 289.2 65.27 289.2 63.94 289.2 62.82 290.21 60.99 292.44 60.99 293.7 60.99 294.85 61.6 294.85 62.82Z" fill="#231F20"/><path d="M309.61 67.65C310.73 67.9 311.09 68.95 310.8 69.67 310.58 70.25 309.94 70.46 309.14 70.46 308.67 70.46 308.28 70.39 307.99 70.24L308.03 70.24C307.6 70.1 307.13 69.99 306.59 69.99 302.2 69.99 299.61 74.81 299.61 79.71 299.61 81.47 299.9 83.63 301.52 84.64 302.46 85.25 303.36 85.47 304.22 85.47 305.01 85.47 305.7 85.33 306.38 85.07 307.42 84.78 308.18 85.5 307.93 86.22 307.61 87.05 306.53 87.66 305.34 87.84 304.8 87.91 304.12 87.95 303.47 87.95 297.78 87.95 294.33 84.85 294.33 79.96 294.33 74.34 298.43 67.4 307.14 67.4 308.22 67.4 309.01 67.51 309.62 67.65Z" fill="#231F20"/><path d="M318.11 85.47C319.41 85.47 320.49 85.11 321.35 84.75 322.25 84.35 323.33 84.89 323.11 85.69 322.86 86.48 322.1 87.27 320.81 87.63 319.91 87.81 318.79 87.99 317.28 87.99 311.02 87.81 309.47 84.46 309.4 79.96 309.4 76.11 311.34 72.87 312.57 71.39 315.05 68.29 318.58 67.29 321.17 67.29 325.02 67.29 326.97 69.2 326.97 71.68 326.97 72.69 326.47 74.09 325.67 75.32 324.81 76.62 323.22 77.66 321.96 78.27 319.69 79.42 317.28 79.57 314.54 79.67 314.5 79.81 314.47 80.28 314.47 80.97 314.47 82.7 314.97 85.51 318.11 85.47ZM314.69 78.67C316.67 78.38 318.76 77.09 320.56 75.39 321.39 74.56 322.04 73.3 322.04 71.83 322.04 70.36 321.28 69.56 320.38 69.56 319.84 69.56 318.62 69.81 317.07 71.61 315.95 72.94 314.98 75.68 314.69 78.67Z" fill="#231F20"/></g></svg>