<svg viewBox="0 0 819.23 206" xmlns="http://www.w3.org/2000/svg" xmlns:xlink="http://www.w3.org/1999/xlink" id="Layer_1" overflow="hidden"><defs><linearGradient x1="433.3" y1="-8.24" x2="390.22" y2="205.17" gradientUnits="userSpaceOnUse" id="linear-gradient"><stop offset="0" stop-color="#FFFFFF"/><stop offset="0.26" stop-color="#FBFBFB"/><stop offset="0.47" stop-color="#F1F1F1"/><stop offset="0.67" stop-color="#E0E0E0"/><stop offset="0.85" stop-color="#C8C8C9"/><stop offset="1" stop-color="#B0B0B1"/></linearGradient><linearGradient x1="413.76" y1="-72.09" x2="413.76" y2="112.02" gradientUnits="userSpaceOnUse" id="linear-gradient-2"><stop offset="0" stop-color="#FFFFFF"/><stop offset="0.8" stop-color="#E7E7E9"/><stop offset="1" stop-color="#E1E1E3"/></linearGradient></defs><path d="M814.53 108.67C814.53 162.42 773.86 206 723.69 206L90.84 206C40.67 206 0 162.42 0 108.67L0 108.67C0 54.92 41.69 11.35 91.86 11.35L723.69 11.35C773.86 11.35 814.53 54.92 814.53 108.67L814.53 108.67Z" opacity="0.57"/><g><path d="M819.23 97.32C819.23 151.07 778.56 194.65 728.39 194.65L95.54 194.65C45.37 194.65 4.7 151.07 4.7 97.32L4.7 97.32C4.7 43.57 46.39 0 96.56 0L728.39 0C778.56 0 819.23 43.57 819.23 97.32L819.23 97.32Z" fill="url(#linear-gradient)"/><path d="M815.75 97.32C815.75 148.16 775.75 189.38 726.4 189.38L101.13 189.38C51.78 189.38 11.78 148.16 11.78 97.32L11.78 97.32C11.78 46.49 51.78 5.27 101.13 5.27L726.4 5.27C775.75 5.27 815.75 46.48 815.75 97.32L815.75 97.32Z" fill="url(#linear-gradient-2)"/></g><g><path d="M258.8 82.32 252.4 82.32 252.23 82.06 231.21 51.62 231.21 82.32 224.56 82.32 224.56 40.75 230.96 40.75 231.13 41.01 252.2 71.59 252.2 40.75 258.8 40.75 258.8 82.32Z" fill="#F15A22"/><path d="M287.56 82.32 287.39 82.01C287.28 81.78 287.18 81.54 287.1 81.28 287.02 81.02 286.95 80.73 286.87 80.41 286.85 80.3 286.83 80.17 286.8 80.04 286.77 79.91 286.75 79.78 286.73 79.67 286.41 79.94 286.07 80.18 285.73 80.41 285.03 80.91 284.26 81.34 283.42 81.72 282.58 82.08 281.67 82.37 280.68 82.58 280.18 82.67 279.68 82.75 279.17 82.81 278.66 82.87 278.13 82.9 277.6 82.9 277.14 82.9 276.7 82.89 276.27 82.86 275.84 82.83 275.42 82.78 275.01 82.72 274.6 82.65 274.2 82.57 273.81 82.48 273.42 82.38 273.06 82.28 272.74 82.17 271.37 81.68 270.21 81.01 269.26 80.17 268.29 79.31 267.54 78.31 267.02 77.16 266.5 76.01 266.23 74.78 266.23 73.46 266.23 71.77 266.57 70.26 267.26 68.95 267.6 68.3 268.02 67.7 268.52 67.15 269.02 66.6 269.59 66.1 270.23 65.67 271.49 64.79 273.06 64.14 274.94 63.7 275.59 63.55 276.25 63.42 276.94 63.33 277.63 63.24 278.33 63.16 279.07 63.12 279.8 63.07 280.57 63.05 281.37 63.05L286.45 63.05 286.45 61.34C286.45 60.54 286.32 59.84 286.05 59.23 285.78 58.62 285.38 58.1 284.85 57.66 284.49 57.36 284.07 57.1 283.61 56.9 283.15 56.7 282.6 56.55 281.98 56.44 281.36 56.34 280.69 56.28 279.97 56.28 279.7 56.28 279.45 56.28 279.21 56.31 278.97 56.33 278.73 56.35 278.5 56.38 278.27 56.41 278.03 56.45 277.81 56.49 277.59 56.54 277.39 56.59 277.2 56.65 276.91 56.73 276.65 56.82 276.4 56.92 276.15 57.03 275.92 57.13 275.7 57.25 275.48 57.37 275.28 57.49 275.09 57.62 274.9 57.75 274.72 57.9 274.56 58.05 274.4 58.2 274.25 58.36 274.12 58.52 273.99 58.68 273.87 58.85 273.78 59.02 273.48 59.52 273.32 60.04 273.32 60.59L273.32 61.16 266.87 61.16 266.87 60.59C266.87 59.39 267.18 58.21 267.81 57.05 268.42 55.89 269.28 54.85 270.41 53.94 271.54 53.03 272.92 52.29 274.58 51.74 276.29 51.17 278.2 50.88 280.29 50.88 282.19 50.88 283.94 51.1 285.54 51.54 286.07 51.69 286.59 51.86 287.08 52.05 287.54 52.24 287.97 52.46 288.36 52.71 288.76 52.96 289.14 53.23 289.5 53.54 290.57 54.42 291.4 55.52 292.01 56.85 292.31 57.52 292.54 58.23 292.7 58.99 292.85 59.75 292.93 60.57 292.93 61.45L292.93 75.3C292.93 76.27 293.02 77.3 293.19 78.38 293.38 79.45 293.64 80.36 293.96 81.12L294.02 81.23 294.02 82.34 287.57 82.34ZM275.85 76.81C276.57 77.04 277.43 77.15 278.42 77.15 279.41 77.15 280.3 77.04 281.16 76.81 282.02 76.56 282.8 76.25 283.5 75.87 284.2 75.49 284.81 75.06 285.33 74.59 285.79 74.15 286.16 73.7 286.44 73.22L286.44 67.91 282.27 67.91C281.47 67.91 280.71 67.94 280 68 279.29 68.06 278.63 68.14 278.02 68.24 277.41 68.35 276.85 68.47 276.35 68.63 275.85 68.78 275.38 68.96 274.97 69.17 273.43 69.95 272.66 71.14 272.66 72.74 272.66 73.37 272.77 73.96 273 74.51 273.06 74.64 273.12 74.77 273.19 74.9 273.26 75.02 273.33 75.14 273.42 75.26 273.51 75.38 273.6 75.48 273.71 75.59 273.81 75.7 273.92 75.8 274.04 75.89 274.54 76.27 275.14 76.59 275.87 76.83Z" fill="#F15A22"/><path d="M306.71 51.43 306.74 51.97 306.83 54.05C307.76 53.19 308.83 52.5 310.03 51.97 310.87 51.59 311.76 51.31 312.71 51.13 313.66 50.95 314.68 50.86 315.77 50.86 316.86 50.86 317.88 50.97 318.84 51.17 319.8 51.38 320.7 51.69 321.54 52.11 322.04 52.34 322.49 52.62 322.91 52.94 323.33 53.26 323.71 53.63 324.07 54.03 324.43 54.43 324.74 54.87 325.03 55.34 326.06 54.1 327.32 53.09 328.83 52.31 329.73 51.82 330.7 51.45 331.76 51.21 332.82 50.97 333.95 50.85 335.17 50.85 335.76 50.85 336.33 50.87 336.87 50.92 337.41 50.97 337.94 51.04 338.45 51.15 338.96 51.26 339.44 51.38 339.88 51.54 341.25 51.98 342.41 52.67 343.36 53.61 344.31 54.55 345.03 55.74 345.5 57.16 345.97 58.58 346.21 60.26 346.21 62.19L346.21 82.32 339.79 82.32 339.79 62.3C339.79 61.71 339.75 61.17 339.68 60.69 339.61 60.21 339.5 59.77 339.37 59.39 339.08 58.67 338.68 58.09 338.16 57.65 337.64 57.21 337 56.91 336.26 56.74 335.44 56.57 334.55 56.48 333.58 56.48 333.05 56.48 332.55 56.52 332.1 56.59 331.64 56.67 331.21 56.78 330.82 56.93 330.55 57.03 330.3 57.14 330.05 57.26 329.8 57.38 329.57 57.52 329.36 57.66 329.15 57.8 328.95 57.96 328.76 58.13L328.49 58.4C328.4 58.49 328.32 58.58 328.23 58.67 328.14 58.77 328.07 58.86 328 58.96 327.93 59.06 327.86 59.16 327.79 59.26 327.71 59.37 327.65 59.47 327.59 59.59L327.42 59.93C327.08 60.62 326.86 61.36 326.76 62.16L326.76 82.32 320.08 82.32 320.08 62.33C320.08 62.04 320.08 61.78 320.05 61.53 320.03 61.28 320 61.04 319.96 60.82 319.92 60.6 319.87 60.37 319.82 60.16 319.76 59.95 319.7 59.76 319.62 59.59 319.33 58.85 318.92 58.26 318.39 57.82 318.28 57.73 318.17 57.63 318.06 57.55 317.95 57.47 317.84 57.39 317.72 57.32 317.6 57.25 317.47 57.19 317.33 57.12 317.2 57.05 317.06 57 316.92 56.95 316.78 56.9 316.63 56.86 316.48 56.82 315.7 56.59 314.81 56.48 313.82 56.48 311.99 56.48 310.54 56.84 309.45 57.57 308.92 57.91 308.45 58.31 308.05 58.77 307.65 59.23 307.32 59.73 307.05 60.28L307.05 82.32 300.63 82.32 300.63 51.42 306.74 51.42Z" fill="#F15A22"/><path d="M370.08 82.77C369.3 82.86 368.48 82.9 367.62 82.9 365.2 82.9 363.01 82.53 361.05 81.79 359.13 81.05 357.52 80.01 356.22 78.68 355.8 78.22 355.41 77.75 355.04 77.25 354.67 76.76 354.34 76.23 354.04 75.67 353.74 75.11 353.48 74.52 353.25 73.91 352.56 72.1 352.22 70.11 352.22 67.94L352.22 66.8C352.22 64.31 352.61 62.07 353.39 60.09 354.17 58.13 355.21 56.46 356.5 55.09 356.94 54.65 357.4 54.24 357.88 53.86 358.37 53.48 358.87 53.13 359.38 52.8 359.95 52.5 360.54 52.22 361.15 51.97 363 51.23 364.91 50.86 366.89 50.86 368.13 50.86 369.29 50.97 370.37 51.17 371.46 51.36 372.45 51.65 373.37 52.03 373.94 52.3 374.47 52.6 374.97 52.93 375.47 53.26 375.93 53.63 376.35 54.02 376.78 54.41 377.17 54.83 377.53 55.29 378.62 56.66 379.41 58.28 379.93 60.14 380.2 61.05 380.39 62.01 380.52 63.01 380.65 64.01 380.71 65.04 380.71 66.11L380.71 68.97 358.67 68.97C358.75 70.06 358.97 71.06 359.33 72 359.46 72.38 359.63 72.74 359.82 73.07 360.01 73.4 360.22 73.72 360.45 74.01 360.68 74.31 360.93 74.59 361.19 74.85 361.59 75.25 362.03 75.61 362.52 75.92 363.01 76.23 363.53 76.52 364.1 76.76 365.22 77.22 366.5 77.45 367.93 77.45 368.58 77.45 369.19 77.41 369.76 77.34 370.33 77.26 370.87 77.15 371.37 76.98 371.87 76.82 372.34 76.62 372.75 76.39 374.04 75.67 375.15 74.71 376.06 73.51L376.4 73.05 376.86 73.39 380.09 75.9 380.52 76.24 380.23 76.67C380.06 76.94 379.87 77.2 379.67 77.46 379.47 77.72 379.26 77.97 379.04 78.23 378.82 78.49 378.59 78.74 378.34 78.99 377.6 79.73 376.74 80.4 375.77 80.99 375.27 81.28 374.74 81.53 374.17 81.76 373.58 82.01 372.94 82.22 372.26 82.39 371.58 82.56 370.84 82.69 370.06 82.78ZM368.8 56.5C368.23 56.4 367.6 56.34 366.92 56.34 366.56 56.34 366.21 56.36 365.88 56.4 365.55 56.44 365.22 56.5 364.91 56.57 364.6 56.65 364.29 56.73 363.98 56.83 363.81 56.91 363.64 56.98 363.47 57.06 363.3 57.14 363.13 57.22 362.96 57.32 362.79 57.42 362.63 57.51 362.47 57.61 362.32 57.71 362.17 57.82 362.01 57.94 361.86 58.06 361.71 58.18 361.58 58.3 361.22 58.62 360.89 58.99 360.59 59.39 360.29 59.79 360.02 60.24 359.78 60.73 359.59 61.13 359.42 61.57 359.27 62.04 359.14 62.5 359.02 62.98 358.93 63.5L374.32 63.5C374.24 62.64 374.08 61.8 373.83 60.96 373.75 60.67 373.65 60.4 373.52 60.13 373.39 59.86 373.24 59.6 373.08 59.34 372.92 59.08 372.74 58.84 372.55 58.61 371.98 57.94 371.24 57.4 370.32 56.98 369.88 56.77 369.38 56.61 368.81 56.51Z" fill="#F15A22"/><path d="M400.27 67.22 400.27 66.62C400.27 64.39 400.61 62.33 401.3 60.42 401.62 59.45 402.03 58.55 402.51 57.72 402.99 56.89 403.55 56.13 404.18 55.42 405.45 53.99 407.04 52.88 408.92 52.08 409.57 51.81 410.24 51.59 410.95 51.39 411.64 51.22 412.35 51.09 413.11 50.99 413.86 50.9 414.64 50.85 415.44 50.85 417.88 50.85 420.08 51.25 422.04 52.05 423.92 52.87 425.5 53.98 426.78 55.39 428.05 56.82 429.03 58.48 429.69 60.39 430.36 62.29 430.69 64.36 430.69 66.59L430.69 67.22C430.69 68.33 430.6 69.4 430.43 70.43 430.26 71.47 430.01 72.46 429.69 73.41 429.56 73.79 429.41 74.16 429.25 74.52 429.09 74.88 428.92 75.23 428.74 75.58 428.56 75.93 428.37 76.26 428.17 76.58 427.97 76.9 427.75 77.21 427.51 77.51 427.27 77.81 427.03 78.1 426.78 78.38 425.51 79.79 423.92 80.89 422.04 81.69 420.1 82.49 417.92 82.89 415.5 82.89 413.08 82.89 410.9 82.49 408.96 81.69 407.08 80.89 405.5 79.79 404.22 78.38 402.95 76.99 401.97 75.33 401.31 73.41 400.62 71.51 400.28 69.44 400.28 67.21ZM406.72 66.62 406.72 67.19C406.72 68.62 406.89 69.96 407.23 71.22 407.36 71.62 407.51 72.01 407.67 72.39 407.83 72.77 408.02 73.13 408.23 73.48 408.44 73.83 408.67 74.15 408.92 74.47 409.17 74.79 409.43 75.07 409.72 75.33 410.01 75.59 410.31 75.83 410.63 76.06 410.95 76.29 411.3 76.49 411.66 76.66 412.02 76.83 412.4 76.98 412.8 77.1 413.2 77.22 413.62 77.31 414.07 77.37 414.52 77.43 414.99 77.46 415.48 77.46 416.93 77.46 418.2 77.19 419.31 76.66 420.41 76.13 421.33 75.4 422.05 74.49 422.77 73.56 423.32 72.47 423.71 71.23 424.07 69.97 424.25 68.63 424.25 67.2L424.25 66.63C424.25 65.22 424.07 63.89 423.71 62.63 423.6 62.21 423.45 61.81 423.28 61.43 423.11 61.05 422.92 60.69 422.71 60.34 422.5 59.99 422.27 59.66 422.02 59.34 421.3 58.43 420.38 57.69 419.28 57.14 418.73 56.87 418.13 56.67 417.5 56.54 416.86 56.41 416.17 56.34 415.43 56.34 414.69 56.34 414.03 56.41 413.4 56.54 412.77 56.67 412.19 56.87 411.66 57.14 411.49 57.22 411.33 57.3 411.19 57.38 411.05 57.46 410.9 57.56 410.76 57.65 410.62 57.75 410.48 57.85 410.35 57.95 410.22 58.06 410.09 58.16 409.96 58.26 409.84 58.37 409.71 58.47 409.59 58.59 409.47 58.71 409.35 58.82 409.23 58.95 409.12 59.07 409.01 59.2 408.92 59.34 408.67 59.66 408.44 60 408.23 60.34 408.02 60.68 407.83 61.05 407.67 61.43 407.51 61.81 407.36 62.21 407.23 62.63 407.12 63.05 407.02 63.48 406.94 63.91 406.86 64.35 406.81 64.79 406.77 65.24 406.73 65.69 406.71 66.15 406.71 66.62Z" fill="#F15A22"/><path d="M439.31 82.32 439.31 56.65 434.43 56.65 434.43 51.42 439.31 51.42 439.31 48.74C439.31 47.01 439.56 45.48 440.05 44.14 440.55 42.77 441.31 41.62 442.33 40.69 443.45 39.76 444.81 39.05 446.41 38.58 447.95 38.1 449.54 37.87 451.18 37.87 451.6 37.87 452.02 37.89 452.44 37.93 452.86 37.97 453.28 38.03 453.7 38.1 454.12 38.18 454.54 38.27 454.96 38.39L455.42 38.5 455.39 38.96 455.1 43.24 455.04 43.9 454.41 43.79C454.03 43.71 453.6 43.65 453.11 43.6 452.62 43.55 452.14 43.53 451.67 43.53 450.13 43.53 448.93 43.97 448.07 44.84 447.08 45.74 446.59 47.04 446.59 48.75L446.59 51.43 453.47 51.43 453.47 56.66 446.59 56.66 446.59 82.33 439.31 82.33Z" fill="#F15A22"/><path d="M476.72 82.32 476.72 56.65 471.84 56.65 471.84 51.42 476.72 51.42 476.72 48.74C476.72 47.01 476.97 45.48 477.46 44.14 477.96 42.77 478.72 41.62 479.74 40.69 480.86 39.76 482.22 39.05 483.82 38.58 485.36 38.1 486.95 37.87 488.59 37.87 489.01 37.87 489.43 37.89 489.85 37.93 490.27 37.97 490.69 38.03 491.11 38.1 491.53 38.18 491.95 38.27 492.37 38.39L492.83 38.5 492.8 38.96 492.51 43.24 492.45 43.9 491.82 43.79C491.44 43.71 491.01 43.65 490.52 43.6 490.03 43.55 489.55 43.53 489.08 43.53 487.54 43.53 486.34 43.97 485.48 44.84 484.49 45.74 484 47.04 484 48.75L484 51.43 490.88 51.43 490.88 56.66 484 56.66 484 82.33 476.72 82.33Z" fill="#F15A22"/><path d="M494.73 67.22 494.73 66.62C494.73 64.39 495.07 62.33 495.76 60.42 496.08 59.45 496.49 58.55 496.97 57.72 497.45 56.89 498.01 56.13 498.64 55.42 499.91 53.99 501.5 52.88 503.38 52.08 504.03 51.81 504.7 51.59 505.41 51.39 506.1 51.22 506.81 51.09 507.57 50.99 508.32 50.9 509.1 50.85 509.9 50.85 512.34 50.85 514.54 51.25 516.5 52.05 518.38 52.87 519.96 53.98 521.24 55.39 522.51 56.82 523.49 58.48 524.15 60.39 524.82 62.29 525.15 64.36 525.15 66.59L525.15 67.22C525.15 68.33 525.06 69.4 524.89 70.43 524.72 71.47 524.47 72.46 524.15 73.41 524.02 73.79 523.87 74.16 523.71 74.52 523.55 74.88 523.38 75.23 523.2 75.58 523.02 75.93 522.83 76.26 522.63 76.58 522.43 76.9 522.21 77.21 521.97 77.51 521.73 77.81 521.49 78.1 521.24 78.38 519.97 79.79 518.38 80.89 516.5 81.69 514.56 82.49 512.38 82.89 509.96 82.89 507.54 82.89 505.36 82.49 503.42 81.69 501.54 80.89 499.96 79.79 498.68 78.38 497.41 76.99 496.43 75.33 495.77 73.41 495.08 71.51 494.74 69.44 494.74 67.21ZM501.18 66.62 501.18 67.19C501.18 68.62 501.35 69.96 501.69 71.22 501.82 71.62 501.97 72.01 502.13 72.39 502.29 72.77 502.48 73.13 502.69 73.48 502.9 73.83 503.13 74.15 503.38 74.47 503.63 74.79 503.89 75.07 504.18 75.33 504.47 75.59 504.77 75.83 505.09 76.06 505.41 76.29 505.76 76.49 506.12 76.66 506.48 76.83 506.86 76.98 507.26 77.1 507.66 77.22 508.08 77.31 508.53 77.37 508.98 77.43 509.45 77.46 509.94 77.46 511.39 77.46 512.66 77.19 513.77 76.66 514.87 76.13 515.79 75.4 516.51 74.49 517.23 73.56 517.78 72.47 518.17 71.23 518.53 69.97 518.71 68.63 518.71 67.2L518.71 66.63C518.71 65.22 518.53 63.89 518.17 62.63 518.06 62.21 517.91 61.81 517.74 61.43 517.57 61.05 517.38 60.69 517.17 60.34 516.96 59.99 516.73 59.66 516.48 59.34 515.76 58.43 514.84 57.69 513.74 57.14 513.19 56.87 512.59 56.67 511.96 56.54 511.32 56.41 510.63 56.34 509.89 56.34 509.15 56.34 508.49 56.41 507.86 56.54 507.23 56.67 506.65 56.87 506.12 57.14 505.95 57.22 505.79 57.3 505.65 57.38 505.51 57.46 505.36 57.56 505.22 57.65 505.08 57.75 504.94 57.85 504.81 57.95 504.68 58.06 504.55 58.16 504.42 58.26 504.3 58.37 504.17 58.47 504.05 58.59 503.93 58.71 503.81 58.82 503.69 58.95 503.58 59.07 503.47 59.2 503.38 59.34 503.13 59.66 502.9 60 502.69 60.34 502.48 60.68 502.29 61.05 502.13 61.43 501.97 61.81 501.82 62.21 501.69 62.63 501.58 63.05 501.48 63.48 501.4 63.91 501.32 64.35 501.27 64.79 501.23 65.24 501.19 65.69 501.17 66.15 501.17 66.62Z" fill="#F15A22"/><path d="M529.78 67.22 529.78 66.62C529.78 64.39 530.12 62.33 530.81 60.42 531.13 59.45 531.54 58.55 532.02 57.72 532.5 56.89 533.06 56.13 533.69 55.42 534.96 53.99 536.55 52.88 538.43 52.08 539.08 51.81 539.75 51.59 540.46 51.39 541.15 51.22 541.86 51.09 542.62 50.99 543.37 50.9 544.15 50.85 544.95 50.85 547.39 50.85 549.59 51.25 551.55 52.05 553.43 52.87 555.01 53.98 556.29 55.39 557.56 56.82 558.54 58.48 559.2 60.39 559.87 62.29 560.2 64.36 560.2 66.59L560.2 67.22C560.2 68.33 560.11 69.4 559.94 70.43 559.77 71.47 559.52 72.46 559.2 73.41 559.07 73.79 558.92 74.16 558.76 74.52 558.6 74.88 558.43 75.23 558.25 75.58 558.07 75.93 557.88 76.26 557.68 76.58 557.48 76.9 557.26 77.21 557.02 77.51 556.78 77.81 556.54 78.1 556.29 78.38 555.02 79.79 553.43 80.89 551.55 81.69 549.61 82.49 547.43 82.89 545.01 82.89 542.59 82.89 540.41 82.49 538.47 81.69 536.59 80.89 535.01 79.79 533.73 78.38 532.46 76.99 531.48 75.33 530.82 73.41 530.13 71.51 529.79 69.44 529.79 67.21ZM536.23 66.62 536.23 67.19C536.23 68.62 536.4 69.96 536.74 71.22 536.87 71.62 537.02 72.01 537.18 72.39 537.34 72.77 537.53 73.13 537.74 73.48 537.95 73.83 538.18 74.15 538.43 74.47 538.68 74.79 538.94 75.07 539.23 75.33 539.52 75.59 539.82 75.83 540.14 76.06 540.46 76.29 540.81 76.49 541.17 76.66 541.53 76.83 541.91 76.98 542.31 77.1 542.71 77.22 543.13 77.31 543.58 77.37 544.03 77.43 544.5 77.46 544.99 77.46 546.44 77.46 547.71 77.19 548.82 76.66 549.92 76.13 550.84 75.4 551.56 74.49 552.28 73.56 552.83 72.47 553.22 71.23 553.58 69.97 553.76 68.63 553.76 67.2L553.76 66.63C553.76 65.22 553.58 63.89 553.22 62.63 553.11 62.21 552.96 61.81 552.79 61.43 552.62 61.05 552.43 60.69 552.22 60.34 552.01 59.99 551.78 59.66 551.53 59.34 550.81 58.43 549.89 57.69 548.79 57.14 548.24 56.87 547.64 56.67 547.01 56.54 546.37 56.41 545.68 56.34 544.94 56.34 544.2 56.34 543.54 56.41 542.91 56.54 542.28 56.67 541.7 56.87 541.17 57.14 541 57.22 540.84 57.3 540.7 57.38 540.56 57.46 540.41 57.56 540.27 57.65 540.13 57.75 539.99 57.85 539.86 57.95 539.73 58.06 539.6 58.16 539.47 58.26 539.35 58.37 539.22 58.47 539.1 58.59 538.98 58.71 538.86 58.82 538.74 58.95 538.63 59.07 538.52 59.2 538.43 59.34 538.18 59.66 537.95 60 537.74 60.34 537.53 60.68 537.34 61.05 537.18 61.43 537.02 61.81 536.87 62.21 536.74 62.63 536.63 63.05 536.53 63.48 536.45 63.91 536.37 64.35 536.32 64.79 536.28 65.24 536.24 65.69 536.22 66.15 536.22 66.62Z" fill="#F15A22"/><path d="M564.94 67.22 564.94 66.62C564.94 64.3 565.24 62.18 565.83 60.25 566.44 58.33 567.3 56.67 568.4 55.28 568.95 54.58 569.57 53.95 570.24 53.41 570.91 52.87 571.66 52.41 572.48 52.03 573.34 51.65 574.24 51.36 575.19 51.17 576.14 50.96 577.14 50.86 578.19 50.86 580.34 50.86 582.22 51.19 583.82 51.86 584.05 51.96 584.28 52.06 584.51 52.17 584.74 52.28 584.96 52.4 585.17 52.51 585.38 52.62 585.58 52.75 585.78 52.88 585.98 53.01 586.18 53.16 586.37 53.31 586.54 53.44 586.71 53.59 586.88 53.74L586.88 38.46 593.3 38.46 593.3 82.32 587.33 82.32 587.3 81.81 587.16 79.78C586.25 80.64 585.18 81.32 583.96 81.84 582.3 82.54 580.36 82.9 578.14 82.9 576.08 82.9 574.2 82.5 572.49 81.7 570.89 80.92 569.53 79.82 568.41 78.39 567.86 77.69 567.37 76.92 566.94 76.09 566.51 75.26 566.14 74.37 565.84 73.42 565.25 71.52 564.95 69.45 564.95 67.22ZM571.36 66.62 571.36 67.19C571.36 68.62 571.51 69.96 571.82 71.22 571.9 71.53 571.99 71.82 572.09 72.11 572.19 72.4 572.31 72.67 572.43 72.94 572.55 73.21 572.69 73.46 572.84 73.71 572.99 73.96 573.14 74.2 573.3 74.42 573.99 75.3 574.84 75.99 575.87 76.5 576.9 77.01 578.13 77.27 579.55 77.27 580.5 77.27 581.35 77.18 582.11 76.98 582.86 76.79 583.53 76.51 584.12 76.15 584.42 75.98 584.71 75.79 584.98 75.58 585.25 75.37 585.5 75.15 585.75 74.92 586.19 74.44 586.56 73.94 586.86 73.41L586.86 60.22C586.75 60.03 586.63 59.85 586.52 59.69 586.41 59.53 586.29 59.37 586.18 59.22L585.75 58.79C585.29 58.31 584.76 57.9 584.17 57.56 583.58 57.22 582.9 56.95 582.16 56.76 581.91 56.7 581.66 56.65 581.39 56.6 581.12 56.55 580.84 56.52 580.55 56.5 580.25 56.48 579.95 56.47 579.62 56.47 579.14 56.47 578.68 56.5 578.24 56.56 577.8 56.62 577.37 56.7 576.98 56.82 576.59 56.94 576.22 57.08 575.88 57.25 574.85 57.78 574.01 58.5 573.34 59.39 572.65 60.32 572.15 61.4 571.83 62.62 571.53 63.88 571.37 65.21 571.37 66.62Z" fill="#F15A22"/><path d="M267.4 152.5 260.78 152.5 260.78 110.93 267.4 110.93 267.4 152.5Z" fill="#F15A22"/><path d="M282.12 121.6 282.15 122.14 282.26 124.62C283.25 123.67 284.41 122.89 285.74 122.28 287.53 121.44 289.55 121.02 291.79 121.02 292.36 121.02 292.91 121.04 293.45 121.09 293.98 121.14 294.51 121.21 295.02 121.3 295.52 121.4 295.97 121.52 296.39 121.67 297.06 121.88 297.66 122.15 298.22 122.48 298.77 122.81 299.28 123.22 299.75 123.69 300.22 124.17 300.63 124.7 300.98 125.29 301.33 125.88 301.62 126.54 301.85 127.26 302.35 128.69 302.59 130.4 302.59 132.4L302.59 152.47 296.17 152.47 296.17 132.48C296.17 131.38 296.05 130.45 295.8 129.71 295.69 129.33 295.53 129 295.33 128.71 295.13 128.42 294.91 128.17 294.66 127.94 294.16 127.5 293.54 127.18 292.78 126.97 292 126.74 291.09 126.63 290.04 126.63 289.79 126.63 289.55 126.63 289.31 126.66 289.07 126.68 288.83 126.7 288.6 126.73 288.37 126.76 288.13 126.8 287.91 126.84 287.69 126.89 287.47 126.95 287.25 127.01 287.03 127.08 286.82 127.15 286.62 127.24 286.42 127.33 286.22 127.42 286.02 127.51 285.82 127.61 285.62 127.71 285.43 127.82 284.78 128.22 284.2 128.69 283.69 129.22 283.19 129.73 282.78 130.32 282.43 130.96L282.43 152.46 276.01 152.46 276.01 121.56 282.12 121.56Z" fill="#F15A22"/><path d="M308.72 137.39 308.72 136.79C308.72 136.33 308.72 135.88 308.75 135.43 308.77 134.98 308.8 134.54 308.85 134.1 308.9 133.66 308.95 133.24 309.02 132.83 309.09 132.42 309.17 132.01 309.26 131.6 309.36 131.19 309.46 130.8 309.57 130.42 310.16 128.5 311.01 126.84 312.11 125.45 313.21 124.04 314.57 122.96 316.16 122.19 317.89 121.41 319.82 121.02 321.96 121.02 324.1 121.02 326.13 121.38 327.78 122.11 329 122.64 330.06 123.35 330.98 124.22L331.12 122.14 331.15 121.6 337.09 121.6 337.09 151.44C337.09 153.5 336.76 155.32 336.09 156.92 335.42 158.59 334.48 160 333.26 161.15 332.84 161.53 332.4 161.88 331.95 162.21 331.49 162.53 331.02 162.83 330.52 163.1 329.99 163.35 329.42 163.57 328.82 163.77 328.22 163.97 327.6 164.14 326.95 164.27 326.3 164.4 325.64 164.5 324.95 164.57 324.26 164.64 323.56 164.67 322.84 164.67 321.93 164.67 320.89 164.57 319.73 164.38 319.44 164.34 319.15 164.29 318.86 164.22 318.56 164.15 318.27 164.08 317.97 164.01 317.67 163.93 317.38 163.85 317.08 163.77 316.78 163.69 316.49 163.58 316.21 163.47 315.07 163.05 313.99 162.48 312.98 161.76 312.48 161.4 312.01 160.99 311.57 160.55 311.12 160.1 310.72 159.61 310.36 159.08L310.13 158.74 310.42 158.4 313.16 155.23 313.62 154.72 314.05 155.23C314.16 155.4 314.28 155.56 314.41 155.7 314.54 155.84 314.66 155.98 314.8 156.1 314.93 156.22 315.06 156.35 315.19 156.47 315.31 156.59 315.44 156.71 315.58 156.83 315.72 156.95 315.85 157.05 315.98 157.14 316.15 157.27 316.33 157.4 316.51 157.51 316.69 157.62 316.87 157.73 317.05 157.84 317.23 157.94 317.41 158.04 317.58 158.13 317.75 158.22 317.93 158.3 318.12 158.37 318.46 158.52 318.82 158.65 319.18 158.76 319.54 158.86 319.9 158.95 320.27 159.03 320.63 159.09 321 159.13 321.37 159.17 321.74 159.21 322.11 159.23 322.47 159.23 323.1 159.23 323.7 159.19 324.28 159.1 324.86 159.01 325.41 158.89 325.92 158.74 326.93 158.42 327.79 157.93 328.49 157.28 328.85 156.96 329.17 156.59 329.43 156.19 329.69 155.79 329.93 155.35 330.12 154.88 330.48 153.93 330.66 152.81 330.66 151.54L330.66 150.26C330.22 150.64 329.75 150.98 329.23 151.29 328.72 151.6 328.17 151.86 327.6 152.09 326.78 152.43 325.9 152.68 324.96 152.85 324.02 153.01 323 153.09 321.92 153.09 319.83 153.09 317.91 152.69 316.18 151.89 314.6 151.11 313.26 150.01 312.15 148.58 311.05 147.17 310.2 145.52 309.61 143.61 309.02 141.71 308.72 139.64 308.72 137.41ZM315.17 136.79 315.17 137.36C315.17 138.79 315.32 140.13 315.63 141.39 315.71 141.7 315.8 141.99 315.9 142.28 316 142.57 316.12 142.84 316.24 143.11 316.36 143.38 316.5 143.63 316.64 143.88 316.78 144.13 316.94 144.37 317.11 144.59 317.78 145.47 318.62 146.16 319.65 146.67 320.68 147.18 321.91 147.44 323.33 147.44 323.52 147.44 323.71 147.44 323.9 147.43 324.09 147.43 324.27 147.41 324.44 147.39 324.61 147.37 324.78 147.35 324.95 147.33 325.12 147.31 325.28 147.29 325.44 147.26 325.6 147.23 325.74 147.19 325.9 147.13 326.66 146.94 327.34 146.67 327.93 146.33 328.23 146.14 328.52 145.94 328.79 145.74 329.06 145.54 329.3 145.32 329.53 145.07 329.97 144.61 330.34 144.11 330.64 143.56L330.64 130.45C330.53 130.26 330.41 130.08 330.3 129.92 330.19 129.76 330.07 129.6 329.94 129.45 329.82 129.3 329.68 129.15 329.53 128.99 329.3 128.74 329.05 128.52 328.79 128.32 328.53 128.12 328.24 127.93 327.93 127.76 327.34 127.4 326.67 127.12 325.93 126.93 325.68 126.87 325.43 126.82 325.16 126.77 324.89 126.72 324.61 126.69 324.32 126.67 324.02 126.65 323.72 126.64 323.39 126.64 321.94 126.64 320.71 126.9 319.68 127.41 319.17 127.68 318.69 127.99 318.27 128.34 317.84 128.69 317.47 129.1 317.14 129.55 316.45 130.48 315.95 131.56 315.63 132.78 315.33 134.04 315.17 135.37 315.17 136.78Z" fill="#F15A22"/><path d="M360.55 127.6 359.89 127.49C359.78 127.47 359.67 127.45 359.56 127.43 359.46 127.41 359.35 127.4 359.25 127.39 359.15 127.39 359.05 127.37 358.95 127.36 358.85 127.36 358.76 127.34 358.66 127.32 358.28 127.3 357.85 127.29 357.38 127.29 355.67 127.29 354.29 127.64 353.24 128.35 352.21 129.02 351.43 129.93 350.9 131.09L350.9 152.51 344.48 152.51 344.48 121.61 350.76 121.61 350.76 122.18 350.82 124.06C351.45 123.34 352.16 122.73 352.96 122.23 354.25 121.43 355.82 121.03 357.64 121.03 358.06 121.03 358.53 121.08 359.04 121.17 359.19 121.19 359.32 121.21 359.43 121.23 359.53 121.25 359.63 121.27 359.73 121.3 359.83 121.33 359.92 121.36 360 121.39 360.08 121.42 360.17 121.45 360.24 121.49L360.55 121.66 360.55 127.6Z" fill="#F15A22"/><path d="M381.33 152.94C380.55 153.03 379.73 153.07 378.87 153.07 376.45 153.07 374.26 152.7 372.3 151.96 370.38 151.22 368.77 150.18 367.47 148.85 367.05 148.39 366.66 147.92 366.29 147.42 365.92 146.93 365.59 146.4 365.29 145.84 364.99 145.28 364.73 144.69 364.5 144.08 363.81 142.27 363.47 140.28 363.47 138.11L363.47 136.97C363.47 134.48 363.86 132.24 364.64 130.26 365.42 128.3 366.46 126.63 367.75 125.26 368.19 124.82 368.65 124.41 369.13 124.03 369.62 123.65 370.12 123.3 370.63 122.97 371.2 122.67 371.79 122.39 372.4 122.14 374.25 121.4 376.16 121.03 378.14 121.03 379.38 121.03 380.54 121.14 381.62 121.34 382.71 121.53 383.7 121.82 384.62 122.2 385.19 122.47 385.72 122.77 386.22 123.1 386.72 123.43 387.18 123.8 387.6 124.19 388.03 124.58 388.42 125 388.78 125.46 389.87 126.83 390.66 128.45 391.18 130.31 391.45 131.22 391.64 132.18 391.77 133.18 391.9 134.18 391.96 135.21 391.96 136.28L391.96 139.14 369.92 139.14C370 140.23 370.22 141.23 370.58 142.17 370.71 142.55 370.88 142.91 371.07 143.24 371.26 143.57 371.47 143.89 371.7 144.18 371.93 144.48 372.18 144.76 372.44 145.02 372.84 145.42 373.28 145.78 373.77 146.09 374.26 146.4 374.78 146.69 375.35 146.93 376.47 147.39 377.75 147.62 379.18 147.62 379.83 147.62 380.44 147.58 381.01 147.51 381.58 147.43 382.12 147.32 382.62 147.15 383.12 146.99 383.59 146.79 384 146.56 385.29 145.84 386.4 144.88 387.31 143.68L387.65 143.22 388.11 143.56 391.34 146.07 391.77 146.41 391.48 146.84C391.31 147.11 391.12 147.37 390.92 147.63 390.72 147.89 390.51 148.14 390.29 148.4 390.07 148.66 389.84 148.91 389.59 149.16 388.85 149.9 387.99 150.57 387.02 151.16 386.52 151.45 385.99 151.7 385.42 151.93 384.83 152.18 384.19 152.39 383.51 152.56 382.83 152.73 382.09 152.86 381.31 152.95ZM380.05 126.67C379.48 126.57 378.85 126.51 378.17 126.51 377.81 126.51 377.46 126.53 377.13 126.57 376.8 126.61 376.47 126.67 376.16 126.74 375.85 126.82 375.54 126.9 375.23 127 375.06 127.08 374.89 127.15 374.72 127.23 374.55 127.31 374.38 127.39 374.21 127.49 374.04 127.59 373.88 127.68 373.72 127.78 373.57 127.88 373.42 127.99 373.26 128.11 373.11 128.23 372.96 128.35 372.83 128.47 372.47 128.79 372.14 129.16 371.84 129.56 371.54 129.96 371.27 130.41 371.03 130.9 370.84 131.3 370.67 131.74 370.52 132.21 370.39 132.67 370.27 133.15 370.18 133.67L385.57 133.67C385.49 132.81 385.33 131.97 385.08 131.13 385 130.84 384.9 130.57 384.77 130.3 384.64 130.03 384.49 129.77 384.33 129.51 384.17 129.25 383.99 129.01 383.8 128.78 383.23 128.11 382.49 127.57 381.57 127.15 381.13 126.94 380.63 126.78 380.06 126.68Z" fill="#F15A22"/><path d="M396.22 137.39 396.22 136.79C396.22 134.47 396.52 132.35 397.11 130.42 397.72 128.5 398.58 126.84 399.68 125.45 400.23 124.75 400.85 124.12 401.52 123.58 402.19 123.04 402.94 122.58 403.76 122.2 404.62 121.82 405.52 121.53 406.47 121.34 407.42 121.13 408.42 121.03 409.47 121.03 411.62 121.03 413.5 121.36 415.1 122.03 415.33 122.13 415.56 122.23 415.79 122.34 416.02 122.45 416.24 122.57 416.45 122.68 416.66 122.79 416.86 122.92 417.06 123.05 417.26 123.18 417.46 123.33 417.65 123.48 417.82 123.61 417.99 123.76 418.16 123.91L418.16 108.63 424.58 108.63 424.58 152.49 418.61 152.49 418.58 151.98 418.44 149.95C417.53 150.81 416.46 151.49 415.24 152.01 413.58 152.71 411.64 153.07 409.42 153.07 407.36 153.07 405.48 152.67 403.77 151.87 402.17 151.09 400.81 149.99 399.69 148.56 399.14 147.86 398.65 147.09 398.22 146.26 397.79 145.43 397.42 144.54 397.12 143.59 396.53 141.69 396.23 139.62 396.23 137.39ZM402.64 136.79 402.64 137.36C402.64 138.79 402.79 140.13 403.1 141.39 403.18 141.7 403.27 141.99 403.37 142.28 403.47 142.57 403.59 142.84 403.71 143.11 403.83 143.38 403.97 143.63 404.12 143.88 404.27 144.13 404.42 144.37 404.58 144.59 405.27 145.47 406.12 146.16 407.15 146.67 408.18 147.18 409.41 147.44 410.83 147.44 411.78 147.44 412.63 147.35 413.39 147.15 414.14 146.96 414.81 146.68 415.4 146.32 415.7 146.15 415.99 145.96 416.26 145.75 416.53 145.54 416.78 145.32 417.03 145.09 417.47 144.61 417.84 144.11 418.14 143.58L418.14 130.39C418.03 130.2 417.91 130.02 417.8 129.86 417.69 129.7 417.57 129.54 417.46 129.39L417.03 128.96C416.57 128.48 416.04 128.07 415.45 127.73 414.86 127.39 414.18 127.12 413.44 126.93 413.19 126.87 412.94 126.82 412.67 126.77 412.4 126.72 412.12 126.69 411.83 126.67 411.53 126.65 411.23 126.64 410.9 126.64 410.42 126.64 409.96 126.67 409.52 126.73 409.08 126.79 408.65 126.87 408.26 126.99 407.87 127.11 407.5 127.25 407.16 127.42 406.13 127.95 405.29 128.67 404.62 129.56 403.93 130.49 403.43 131.57 403.11 132.79 402.81 134.05 402.65 135.38 402.65 136.79Z" fill="#F15A22"/><path d="M433.15 116.52C432.52 115.83 432.21 114.99 432.21 113.98 432.21 113.49 432.29 113.02 432.44 112.6 432.59 112.18 432.83 111.79 433.15 111.44 433.78 110.72 434.69 110.35 435.89 110.35 437.09 110.35 438.01 110.71 438.66 111.44 439.29 112.13 439.6 112.97 439.6 113.98 439.6 114.99 439.29 115.84 438.66 116.52 438.01 117.21 437.09 117.55 435.89 117.55 434.69 117.55 433.78 117.21 433.15 116.52ZM439.06 152.5 432.64 152.5 432.64 121.6 439.06 121.6 439.06 152.5Z" fill="#F15A22"/><path d="M463.44 152.94C462.66 153.03 461.84 153.07 460.98 153.07 458.56 153.07 456.37 152.7 454.41 151.96 452.49 151.22 450.88 150.18 449.58 148.85 449.16 148.39 448.77 147.92 448.4 147.42 448.03 146.93 447.7 146.4 447.4 145.84 447.1 145.28 446.84 144.69 446.61 144.08 445.92 142.27 445.58 140.28 445.58 138.11L445.58 136.97C445.58 134.48 445.97 132.24 446.75 130.26 447.53 128.3 448.57 126.63 449.86 125.26 450.3 124.82 450.76 124.41 451.24 124.03 451.73 123.65 452.23 123.3 452.74 122.97 453.31 122.67 453.9 122.39 454.51 122.14 456.36 121.4 458.27 121.03 460.25 121.03 461.49 121.03 462.65 121.14 463.73 121.34 464.82 121.53 465.81 121.82 466.73 122.2 467.3 122.47 467.83 122.77 468.33 123.1 468.83 123.43 469.29 123.8 469.71 124.19 470.14 124.58 470.53 125 470.89 125.46 471.98 126.83 472.77 128.45 473.29 130.31 473.56 131.22 473.75 132.18 473.88 133.18 474.01 134.18 474.07 135.21 474.07 136.28L474.07 139.14 452.03 139.14C452.11 140.23 452.33 141.23 452.69 142.17 452.82 142.55 452.99 142.91 453.18 143.24 453.37 143.57 453.58 143.89 453.81 144.18 454.04 144.48 454.29 144.76 454.55 145.02 454.95 145.42 455.39 145.78 455.88 146.09 456.37 146.4 456.89 146.69 457.46 146.93 458.58 147.39 459.86 147.62 461.29 147.62 461.94 147.62 462.55 147.58 463.12 147.51 463.69 147.43 464.23 147.32 464.73 147.15 465.23 146.99 465.7 146.79 466.11 146.56 467.4 145.84 468.51 144.88 469.42 143.68L469.76 143.22 470.22 143.56 473.45 146.07 473.88 146.41 473.59 146.84C473.42 147.11 473.23 147.37 473.03 147.63 472.83 147.89 472.62 148.14 472.4 148.4 472.18 148.66 471.95 148.91 471.7 149.16 470.96 149.9 470.1 150.57 469.13 151.16 468.63 151.45 468.1 151.7 467.53 151.93 466.94 152.18 466.3 152.39 465.62 152.56 464.94 152.73 464.2 152.86 463.42 152.95ZM462.16 126.67C461.59 126.57 460.96 126.51 460.28 126.51 459.92 126.51 459.57 126.53 459.24 126.57 458.91 126.61 458.58 126.67 458.27 126.74 457.96 126.82 457.65 126.9 457.34 127 457.17 127.08 457 127.15 456.83 127.23 456.66 127.31 456.49 127.39 456.32 127.49 456.15 127.59 455.99 127.68 455.83 127.78 455.68 127.88 455.53 127.99 455.37 128.11 455.22 128.23 455.07 128.35 454.94 128.47 454.58 128.79 454.25 129.16 453.95 129.56 453.65 129.96 453.38 130.41 453.14 130.9 452.95 131.3 452.78 131.74 452.63 132.21 452.5 132.67 452.38 133.15 452.29 133.67L467.68 133.67C467.6 132.81 467.44 131.97 467.19 131.13 467.11 130.84 467.01 130.57 466.88 130.3 466.75 130.03 466.6 129.77 466.44 129.51 466.28 129.25 466.1 129.01 465.91 128.78 465.34 128.11 464.6 127.57 463.68 127.15 463.24 126.94 462.74 126.78 462.17 126.68Z" fill="#F15A22"/><path d="M485.72 121.6 485.75 122.14 485.86 124.62C486.85 123.67 488.01 122.89 489.34 122.28 491.13 121.44 493.15 121.02 495.39 121.02 495.96 121.02 496.51 121.04 497.05 121.09 497.58 121.14 498.11 121.21 498.62 121.3 499.12 121.4 499.57 121.52 499.99 121.67 500.66 121.88 501.26 122.15 501.82 122.48 502.37 122.81 502.88 123.22 503.35 123.69 503.82 124.17 504.23 124.7 504.58 125.29 504.93 125.88 505.22 126.54 505.45 127.26 505.95 128.69 506.19 130.4 506.19 132.4L506.19 152.47 499.77 152.47 499.77 132.48C499.77 131.38 499.65 130.45 499.4 129.71 499.29 129.33 499.13 129 498.93 128.71 498.73 128.42 498.51 128.17 498.26 127.94 497.76 127.5 497.14 127.18 496.38 126.97 495.6 126.74 494.69 126.63 493.64 126.63 493.39 126.63 493.15 126.63 492.91 126.66 492.67 126.68 492.43 126.7 492.2 126.73 491.97 126.76 491.73 126.8 491.51 126.84 491.29 126.89 491.07 126.95 490.85 127.01 490.63 127.08 490.42 127.15 490.22 127.24 490.02 127.33 489.82 127.42 489.62 127.51 489.42 127.61 489.22 127.71 489.03 127.82 488.38 128.22 487.8 128.69 487.29 129.22 486.79 129.73 486.38 130.32 486.03 130.96L486.03 152.46 479.61 152.46 479.61 121.56 485.72 121.56Z" fill="#F15A22"/><path d="M521.89 114.12 521.89 121.6 527.66 121.6 527.66 126.83 521.89 126.83 521.89 144.62C521.89 145.31 521.98 145.85 522.15 146.25 522.3 146.63 522.49 146.92 522.72 147.11 522.82 147.19 522.91 147.25 522.99 147.3 523.08 147.35 523.17 147.39 523.26 147.43 523.36 147.47 523.46 147.5 523.57 147.52 523.74 147.56 523.93 147.59 524.13 147.61 524.33 147.63 524.53 147.64 524.72 147.64 524.85 147.64 524.99 147.64 525.13 147.63 525.27 147.63 525.42 147.61 525.56 147.59 525.7 147.57 525.85 147.55 526 147.53 526.48 147.45 526.85 147.39 527.11 147.33L527.8 147.19 527.8 152.39 527.37 152.5C527.16 152.56 526.92 152.62 526.64 152.69 526.36 152.76 526.05 152.83 525.71 152.9 525.01 153.03 524.16 153.1 523.17 153.1 522.66 153.1 522.16 153.06 521.67 152.99 521.18 152.91 520.7 152.81 520.23 152.68 519.28 152.38 518.45 151.88 517.75 151.2 517.05 150.53 516.48 149.66 516.07 148.57 515.67 147.48 515.47 146.17 515.47 144.63L515.47 126.87 509.84 126.87 509.84 121.64 515.47 121.64 515.47 114.16 521.89 114.16Z" fill="#F15A22"/><path d="M552.28 144.63C552.34 144.39 552.37 144.15 552.37 143.9 552.37 143.41 552.29 142.95 552.14 142.53 552.01 142.13 551.71 141.75 551.25 141.39 550.74 141.01 550 140.65 549.05 140.3 548.55 140.13 547.98 139.96 547.32 139.79 546.66 139.62 545.93 139.46 545.11 139.3 543.21 138.96 541.48 138.55 539.94 138.07 539.73 137.99 539.52 137.92 539.3 137.84 539.08 137.76 538.88 137.69 538.7 137.61 538.52 137.53 538.34 137.45 538.16 137.37 537.98 137.29 537.8 137.2 537.63 137.11 537.46 137.02 537.29 136.94 537.13 136.85 536.97 136.76 536.81 136.67 536.66 136.58 536.51 136.49 536.36 136.38 536.23 136.27 535.2 135.57 534.4 134.72 533.83 133.73 533.28 132.74 533 131.59 533 130.28 533 128.97 533.3 127.83 533.89 126.71 534.46 125.59 535.27 124.61 536.32 123.77 537.37 122.93 538.66 122.28 540.2 121.8 540.62 121.67 541.04 121.55 541.47 121.46 541.9 121.37 542.34 121.28 542.78 121.22 543.23 121.15 543.68 121.11 544.15 121.08 544.62 121.05 545.1 121.04 545.59 121.04 547.68 121.04 549.56 121.31 551.22 121.84 551.77 122.01 552.28 122.21 552.73 122.43 553.19 122.65 553.62 122.89 554.03 123.16 554.44 123.43 554.83 123.71 555.19 124.02 556.26 124.95 557.07 126.04 557.65 127.29 558.22 128.54 558.51 129.87 558.51 131.27L558.51 131.84 552.06 131.84 552.06 131.27C552.06 130.72 551.93 130.17 551.66 129.61 551.39 129.04 550.98 128.52 550.43 128.07 549.88 127.62 549.2 127.24 548.4 126.96 547.6 126.68 546.67 126.53 545.6 126.53 545.01 126.53 544.48 126.56 544 126.62 543.52 126.68 543.09 126.76 542.69 126.88 541.93 127.11 541.31 127.4 540.83 127.77 540.68 127.88 540.53 128.01 540.4 128.14 540.27 128.27 540.15 128.41 540.06 128.54 539.96 128.67 539.88 128.82 539.8 128.97 539.59 129.41 539.49 129.87 539.49 130.34 539.49 130.59 539.51 130.82 539.55 131.03 539.59 131.24 539.65 131.43 539.75 131.6 539.9 131.94 540.23 132.27 540.72 132.57 541.25 132.89 541.99 133.2 542.95 133.48 543.2 133.56 543.46 133.63 543.75 133.69 544.04 133.76 544.34 133.83 544.66 133.9 544.98 133.98 545.33 134.05 545.69 134.13 546.05 134.21 546.43 134.28 546.83 134.36 548.92 134.8 550.73 135.28 552.26 135.82 553.71 136.37 554.92 137.02 555.89 137.76 556.86 138.5 557.59 139.37 558.09 140.36 558.32 140.86 558.49 141.39 558.62 141.96 558.75 142.53 558.81 143.13 558.81 143.76 558.81 144.22 558.78 144.67 558.71 145.1 558.64 145.54 558.54 145.96 558.41 146.37 558.28 146.78 558.11 147.18 557.9 147.55 557.31 148.71 556.45 149.7 555.33 150.52 554.97 150.79 554.58 151.03 554.16 151.26 553.74 151.49 553.3 151.7 552.85 151.89 552.39 152.08 551.89 152.25 551.34 152.4 549.68 152.86 547.84 153.09 545.8 153.09 543.48 153.09 541.42 152.79 539.63 152.2 537.96 151.59 536.56 150.79 535.43 149.8 534.31 148.81 533.45 147.67 532.86 146.39 532.27 145.11 531.97 143.79 531.97 142.44L531.97 141.87 538.37 141.87 538.4 142.41C538.42 142.91 538.49 143.36 538.61 143.77 538.73 144.18 538.9 144.55 539.11 144.87 539.34 145.19 539.6 145.49 539.88 145.76 540.17 146.03 540.49 146.27 540.85 146.47 541.55 146.89 542.33 147.18 543.19 147.36 544.05 147.55 544.91 147.65 545.79 147.65 546.36 147.65 546.89 147.63 547.39 147.58 547.89 147.53 548.34 147.45 548.76 147.34 548.97 147.3 549.17 147.25 549.36 147.18 549.55 147.11 549.74 147.05 549.92 146.98 550.1 146.91 550.27 146.84 550.42 146.77 550.57 146.69 550.72 146.61 550.85 146.51 551.38 146.19 551.77 145.81 552.02 145.37 552.15 145.14 552.25 144.91 552.31 144.67Z" fill="#F15A22"/></g></svg>