<svg viewBox="0 0 232.83 232.83" xmlns="http://www.w3.org/2000/svg" xmlns:xlink="http://www.w3.org/1999/xlink" overflow="hidden"><defs><radialGradient cx="198.73" cy="16.86" r="458.03" fx="198.73" fy="16.86" gradientUnits="userSpaceOnUse" id="radial-gradient"><stop offset="0" stop-color="#F68E4A"/><stop offset="0.16" stop-color="#F58847"/><stop offset="0.37" stop-color="#F47742"/><stop offset="0.61" stop-color="#F15B38"/><stop offset="0.87" stop-color="#EE352B"/><stop offset="1" stop-color="#ED2024"/></radialGradient><radialGradient cx="195.01" cy="20.65" r="375.91" fx="195.01" fy="20.65" gradientUnits="userSpaceOnUse" id="radial-gradient-2"><stop offset="0" stop-color="#FFFFFF"/><stop offset="0.26" stop-color="#FBFBFB"/><stop offset="0.47" stop-color="#F1F1F1"/><stop offset="0.67" stop-color="#E0E0E0"/><stop offset="0.85" stop-color="#C8C8C9"/><stop offset="1" stop-color="#B0B0B1"/></radialGradient><radialGradient cx="47.51" cy="191.26" r="210.13" fx="47.51" fy="191.26" xlink:href="#radial-gradient-2" id="radial-gradient-3"></radialGradient><radialGradient cx="181.64" cy="52.83" r="177.41" fx="181.64" fy="52.83" xlink:href="#radial-gradient-2" id="radial-gradient-4"></radialGradient></defs><g><g id="Layer_1"><circle cx="116.41" cy="116.41" r="116.41" opacity="0.57"/><path d="M232.16 111.07C232.16 172.41 182.43 222.14 121.09 222.14 59.75 222.14 10.02 172.41 10.02 111.07 10.02 49.73 59.75 0 121.09 0 182.43 0 232.16 49.73 232.16 111.07Z" fill="url(#radial-gradient)"/><g><path d="M212.24 111.07C212.24 161.42 171.43 202.23 121.09 202.23 70.75 202.23 29.93 161.41 29.93 111.07 29.93 60.73 70.75 19.91 121.09 19.91 171.43 19.91 212.24 60.72 212.24 111.06Z" fill="url(#radial-gradient-2)"/><path d="M207.75 111.07C207.75 158.93 168.95 197.73 121.09 197.73 73.23 197.73 34.43 158.93 34.43 111.07 34.43 63.21 73.23 24.41 121.09 24.41 168.95 24.41 207.75 63.21 207.75 111.07Z" fill="url(#radial-gradient-3)"/><g><path d="M194.25 115.92C194.25 161.88 158.75 194.49 112.78 194.49 66.81 194.49 35.03 148.35 38.89 110.1 42.75 71.85 69.47 40.5 115.44 40.5 161.41 40.5 194.25 69.94 194.25 115.91Z" fill="#FFFFFF" opacity="0"/><path d="M193.94 115.54C193.94 161.19 158.74 193.87 113.08 193.87 67.42 193.87 35.76 148.47 39.49 110.28 43.22 72.09 70.06 40.76 115.72 40.76 161.38 40.76 193.94 69.87 193.94 115.53Z" fill="#F1F0F0" opacity="0.03"/><path d="M193.63 115.15C193.63 160.49 158.74 193.23 113.39 193.23 68.04 193.23 36.49 148.59 40.09 110.46 43.7 72.33 70.65 41.02 115.99 41.02 161.33 41.02 193.63 69.8 193.63 115.15Z" fill="#E8E6E6" opacity="0.06"/><path d="M193.32 114.77C193.32 159.8 158.73 192.61 113.7 192.61 68.67 192.61 37.21 148.71 40.7 110.64 44.18 72.57 71.25 41.28 116.28 41.28 161.31 41.28 193.33 69.73 193.33 114.77Z" fill="#E0DEDE" opacity="0.1"/><path d="M193.02 114.39C193.02 159.11 158.74 191.99 114.01 191.99 69.28 191.99 37.94 148.83 41.3 110.82 44.66 72.82 71.83 41.54 116.56 41.54 161.29 41.54 193.02 69.66 193.02 114.38Z" fill="#D8D6D6" opacity="0.13"/><path d="M192.71 114.01C192.71 158.42 158.73 191.36 114.32 191.36 69.91 191.36 38.67 148.95 41.9 111 45.13 73.06 72.42 41.8 116.84 41.8 161.26 41.8 192.71 69.58 192.71 114Z" fill="#D0CECE" opacity="0.16"/><path d="M192.4 113.62C192.4 157.72 158.73 190.73 114.62 190.73 70.51 190.73 39.39 149.06 42.5 111.18 45.61 73.3 73.01 42.06 117.11 42.06 161.21 42.06 192.39 69.51 192.39 113.62Z" fill="#C9C6C6" opacity="0.19"/><path d="M192.09 113.24C192.09 157.03 158.72 190.1 114.93 190.1 71.14 190.1 40.12 149.18 43.1 111.36 46.08 73.54 73.6 42.32 117.39 42.32 161.18 42.32 192.08 69.44 192.08 113.24Z" fill="#C2BFBF" opacity="0.23"/><path d="M191.78 112.86C191.78 156.34 158.72 189.48 115.24 189.48 71.76 189.48 40.85 149.3 43.71 111.55 46.57 73.79 74.19 42.59 117.68 42.59 161.17 42.59 191.78 69.38 191.78 112.86Z" fill="#BBB8B8" opacity="0.26"/><path d="M191.47 112.48C191.47 155.65 158.71 188.86 115.54 188.86 72.37 188.86 41.57 149.42 44.31 111.73 47.05 74.04 74.78 42.85 117.95 42.85 161.12 42.85 191.47 69.31 191.47 112.48Z" fill="#B5B1B1" opacity="0.29"/><path d="M191.16 112.09C191.16 154.95 158.71 188.22 115.85 188.22 72.99 188.22 42.3 149.54 44.91 111.91 47.52 74.28 75.37 43.11 118.23 43.11 161.09 43.11 191.16 69.24 191.16 112.1Z" fill="#AEAAAB" opacity="0.32"/><path d="M190.85 111.71C190.85 154.25 158.71 187.6 116.16 187.6 73.61 187.6 43.03 149.66 45.51 112.09 48 74.52 75.96 43.37 118.51 43.37 161.06 43.37 190.85 69.16 190.85 111.71Z" fill="#A8A3A4" opacity="0.35"/><path d="M190.54 111.33C190.54 153.56 158.7 186.97 116.46 186.97 74.22 186.97 43.75 149.77 46.12 112.27 48.48 74.76 76.56 43.63 118.79 43.63 161.02 43.63 190.54 69.09 190.54 111.33Z" fill="#A19D9E" opacity="0.39"/><path d="M190.23 110.95C190.23 152.87 158.7 186.35 116.77 186.35 74.84 186.35 44.48 149.89 46.72 112.45 48.96 75.01 77.14 43.89 119.07 43.89 161 43.89 190.23 69.02 190.23 110.95Z" fill="#9B9798" opacity="0.42"/><path d="M189.92 110.56C189.92 152.17 158.69 185.72 117.08 185.72 75.47 185.72 45.21 150.01 47.32 112.63 49.43 75.25 77.73 44.15 119.35 44.15 160.97 44.15 189.92 68.95 189.92 110.57Z" fill="#959192" opacity="0.45"/><path d="M189.61 110.18C189.61 151.48 158.69 185.09 117.38 185.09 76.07 185.09 45.93 150.13 47.92 112.81 49.91 75.49 78.32 44.41 119.62 44.41 160.92 44.41 189.61 68.88 189.61 110.18Z" fill="#908B8C" opacity="0.48"/><path d="M189.3 109.8C189.3 150.79 158.68 184.47 117.69 184.47 76.7 184.47 46.66 150.25 48.52 112.99 50.39 75.73 78.91 44.67 119.9 44.67 160.89 44.67 189.3 68.81 189.3 109.8Z" fill="#8A8586" opacity="0.52"/><path d="M188.99 109.41C188.99 150.09 158.68 183.83 117.99 183.83 77.3 183.83 47.39 150.37 49.13 113.17 50.87 75.97 79.5 44.93 120.19 44.93 160.88 44.93 189 68.74 189 109.42Z" fill="#847F81" opacity="0.55"/><path d="M188.68 109.03C188.68 149.4 158.67 183.21 118.3 183.21 77.93 183.21 48.11 150.48 49.73 113.35 51.35 76.22 80.09 45.19 120.46 45.19 160.83 45.19 188.68 68.66 188.68 109.04Z" fill="#7F7A7B" opacity="0.58"/><path d="M188.37 108.65C188.37 148.71 158.67 182.59 118.61 182.59 78.55 182.59 48.84 150.61 50.33 113.53 51.82 76.46 80.68 45.45 120.74 45.45 160.8 45.45 188.37 68.59 188.37 108.65Z" fill="#797576" opacity="0.61"/><path d="M188.06 108.27C188.06 148.02 158.66 181.96 118.91 181.96 79.16 181.96 49.56 150.72 50.93 113.71 52.3 76.7 81.27 45.71 121.02 45.71 160.77 45.71 188.06 68.52 188.06 108.27Z" fill="#747071" opacity="0.65"/><path d="M187.75 107.88C187.75 147.32 158.66 181.33 119.22 181.33 79.78 181.33 50.29 150.84 51.53 113.89 52.77 76.94 81.86 45.97 121.29 45.97 160.72 45.97 187.74 68.45 187.74 107.89Z" fill="#6F6B6C" opacity="0.68"/><path d="M187.45 107.5C187.45 146.63 158.66 180.71 119.54 180.71 80.42 180.71 51.03 150.96 52.15 114.07 53.27 77.18 82.46 46.23 121.59 46.23 160.72 46.23 187.46 68.38 187.46 107.51Z" fill="#6A6667" opacity="0.71"/><path d="M187.14 107.12C187.14 145.93 158.66 180.08 119.84 180.08 81.02 180.08 51.75 151.08 52.74 114.25 53.73 77.43 83.04 46.48 121.86 46.48 160.68 46.48 187.14 68.3 187.14 107.11Z" fill="#656163" opacity="0.74"/><path d="M186.83 106.74C186.83 145.24 158.65 179.46 120.15 179.46 81.65 179.46 52.48 151.2 53.35 114.44 54.22 77.68 83.64 46.75 122.15 46.75 160.66 46.75 186.84 68.23 186.84 106.74Z" fill="#615D5E" opacity="0.77"/><path d="M186.52 106.35C186.52 144.54 158.65 178.82 120.46 178.82 82.27 178.82 53.21 151.31 53.95 114.6 54.7 77.9 84.23 46.99 122.42 46.99 160.61 46.99 186.52 68.14 186.52 106.34Z" fill="#5C585A" opacity="0.81"/><path d="M186.21 105.97C186.21 143.85 158.64 178.2 120.76 178.2 82.88 178.2 53.93 151.43 54.55 114.79 55.17 78.15 84.81 47.26 122.7 47.26 160.59 47.26 186.21 68.08 186.21 105.97Z" fill="#585456" opacity="0.84"/><path d="M185.9 105.59C185.9 143.16 158.64 177.58 121.07 177.58 83.5 177.58 54.66 151.56 55.15 114.98 55.65 78.4 85.4 47.53 122.98 47.53 160.56 47.53 185.9 68.02 185.9 105.59Z" fill="#535052" opacity="0.87"/><path d="M185.59 105.21C185.59 142.47 158.64 176.95 121.37 176.95 84.1 176.95 55.37 151.67 55.75 115.15 56.12 78.64 85.99 47.78 123.25 47.78 160.51 47.78 185.58 67.94 185.58 105.2Z" fill="#4F4C4E" opacity="0.9"/><path d="M185.28 104.82C185.28 141.77 158.63 176.32 121.68 176.32 84.73 176.32 56.1 151.79 56.35 115.33 56.6 78.88 86.58 48.04 123.53 48.04 160.48 48.04 185.28 67.87 185.28 104.82Z" fill="#4B484A" opacity="0.94"/><path d="M184.97 104.44C184.97 141.08 158.63 175.69 121.99 175.69 85.35 175.69 56.83 151.9 56.96 115.51 57.08 79.12 87.18 48.3 123.82 48.3 160.46 48.3 184.98 67.8 184.98 104.44Z" fill="#464547" opacity="0.97"/><path d="M184.66 104.06C184.66 140.39 158.62 175.07 122.29 175.07 85.96 175.07 57.55 152.02 57.55 115.69 57.55 79.36 87.76 48.56 124.09 48.56 160.42 48.56 184.66 67.72 184.66 104.05Z" fill="#424143"/></g><path d="M194.25 111.07C194.25 151.48 161.5 184.24 121.09 184.24 80.68 184.24 47.93 151.48 47.93 111.07 47.93 70.66 80.68 37.9 121.09 37.9 161.5 37.9 194.25 70.66 194.25 111.06Z" fill="url(#radial-gradient-4)"/></g><path d="M133.4 65.86 113.2 65.86 158.42 111.07 113.2 156.28 133.4 156.28 178.61 111.07 133.4 65.86Z" fill="#72787C"/><path d="M106.06 65.86 85.87 65.86 131.08 111.07 85.87 156.28 106.06 156.28 151.28 111.07 106.06 65.86Z" fill="#94A7B8" opacity="0.49"/></g></g></svg>