<svg viewBox="0 0 356.59 489.29" xmlns="http://www.w3.org/2000/svg" xmlns:xlink="http://www.w3.org/1999/xlink" id="Layer_1" overflow="hidden"><defs></defs><rect x="0.5" y="0.5" rx="20.5" ry="20.5" width="355.59" height="488.29" stroke="#515251" stroke-miterlimit="10" fill="#FFFFFF" opacity="0.76"/><g><path d="M52.45 182.23 52.45 165.05 55.87 165.05 59.94 177.21C60.13 177.78 60.29 178.28 60.43 178.7 60.57 179.12 60.68 179.47 60.76 179.75 60.86 179.44 60.99 179.05 61.14 178.6L61.67 177 65.78 165.05 68.84 165.05 68.84 182.23 66.65 182.23 66.65 167.85 61.66 182.23 59.61 182.23 54.64 167.61 54.64 182.23 52.45 182.23Z" fill="#231F20"/><path d="M70.76 176.01C70.76 173.71 71.4 172.01 72.68 170.89 73.74 169.97 75.05 169.51 76.59 169.51 78.29 169.51 79.69 170.07 80.79 171.2 81.88 172.31 82.42 173.86 82.42 175.84 82.42 177.43 82.18 178.7 81.69 179.63 81.21 180.55 80.51 181.26 79.59 181.76 78.67 182.27 77.67 182.52 76.59 182.52 74.85 182.52 73.44 181.96 72.36 180.84 71.29 179.72 70.75 178.11 70.75 176.01ZM72.93 176.01C72.93 177.6 73.28 178.79 73.97 179.6 74.67 180.39 75.54 180.78 76.59 180.78 77.64 180.78 78.51 180.38 79.2 179.58 79.9 178.78 80.24 177.56 80.24 175.94 80.24 174.4 79.89 173.24 79.19 172.45 78.49 171.65 77.63 171.25 76.59 171.25 75.55 171.25 74.66 171.64 73.97 172.43 73.28 173.22 72.93 174.41 72.93 176Z" fill="#231F20"/><path d="M89.8 182.21C89.22 182.33 88.69 182.4 88.21 182.4 87.44 182.4 86.85 182.28 86.43 182.04 86.01 181.8 85.71 181.48 85.54 181.09 85.37 180.7 85.28 179.87 85.28 178.59L85.28 171.43 83.73 171.43 83.73 169.79 85.28 169.79 85.28 166.71 87.38 165.44 87.38 169.79 89.5 169.79 89.5 171.43 87.38 171.43 87.38 178.71C87.38 179.31 87.42 179.7 87.49 179.87 87.57 180.04 87.69 180.18 87.85 180.28 88.02 180.38 88.26 180.43 88.58 180.43 88.7 180.43 88.83 180.43 88.98 180.41 89.13 180.39 89.31 180.38 89.5 180.35L89.8 182.21Z" fill="#231F20"/><path d="M96.91 182.21C96.33 182.33 95.8 182.4 95.32 182.4 94.55 182.4 93.96 182.28 93.54 182.04 93.12 181.8 92.82 181.48 92.65 181.09 92.48 180.7 92.39 179.87 92.39 178.59L92.39 171.43 90.84 171.43 90.84 169.79 92.39 169.79 92.39 166.71 94.49 165.44 94.49 169.79 96.61 169.79 96.61 171.43 94.49 171.43 94.49 178.71C94.49 179.31 94.53 179.7 94.6 179.87 94.68 180.04 94.8 180.18 94.96 180.28 95.13 180.38 95.37 180.43 95.69 180.43 95.81 180.43 95.94 180.43 96.09 180.41 96.24 180.39 96.42 180.38 96.61 180.35L96.91 182.21Z" fill="#231F20"/><path d="M98.33 176.01C98.33 173.71 98.97 172.01 100.25 170.89 101.31 169.97 102.62 169.51 104.16 169.51 105.86 169.51 107.26 170.07 108.36 171.2 109.45 172.31 109.99 173.86 109.99 175.84 109.99 177.43 109.75 178.7 109.26 179.63 108.78 180.55 108.08 181.26 107.16 181.76 106.24 182.27 105.24 182.52 104.16 182.52 102.42 182.52 101.01 181.96 99.93 180.84 98.86 179.72 98.32 178.11 98.32 176.01ZM100.5 176.01C100.5 177.6 100.85 178.79 101.54 179.6 102.24 180.39 103.11 180.78 104.16 180.78 105.21 180.78 106.08 180.38 106.77 179.58 107.47 178.78 107.81 177.56 107.81 175.94 107.81 174.4 107.46 173.24 106.76 172.45 106.06 171.65 105.2 171.25 104.16 171.25 103.12 171.25 102.23 171.64 101.54 172.43 100.85 173.22 100.5 174.41 100.5 176Z" fill="#231F20"/><path d="M112.45 182.23 112.45 169.78 114.35 169.78 114.35 171.55C115.26 170.18 116.58 169.5 118.31 169.5 119.05 169.5 119.74 169.64 120.37 169.91 120.99 170.18 121.47 170.53 121.79 170.96 121.95 171.18 122.08 171.42 122.19 171.68 122.3 171.94 122.39 172.22 122.45 172.52 122.49 172.72 122.52 172.98 122.54 173.32 122.56 173.66 122.57 174.08 122.57 174.57L122.57 182.22 120.46 182.22 120.46 174.65C120.46 173.79 120.38 173.15 120.21 172.73 120.05 172.3 119.75 171.96 119.33 171.71 118.92 171.45 118.43 171.32 117.87 171.32 116.96 171.32 116.19 171.61 115.54 172.18 114.89 172.76 114.57 173.84 114.57 175.43L114.57 182.23 112.46 182.23Z" fill="#231F20"/><path d="M52.55 230.23 52.55 213.05 60.17 213.05C61.71 213.05 62.87 213.21 63.66 213.52 64.46 213.82 65.09 214.37 65.57 215.15 66.05 215.93 66.28 216.79 66.28 217.74 66.28 218.96 65.89 219.99 65.1 220.82 64.3 221.66 63.08 222.2 61.44 222.41 62.05 222.71 62.51 222.99 62.81 223.27 63.15 223.57 63.47 223.92 63.78 224.3 64.09 224.68 64.4 225.1 64.69 225.56L67.68 230.24 64.82 230.24 62.55 226.67C62.05 225.88 61.62 225.24 61.26 224.76 60.9 224.28 60.58 223.89 60.29 223.61 60 223.33 59.74 223.12 59.49 222.99 59.24 222.86 58.98 222.76 58.71 222.69 58.47 222.64 58.05 222.61 57.44 222.61L54.8 222.61 54.8 230.24 52.53 230.24ZM54.82 220.63 59.71 220.63C60.23 220.63 60.68 220.6 61.09 220.55 61.5 220.5 61.85 220.42 62.15 220.3 62.45 220.18 62.71 220.05 62.93 219.88 63.15 219.71 63.33 219.51 63.49 219.28 63.79 218.8 63.95 218.29 63.95 217.73 63.95 216.92 63.65 216.25 63.06 215.73 62.48 215.21 61.55 214.94 60.27 214.94L54.83 214.94 54.83 220.62Z" fill="#231F20"/><path d="M80.51 226.5C80.16 227.78 79.52 228.77 78.6 229.47 77.68 230.17 76.49 230.52 75.04 230.52 73.22 230.52 71.77 229.96 70.7 228.84 69.64 227.72 69.11 226.15 69.11 224.12 69.11 222.09 69.65 220.41 70.73 219.24 71.81 218.08 73.21 217.51 74.93 217.51 76.65 217.51 77.95 218.08 79.01 219.21 80.06 220.35 80.59 221.94 80.59 223.99L80.59 224.22C80.59 224.31 80.59 224.42 80.58 224.55L71.3 224.55C71.38 225.92 71.76 226.96 72.46 227.69 73.15 228.42 74.01 228.78 75.06 228.78 75.83 228.78 76.49 228.58 77.04 228.17 77.59 227.76 78.02 227.12 78.34 226.22L80.52 226.49ZM78.35 222.82C78.26 221.78 77.99 221 77.55 220.46 76.88 219.65 76.01 219.24 74.94 219.24 73.98 219.24 73.16 219.56 72.49 220.21 71.83 220.86 71.47 221.73 71.4 222.81L78.35 222.81Z" fill="#231F20"/><path d="M91.17 230.23 91.17 228.66C90.38 229.89 89.22 230.51 87.69 230.51 86.69 230.51 85.78 230.24 84.95 229.69 84.11 229.14 83.47 228.38 83.02 227.4 82.57 226.42 82.34 225.29 82.34 224.01 82.34 222.73 82.55 221.65 82.96 220.63 83.37 219.61 83.99 218.84 84.82 218.3 85.65 217.76 86.57 217.49 87.6 217.49 88.36 217.49 89.03 217.65 89.6 217.96 90.17 218.27 90.65 218.69 91.03 219.2L91.03 213.04 93.13 213.04 93.13 230.22 91.17 230.22ZM84.5 224.02C84.5 225.61 84.84 226.81 85.51 227.59 86.18 228.37 86.97 228.77 87.89 228.77 88.81 228.77 89.59 228.39 90.23 227.65 90.88 226.88 91.2 225.73 91.2 224.19 91.2 222.49 90.87 221.24 90.22 220.44 89.57 219.64 88.76 219.24 87.79 219.24 86.82 219.24 86.07 219.62 85.43 220.39 84.81 221.16 84.49 222.36 84.49 224.01Z" fill="#231F20"/><path d="M106.64 230.23 104.68 230.23 104.68 213.05 106.79 213.05 106.79 219.18C107.68 218.06 108.82 217.5 110.2 217.5 110.97 217.5 111.7 217.65 112.37 217.96 113.04 218.27 113.61 218.7 114.05 219.27 114.49 219.84 114.84 220.51 115.09 221.29 115.34 222.07 115.47 222.92 115.47 223.82 115.47 225.96 114.94 227.61 113.89 228.77 112.84 229.93 111.57 230.52 110.09 230.52 108.61 230.52 107.46 229.91 106.63 228.68L106.63 230.24ZM106.62 223.91C106.62 225.4 106.82 226.48 107.23 227.14 107.89 228.23 108.79 228.77 109.93 228.77 110.85 228.77 111.65 228.37 112.32 227.57 112.99 226.76 113.33 225.56 113.33 223.98 113.33 222.4 113.01 221.16 112.36 220.38 111.71 219.61 110.93 219.22 110.03 219.22 109.13 219.22 108.3 219.62 107.64 220.43 106.97 221.23 106.63 222.39 106.63 223.9Z" fill="#231F20"/><path d="M128.41 226.5C128.06 227.78 127.42 228.77 126.5 229.47 125.58 230.17 124.39 230.52 122.94 230.52 121.12 230.52 119.67 229.96 118.6 228.84 117.54 227.72 117.01 226.15 117.01 224.12 117.01 222.09 117.55 220.41 118.63 219.24 119.71 218.08 121.11 217.51 122.83 217.51 124.55 217.51 125.85 218.08 126.91 219.21 127.96 220.35 128.49 221.94 128.49 223.99L128.49 224.22C128.49 224.31 128.49 224.42 128.48 224.55L119.2 224.55C119.28 225.92 119.66 226.96 120.36 227.69 121.05 228.42 121.91 228.78 122.96 228.78 123.73 228.78 124.39 228.58 124.94 228.17 125.49 227.76 125.92 227.12 126.24 226.22L128.42 226.49ZM126.25 222.82C126.16 221.78 125.89 221 125.45 220.46 124.78 219.65 123.91 219.24 122.84 219.24 121.88 219.24 121.06 219.56 120.39 220.21 119.73 220.86 119.37 221.73 119.3 222.81L126.25 222.81Z" fill="#231F20"/><path d="M139.11 228.7C138.32 229.37 137.57 229.84 136.85 230.11 136.12 230.38 135.35 230.52 134.53 230.52 133.16 230.52 132.11 230.19 131.38 229.52 130.65 228.85 130.28 228 130.28 226.95 130.28 226.48 130.36 226.05 130.52 225.66 130.68 225.27 130.9 224.92 131.17 224.62 131.44 224.32 131.76 224.06 132.13 223.85 132.5 223.64 132.89 223.48 133.3 223.38 133.71 223.28 134.33 223.17 135.18 223.06 136.86 222.86 138.11 222.62 138.94 222.33 138.94 222.18 138.95 222.06 138.95 221.97L138.95 221.78C138.95 220.92 138.75 220.32 138.35 219.96 137.82 219.48 137.02 219.25 135.95 219.25 134.96 219.25 134.22 219.43 133.75 219.78 133.28 220.12 132.93 220.74 132.71 221.62L130.65 221.34C130.84 220.46 131.15 219.74 131.58 219.2 132.01 218.66 132.63 218.24 133.44 217.95 134.26 217.65 135.2 217.5 136.26 217.5 137.32 217.5 138.19 217.62 138.85 217.88 139.51 218.14 140 218.45 140.31 218.83 140.61 219.19 140.83 219.67 140.97 220.26 141.04 220.63 141.08 221.28 141.08 222.21L141.08 225.02C141.08 226 141.09 226.81 141.12 227.42 141.15 228.03 141.17 228.48 141.21 228.74 141.3 229.26 141.48 229.76 141.75 230.23L139.55 230.23C139.33 229.8 139.19 229.29 139.13 228.69ZM138.93 223.99C138.55 224.15 138.07 224.29 137.5 224.42 136.93 224.55 136.26 224.67 135.48 224.78 134.62 224.9 134.01 225.05 133.64 225.2 133.29 225.35 133.01 225.58 132.81 225.89 132.61 226.18 132.52 226.51 132.52 226.89 132.52 227.17 132.57 227.43 132.68 227.68 132.79 227.93 132.94 228.13 133.15 228.31 133.36 228.49 133.62 228.62 133.94 228.72 134.26 228.82 134.62 228.87 135.03 228.87 135.44 228.87 135.82 228.82 136.19 228.73 136.56 228.64 136.89 228.5 137.2 228.33 137.51 228.16 137.78 227.95 138.01 227.7 138.24 227.45 138.44 227.18 138.59 226.87 138.82 226.38 138.93 225.67 138.93 224.76L138.93 223.99Z" fill="#231F20"/><path d="M144.07 230.23 144.07 217.78 145.97 217.78 145.97 219.55C146.88 218.18 148.2 217.5 149.93 217.5 150.67 217.5 151.36 217.64 151.99 217.91 152.61 218.18 153.09 218.53 153.41 218.96 153.57 219.18 153.7 219.42 153.81 219.68 153.92 219.94 154.01 220.22 154.07 220.52 154.11 220.72 154.14 220.98 154.16 221.32 154.18 221.66 154.19 222.08 154.19 222.57L154.19 230.22 152.08 230.22 152.08 222.65C152.08 221.79 152 221.15 151.83 220.73 151.67 220.3 151.37 219.96 150.95 219.71 150.54 219.45 150.05 219.32 149.49 219.32 148.58 219.32 147.81 219.61 147.16 220.18 146.51 220.76 146.19 221.84 146.19 223.43L146.19 230.23 144.08 230.23Z" fill="#231F20"/><path d="M67.05 272.78C66.57 274.66 65.71 276.08 64.47 277.06 63.23 278.04 61.72 278.52 59.93 278.52 58.14 278.52 56.57 278.14 55.41 277.39 54.25 276.64 53.37 275.54 52.76 274.11 52.16 272.67 51.86 271.14 51.86 269.5 51.86 267.71 52.2 266.15 52.88 264.82 53.57 263.49 54.54 262.48 55.8 261.78 57.07 261.08 58.46 260.74 59.97 260.74 61.7 260.74 63.14 261.18 64.31 262.05 65.49 262.93 66.31 264.16 66.76 265.74L64.52 266.27C64.12 265.02 63.54 264.11 62.79 263.54 62.04 262.97 61.08 262.68 59.93 262.68 58.61 262.68 57.5 263 56.61 263.63 55.73 264.26 55.11 265.11 54.75 266.18 54.39 267.23 54.21 268.33 54.21 269.47 54.21 270.2 54.26 270.88 54.37 271.53 54.48 272.18 54.64 272.76 54.85 273.3 55.06 273.84 55.34 274.31 55.67 274.72 56 275.13 56.39 275.47 56.84 275.74 57.74 276.28 58.71 276.55 59.76 276.55 60.39 276.55 60.98 276.46 61.53 276.27 62.08 276.08 62.57 275.81 62.99 275.44 63.41 275.07 63.79 274.62 64.09 274.07 64.39 273.52 64.63 272.89 64.78 272.17L67.05 272.74Z" fill="#231F20"/><path d="M69.03 272.01C69.03 269.71 69.67 268.01 70.95 266.89 72.01 265.97 73.32 265.51 74.86 265.51 76.56 265.51 77.96 266.07 79.06 267.2 80.15 268.31 80.69 269.86 80.69 271.84 80.69 273.43 80.45 274.7 79.96 275.63 79.48 276.55 78.78 277.26 77.86 277.76 76.94 278.27 75.94 278.52 74.86 278.52 73.12 278.52 71.71 277.96 70.63 276.84 69.56 275.72 69.02 274.11 69.02 272.01ZM71.2 272.01C71.2 273.6 71.55 274.79 72.24 275.6 72.94 276.39 73.81 276.78 74.86 276.78 75.91 276.78 76.78 276.38 77.47 275.58 78.17 274.78 78.51 273.56 78.51 271.94 78.51 270.4 78.16 269.24 77.46 268.45 76.76 267.65 75.9 267.25 74.86 267.25 73.82 267.25 72.93 267.64 72.24 268.43 71.55 269.22 71.2 270.41 71.2 272Z" fill="#231F20"/><path d="M83.13 278.23 83.13 265.78 85.03 265.78 85.03 267.67C85.51 266.79 85.96 266.21 86.37 265.92 86.78 265.63 87.23 265.5 87.73 265.5 88.44 265.5 89.16 265.73 89.9 266.18L89.17 268.14C88.65 267.84 88.14 267.68 87.62 267.68 87.15 267.68 86.74 267.82 86.37 268.1 86 268.38 85.75 268.76 85.59 269.25 85.36 270 85.24 270.82 85.24 271.71L85.24 278.23 83.13 278.23Z" fill="#231F20"/><path d="M92.46 263.48 92.46 261.05 94.57 261.05 94.57 263.48 92.46 263.48ZM92.46 278.23 92.46 265.78 94.57 265.78 94.57 278.23 92.46 278.23Z" fill="#231F20"/><path d="M105.57 276.7C104.78 277.37 104.03 277.84 103.31 278.11 102.58 278.38 101.81 278.52 100.99 278.52 99.62 278.52 98.57 278.19 97.84 277.52 97.11 276.85 96.74 276 96.74 274.95 96.74 274.48 96.82 274.05 96.98 273.66 97.14 273.27 97.36 272.92 97.63 272.62 97.9 272.32 98.22 272.06 98.59 271.85 98.96 271.64 99.35 271.48 99.76 271.38 100.17 271.28 100.79 271.17 101.64 271.06 103.32 270.86 104.57 270.62 105.4 270.33 105.4 270.18 105.41 270.06 105.41 269.97L105.41 269.78C105.41 268.92 105.21 268.32 104.81 267.96 104.28 267.48 103.48 267.25 102.41 267.25 101.42 267.25 100.68 267.43 100.21 267.78 99.74 268.12 99.39 268.74 99.17 269.62L97.11 269.34C97.3 268.46 97.61 267.74 98.04 267.2 98.47 266.66 99.09 266.24 99.9 265.95 100.72 265.65 101.66 265.5 102.72 265.5 103.78 265.5 104.65 265.62 105.31 265.88 105.97 266.14 106.46 266.45 106.77 266.83 107.07 267.19 107.29 267.67 107.43 268.26 107.5 268.63 107.54 269.28 107.54 270.21L107.54 273.02C107.54 274 107.55 274.81 107.58 275.42 107.61 276.03 107.63 276.48 107.67 276.74 107.76 277.26 107.94 277.76 108.21 278.23L106.01 278.23C105.79 277.8 105.65 277.29 105.59 276.69ZM105.39 271.99C105.01 272.15 104.53 272.29 103.96 272.42 103.39 272.55 102.72 272.67 101.94 272.78 101.08 272.9 100.47 273.05 100.1 273.2 99.75 273.35 99.47 273.58 99.27 273.89 99.07 274.18 98.98 274.51 98.98 274.89 98.98 275.17 99.03 275.43 99.14 275.68 99.25 275.93 99.4 276.13 99.61 276.31 99.82 276.49 100.08 276.62 100.4 276.72 100.72 276.82 101.08 276.87 101.49 276.87 101.9 276.87 102.28 276.82 102.65 276.73 103.02 276.64 103.35 276.5 103.66 276.33 103.97 276.16 104.24 275.95 104.47 275.7 104.7 275.45 104.9 275.18 105.05 274.87 105.28 274.38 105.39 273.67 105.39 272.76L105.39 271.99Z" fill="#231F20"/><path d="M110.53 278.23 110.53 265.78 112.43 265.78 112.43 267.55C113.34 266.18 114.66 265.5 116.39 265.5 117.13 265.5 117.82 265.64 118.45 265.91 119.07 266.18 119.55 266.53 119.87 266.96 120.03 267.18 120.16 267.42 120.27 267.68 120.38 267.94 120.47 268.22 120.53 268.52 120.57 268.72 120.6 268.98 120.62 269.32 120.64 269.66 120.65 270.08 120.65 270.57L120.65 278.22 118.54 278.22 118.54 270.65C118.54 269.79 118.46 269.15 118.29 268.73 118.13 268.3 117.83 267.96 117.41 267.71 117 267.45 116.51 267.32 115.95 267.32 115.04 267.32 114.27 267.61 113.62 268.18 112.97 268.76 112.65 269.84 112.65 271.43L112.65 278.23 110.54 278.23Z" fill="#231F20"/><path d="M131.16 278.23 131.16 276.66C130.37 277.89 129.21 278.51 127.68 278.51 126.68 278.51 125.77 278.24 124.94 277.69 124.1 277.14 123.46 276.38 123.01 275.4 122.56 274.42 122.33 273.29 122.33 272.01 122.33 270.73 122.54 269.65 122.95 268.63 123.36 267.61 123.98 266.84 124.81 266.3 125.64 265.76 126.56 265.49 127.59 265.49 128.35 265.49 129.02 265.65 129.59 265.96 130.16 266.27 130.64 266.69 131.02 267.2L131.02 261.04 133.12 261.04 133.12 278.22 131.16 278.22ZM124.49 272.02C124.49 273.61 124.83 274.81 125.5 275.59 126.17 276.37 126.96 276.77 127.88 276.77 128.8 276.77 129.58 276.39 130.22 275.65 130.87 274.88 131.19 273.73 131.19 272.19 131.19 270.49 130.86 269.24 130.21 268.44 129.56 267.64 128.75 267.24 127.78 267.24 126.81 267.24 126.06 267.62 125.42 268.39 124.8 269.16 124.48 270.36 124.48 272.01Z" fill="#231F20"/><path d="M146.35 274.5C146 275.78 145.36 276.77 144.44 277.47 143.52 278.17 142.33 278.52 140.88 278.52 139.06 278.52 137.61 277.96 136.54 276.84 135.48 275.72 134.95 274.15 134.95 272.12 134.95 270.09 135.49 268.41 136.57 267.24 137.65 266.08 139.05 265.51 140.77 265.51 142.49 265.51 143.79 266.08 144.85 267.21 145.9 268.35 146.43 269.94 146.43 271.99L146.43 272.22C146.43 272.31 146.43 272.42 146.42 272.55L137.14 272.55C137.22 273.92 137.6 274.96 138.3 275.69 138.99 276.42 139.85 276.78 140.9 276.78 141.67 276.78 142.33 276.58 142.88 276.17 143.43 275.76 143.86 275.12 144.18 274.22L146.36 274.49ZM144.19 270.82C144.1 269.78 143.83 269 143.39 268.46 142.72 267.65 141.85 267.24 140.78 267.24 139.82 267.24 139 267.56 138.33 268.21 137.67 268.86 137.31 269.73 137.24 270.81L144.19 270.81Z" fill="#231F20"/><path d="M148.91 278.23 148.91 265.78 150.81 265.78 150.81 267.67C151.29 266.79 151.74 266.21 152.15 265.92 152.56 265.63 153.01 265.5 153.51 265.5 154.22 265.5 154.94 265.73 155.68 266.18L154.95 268.14C154.43 267.84 153.92 267.68 153.4 267.68 152.93 267.68 152.52 267.82 152.15 268.1 151.78 268.38 151.53 268.76 151.37 269.25 151.14 270 151.02 270.82 151.02 271.71L151.02 278.23 148.91 278.23Z" fill="#231F20"/><path d="M175.38 276.7C174.59 277.37 173.84 277.84 173.12 278.11 172.39 278.38 171.62 278.52 170.8 278.52 169.43 278.52 168.38 278.19 167.65 277.52 166.92 276.85 166.55 276 166.55 274.95 166.55 274.48 166.63 274.05 166.79 273.66 166.95 273.27 167.17 272.92 167.44 272.62 167.71 272.32 168.03 272.06 168.4 271.85 168.77 271.64 169.16 271.48 169.57 271.38 169.98 271.28 170.6 271.17 171.45 271.06 173.13 270.86 174.38 270.62 175.21 270.33 175.21 270.18 175.22 270.06 175.22 269.97L175.22 269.78C175.22 268.92 175.02 268.32 174.62 267.96 174.09 267.48 173.29 267.25 172.22 267.25 171.23 267.25 170.49 267.43 170.02 267.78 169.55 268.12 169.2 268.74 168.98 269.62L166.92 269.34C167.11 268.46 167.42 267.74 167.85 267.2 168.28 266.66 168.9 266.24 169.71 265.95 170.53 265.65 171.47 265.5 172.53 265.5 173.59 265.5 174.46 265.62 175.12 265.88 175.78 266.14 176.27 266.45 176.58 266.83 176.88 267.19 177.1 267.67 177.24 268.26 177.31 268.63 177.35 269.28 177.35 270.21L177.35 273.02C177.35 274 177.36 274.81 177.39 275.42 177.42 276.03 177.44 276.48 177.48 276.74 177.57 277.26 177.75 277.76 178.02 278.23L175.82 278.23C175.6 277.8 175.46 277.29 175.4 276.69ZM175.2 271.99C174.82 272.15 174.34 272.29 173.77 272.42 173.2 272.55 172.53 272.67 171.75 272.78 170.89 272.9 170.28 273.05 169.91 273.2 169.56 273.35 169.28 273.58 169.08 273.89 168.88 274.18 168.79 274.51 168.79 274.89 168.79 275.17 168.84 275.43 168.95 275.68 169.06 275.93 169.21 276.13 169.42 276.31 169.63 276.49 169.89 276.62 170.21 276.72 170.53 276.82 170.89 276.87 171.3 276.87 171.71 276.87 172.09 276.82 172.46 276.73 172.83 276.64 173.16 276.5 173.47 276.33 173.78 276.16 174.05 275.95 174.28 275.7 174.51 275.45 174.71 275.18 174.86 274.87 175.09 274.38 175.2 273.67 175.2 272.76L175.2 271.99Z" fill="#231F20"/><path d="M180.33 278.23 180.33 265.78 182.23 265.78 182.23 267.55C183.14 266.18 184.46 265.5 186.19 265.5 186.93 265.5 187.62 265.64 188.25 265.91 188.87 266.18 189.35 266.53 189.67 266.96 189.83 267.18 189.96 267.42 190.07 267.68 190.18 267.94 190.27 268.22 190.33 268.52 190.37 268.72 190.4 268.98 190.42 269.32 190.44 269.66 190.45 270.08 190.45 270.57L190.45 278.22 188.34 278.22 188.34 270.65C188.34 269.79 188.26 269.15 188.09 268.73 187.93 268.3 187.63 267.96 187.21 267.71 186.8 267.45 186.31 267.32 185.75 267.32 184.84 267.32 184.07 267.61 183.42 268.18 182.77 268.76 182.45 269.84 182.45 271.43L182.45 278.23 180.34 278.23Z" fill="#231F20"/><path d="M200.97 278.23 200.97 276.66C200.18 277.89 199.02 278.51 197.49 278.51 196.49 278.51 195.58 278.24 194.75 277.69 193.91 277.14 193.27 276.38 192.82 275.4 192.37 274.42 192.14 273.29 192.14 272.01 192.14 270.73 192.35 269.65 192.76 268.63 193.17 267.61 193.79 266.84 194.62 266.3 195.45 265.76 196.37 265.49 197.4 265.49 198.16 265.49 198.83 265.65 199.4 265.96 199.97 266.27 200.45 266.69 200.83 267.2L200.83 261.04 202.93 261.04 202.93 278.22 200.97 278.22ZM194.3 272.02C194.3 273.61 194.64 274.81 195.31 275.59 195.98 276.37 196.77 276.77 197.69 276.77 198.61 276.77 199.39 276.39 200.03 275.65 200.68 274.88 201 273.73 201 272.19 201 270.49 200.67 269.24 200.02 268.44 199.37 267.64 198.56 267.24 197.59 267.24 196.62 267.24 195.87 267.62 195.23 268.39 194.61 269.16 194.29 270.36 194.29 272.01Z" fill="#231F20"/><path d="M214.5 283 214.5 265.79 216.42 265.79 216.42 267.41C216.87 266.78 217.38 266.3 217.96 265.99 218.54 265.68 219.22 265.52 220.03 265.52 221.1 265.52 222.04 265.79 222.84 266.33 223.64 266.87 224.26 267.65 224.68 268.66 225.09 269.67 225.3 270.76 225.3 271.93 225.3 273.2 225.07 274.34 224.61 275.38 224.16 276.4 223.49 277.18 222.62 277.72 221.75 278.26 220.84 278.53 219.88 278.53 219.17 278.53 218.54 278.38 217.98 278.08 217.42 277.78 216.97 277.41 216.61 276.96L216.61 283.02 214.5 283.02ZM216.41 272.08C216.41 273.68 216.73 274.87 217.38 275.63 218.03 276.39 218.81 276.78 219.74 276.78 220.67 276.78 221.47 276.39 222.14 275.6 222.81 274.8 223.15 273.56 223.15 271.91 223.15 270.26 222.82 269.14 222.17 268.35 221.52 267.56 220.74 267.17 219.84 267.17 218.94 267.17 218.14 267.59 217.45 268.44 216.76 269.27 216.42 270.49 216.42 272.1Z" fill="#231F20"/><path d="M235.69 276.7C234.9 277.37 234.15 277.84 233.43 278.11 232.7 278.38 231.93 278.52 231.11 278.52 229.74 278.52 228.69 278.19 227.96 277.52 227.23 276.85 226.86 276 226.86 274.95 226.86 274.48 226.94 274.05 227.1 273.66 227.26 273.27 227.48 272.92 227.75 272.62 228.02 272.32 228.34 272.06 228.71 271.85 229.08 271.64 229.47 271.48 229.88 271.38 230.29 271.28 230.91 271.17 231.76 271.06 233.44 270.86 234.69 270.62 235.52 270.33 235.52 270.18 235.53 270.06 235.53 269.97L235.53 269.78C235.53 268.92 235.33 268.32 234.93 267.96 234.4 267.48 233.6 267.25 232.53 267.25 231.54 267.25 230.8 267.43 230.33 267.78 229.86 268.12 229.51 268.74 229.29 269.62L227.23 269.34C227.42 268.46 227.73 267.74 228.16 267.2 228.59 266.66 229.21 266.24 230.02 265.95 230.84 265.65 231.78 265.5 232.84 265.5 233.9 265.5 234.77 265.62 235.43 265.88 236.09 266.14 236.58 266.45 236.89 266.83 237.19 267.19 237.41 267.67 237.55 268.26 237.62 268.63 237.66 269.28 237.66 270.21L237.66 273.02C237.66 274 237.67 274.81 237.7 275.42 237.73 276.03 237.75 276.48 237.79 276.74 237.88 277.26 238.06 277.76 238.33 278.23L236.13 278.23C235.91 277.8 235.77 277.29 235.71 276.69ZM235.51 271.99C235.13 272.15 234.65 272.29 234.08 272.42 233.51 272.55 232.84 272.67 232.06 272.78 231.2 272.9 230.59 273.05 230.22 273.2 229.87 273.35 229.59 273.58 229.39 273.89 229.19 274.18 229.1 274.51 229.1 274.89 229.1 275.17 229.15 275.43 229.26 275.68 229.37 275.93 229.52 276.13 229.73 276.31 229.94 276.49 230.2 276.62 230.52 276.72 230.84 276.82 231.2 276.87 231.61 276.87 232.02 276.87 232.4 276.82 232.77 276.73 233.14 276.64 233.47 276.5 233.78 276.33 234.09 276.16 234.36 275.95 234.59 275.7 234.82 275.45 235.02 275.18 235.17 274.87 235.4 274.38 235.51 273.67 235.51 272.76L235.51 271.99Z" fill="#231F20"/><path d="M240.63 278.23 240.63 265.78 242.53 265.78 242.53 267.67C243.01 266.79 243.46 266.21 243.87 265.92 244.28 265.63 244.73 265.5 245.23 265.5 245.94 265.5 246.66 265.73 247.4 266.18L246.67 268.14C246.15 267.84 245.64 267.68 245.12 267.68 244.65 267.68 244.24 267.82 243.87 268.1 243.5 268.38 243.25 268.76 243.09 269.25 242.86 270 242.74 270.82 242.74 271.71L242.74 278.23 240.63 278.23Z" fill="#231F20"/><path d="M251.19 274.19C251.31 275.03 251.63 275.68 252.16 276.12 252.69 276.56 253.44 276.78 254.41 276.78 255.38 276.78 256.09 276.58 256.57 276.19 257.04 275.79 257.27 275.33 257.27 274.8 257.27 274.32 257.06 273.95 256.65 273.68 256.36 273.5 255.64 273.26 254.49 272.97 252.95 272.59 251.88 272.25 251.27 271.96 250.68 271.67 250.22 271.28 249.91 270.78 249.61 270.28 249.45 269.72 249.45 269.1 249.45 268.54 249.57 268.02 249.83 267.55 250.09 267.08 250.43 266.69 250.87 266.38 251.03 266.26 251.23 266.15 251.46 266.05 251.69 265.95 251.94 265.85 252.21 265.77 252.48 265.69 252.77 265.63 253.08 265.58 253.39 265.53 253.71 265.51 254.04 265.51 255.02 265.51 255.88 265.65 256.62 265.93 257.36 266.21 257.9 266.59 258.25 267.08 258.61 267.57 258.85 268.21 258.98 269L256.92 269.28C256.83 268.64 256.56 268.14 256.11 267.78 255.66 267.42 255.03 267.24 254.2 267.24 253.23 267.24 252.54 267.4 252.13 267.72 251.72 268.04 251.51 268.42 251.51 268.84 251.51 269.11 251.6 269.36 251.77 269.58 251.94 269.81 252.21 269.99 252.58 270.14 252.69 270.18 252.9 270.24 253.21 270.33 253.52 270.42 253.93 270.54 254.45 270.68 255.95 271.08 256.99 271.41 257.57 271.66 258.15 271.9 258.61 272.27 258.96 272.76 259.3 273.24 259.46 273.84 259.46 274.56 259.46 275.28 259.25 275.93 258.84 276.55 258.43 277.17 257.84 277.66 257.07 277.99 256.3 278.32 255.43 278.49 254.45 278.49 252.83 278.49 251.6 278.15 250.75 277.48 249.9 276.81 249.36 275.81 249.13 274.49L251.22 274.16Z" fill="#231F20"/><path d="M261.44 278.23 261.44 261.05 263.55 261.05 263.55 278.23 261.44 278.23Z" fill="#231F20"/><path d="M277.32 274.5C276.97 275.78 276.33 276.77 275.41 277.47 274.49 278.17 273.3 278.52 271.85 278.52 270.03 278.52 268.58 277.96 267.51 276.84 266.45 275.72 265.92 274.15 265.92 272.12 265.92 270.09 266.46 268.41 267.54 267.24 268.62 266.08 270.02 265.51 271.74 265.51 273.46 265.51 274.76 266.08 275.82 267.21 276.87 268.35 277.4 269.94 277.4 271.99L277.4 272.22C277.4 272.31 277.4 272.42 277.39 272.55L268.11 272.55C268.19 273.92 268.57 274.96 269.27 275.69 269.96 276.42 270.82 276.78 271.87 276.78 272.64 276.78 273.3 276.58 273.85 276.17 274.4 275.76 274.83 275.12 275.15 274.22L277.33 274.49ZM275.16 270.82C275.07 269.78 274.8 269 274.36 268.46 273.69 267.65 272.82 267.24 271.75 267.24 270.79 267.24 269.97 267.56 269.3 268.21 268.64 268.86 268.28 269.73 268.21 270.81L275.16 270.81Z" fill="#231F20"/><path d="M279.57 281.05C280.02 281.17 280.42 281.24 280.78 281.24 281.25 281.24 281.62 281.16 281.9 281.01 282.18 280.86 282.41 280.63 282.59 280.35 282.65 280.24 282.74 280.06 282.85 279.8 282.96 279.54 283.09 279.2 283.24 278.78 283.26 278.72 283.28 278.64 283.32 278.56 283.36 278.48 283.39 278.38 283.43 278.27L278.71 265.8 280.98 265.8 283.57 273.01C283.74 273.47 283.9 273.94 284.05 274.42 284.2 274.9 284.34 275.39 284.47 275.9 284.59 275.41 284.73 274.93 284.87 274.46 285.01 273.99 285.17 273.53 285.34 273.06L288 265.81 290.11 265.81 285.38 278.47C285.13 279.16 284.91 279.74 284.71 280.2 284.51 280.66 284.34 281.03 284.2 281.29 283.82 281.99 283.4 282.5 282.92 282.83 282.44 283.16 281.86 283.31 281.18 283.31 280.77 283.31 280.31 283.22 279.82 283.05L279.59 281.07Z" fill="#231F20"/><path d="M51.83 317.87C51.83 315.01 52.6 312.78 54.13 311.18 55.66 309.56 57.64 308.75 60.06 308.75 61.65 308.75 63.08 309.13 64.35 309.89 65.62 310.65 66.58 311.71 67.26 313.07 67.94 314.43 68.27 315.96 68.27 317.68 68.27 319.4 67.92 320.99 67.22 322.36 66.52 323.74 65.52 324.78 64.23 325.49 62.94 326.19 61.55 326.54 60.06 326.54 58.44 326.54 57 326.15 55.72 325.37 54.44 324.59 53.48 323.52 52.83 322.17 52.17 320.83 51.85 319.4 51.85 317.88ZM54.17 317.91C54.17 319.99 54.72 321.62 55.83 322.81 56.95 324 58.35 324.59 60.03 324.59 61.71 324.59 63.15 323.99 64.25 322.79 65.36 321.59 65.91 319.88 65.91 317.67 65.91 316.26 65.68 315.04 65.21 314 64.74 312.96 64.05 312.16 63.12 311.59 62.21 311.01 61.19 310.72 60.06 310.72 58.44 310.72 57.06 311.27 55.9 312.38 54.74 313.48 54.17 315.33 54.17 317.91Z" fill="#231F20"/><path d="M71.1 326.23 71.1 313.78 72.99 313.78 72.99 315.53C73.39 314.92 73.91 314.43 74.55 314.06 75.19 313.69 75.93 313.5 76.76 313.5 77.68 313.5 78.44 313.69 79.03 314.07 79.62 314.45 80.04 314.99 80.28 315.68 81.26 314.23 82.55 313.5 84.12 313.5 85.36 313.5 86.31 313.84 86.97 314.52 87.63 315.2 87.96 316.25 87.96 317.68L87.96 326.22 85.86 326.22 85.86 318.38C85.86 317.54 85.79 316.93 85.65 316.56 85.52 316.18 85.27 315.88 84.91 315.66 84.54 315.43 84.12 315.32 83.64 315.32 82.76 315.32 82.03 315.61 81.46 316.2 80.88 316.78 80.59 317.71 80.59 318.99L80.59 326.22 78.48 326.22 78.48 318.13C78.48 317.18 78.31 316.48 77.96 316.01 77.61 315.54 77.05 315.31 76.27 315.31 75.67 315.31 75.12 315.47 74.62 315.78 74.11 316.1 73.75 316.56 73.53 317.15 73.3 317.76 73.19 318.63 73.19 319.75L73.19 326.21 71.08 326.21Z" fill="#231F20"/><path d="M98.66 324.7C97.87 325.37 97.12 325.84 96.4 326.11 95.67 326.38 94.9 326.52 94.08 326.52 92.71 326.52 91.66 326.19 90.93 325.52 90.2 324.85 89.83 324 89.83 322.95 89.83 322.48 89.91 322.05 90.07 321.66 90.23 321.27 90.45 320.92 90.72 320.62 90.99 320.32 91.31 320.06 91.68 319.85 92.05 319.64 92.44 319.48 92.85 319.38 93.26 319.28 93.88 319.17 94.73 319.06 96.41 318.86 97.66 318.62 98.49 318.33 98.49 318.18 98.5 318.06 98.5 317.97L98.5 317.78C98.5 316.92 98.3 316.32 97.9 315.96 97.37 315.48 96.57 315.25 95.5 315.25 94.51 315.25 93.77 315.43 93.3 315.78 92.83 316.12 92.48 316.74 92.26 317.62L90.2 317.34C90.39 316.46 90.7 315.74 91.13 315.2 91.56 314.66 92.18 314.24 92.99 313.95 93.81 313.65 94.75 313.5 95.81 313.5 96.87 313.5 97.74 313.62 98.4 313.88 99.06 314.14 99.55 314.45 99.86 314.83 100.16 315.19 100.38 315.67 100.52 316.26 100.59 316.63 100.63 317.28 100.63 318.21L100.63 321.02C100.63 322 100.64 322.81 100.67 323.42 100.7 324.03 100.72 324.48 100.76 324.74 100.85 325.26 101.03 325.76 101.3 326.23L99.1 326.23C98.88 325.8 98.74 325.29 98.68 324.69ZM98.48 319.99C98.1 320.15 97.62 320.29 97.05 320.42 96.48 320.55 95.81 320.67 95.03 320.78 94.17 320.9 93.56 321.05 93.19 321.2 92.84 321.35 92.56 321.58 92.36 321.89 92.16 322.18 92.07 322.51 92.07 322.89 92.07 323.17 92.12 323.43 92.23 323.68 92.34 323.93 92.49 324.13 92.7 324.31 92.91 324.49 93.17 324.62 93.49 324.72 93.81 324.82 94.17 324.87 94.58 324.87 94.99 324.87 95.37 324.82 95.74 324.73 96.11 324.64 96.44 324.5 96.75 324.33 97.06 324.16 97.33 323.95 97.56 323.7 97.79 323.45 97.99 323.18 98.14 322.87 98.37 322.38 98.48 321.67 98.48 320.76L98.48 319.99Z" fill="#231F20"/><path d="M103.61 326.23 103.61 313.78 105.51 313.78 105.51 315.55C106.42 314.18 107.74 313.5 109.47 313.5 110.21 313.5 110.9 313.64 111.53 313.91 112.15 314.18 112.63 314.53 112.95 314.96 113.11 315.18 113.24 315.42 113.35 315.68 113.46 315.94 113.55 316.22 113.61 316.52 113.65 316.72 113.68 316.98 113.7 317.32 113.72 317.66 113.73 318.08 113.73 318.57L113.73 326.22 111.62 326.22 111.62 318.65C111.62 317.79 111.54 317.15 111.37 316.73 111.21 316.3 110.91 315.96 110.49 315.71 110.08 315.45 109.59 315.32 109.03 315.32 108.12 315.32 107.35 315.61 106.7 316.18 106.05 316.76 105.73 317.84 105.73 319.43L105.73 326.23 103.62 326.23Z" fill="#231F20"/><path d="M116.19 311.48 116.19 309.05 118.3 309.05 118.3 311.48 116.19 311.48ZM116.19 326.23 116.19 313.78 118.3 313.78 118.3 326.23 116.19 326.23Z" fill="#231F20"/><path d="M130.39 326.23 130.39 309.05 132.66 309.05 132.66 324.2 141.12 324.2 141.12 326.23 130.39 326.23Z" fill="#231F20"/><path d="M144.01 311.48 144.01 309.05 146.12 309.05 146.12 311.48 144.01 311.48ZM144.01 326.23 144.01 313.78 146.12 313.78 146.12 326.23 144.01 326.23Z" fill="#231F20"/><path d="M149 326.23 149 313.78 150.89 313.78 150.89 315.53C151.29 314.92 151.81 314.43 152.45 314.06 153.09 313.69 153.83 313.5 154.66 313.5 155.58 313.5 156.34 313.69 156.93 314.07 157.52 314.45 157.94 314.99 158.18 315.68 159.16 314.23 160.45 313.5 162.02 313.5 163.26 313.5 164.21 313.84 164.87 314.52 165.53 315.2 165.86 316.25 165.86 317.68L165.86 326.22 163.76 326.22 163.76 318.38C163.76 317.54 163.69 316.93 163.55 316.56 163.42 316.18 163.17 315.88 162.81 315.66 162.44 315.43 162.02 315.32 161.54 315.32 160.66 315.32 159.93 315.61 159.36 316.2 158.78 316.78 158.49 317.71 158.49 318.99L158.49 326.22 156.38 326.22 156.38 318.13C156.38 317.18 156.21 316.48 155.86 316.01 155.51 315.54 154.95 315.31 154.17 315.31 153.57 315.31 153.02 315.47 152.52 315.78 152.01 316.1 151.65 316.56 151.43 317.15 151.2 317.76 151.09 318.63 151.09 319.75L151.09 326.21 148.98 326.21Z" fill="#231F20"/><path d="M167.64 320.01C167.64 317.71 168.28 316.01 169.56 314.89 170.62 313.97 171.93 313.51 173.47 313.51 175.17 313.51 176.57 314.07 177.67 315.2 178.76 316.31 179.3 317.86 179.3 319.84 179.3 321.43 179.06 322.7 178.57 323.63 178.09 324.55 177.39 325.26 176.47 325.76 175.55 326.27 174.55 326.52 173.47 326.52 171.73 326.52 170.32 325.96 169.24 324.84 168.17 323.72 167.63 322.11 167.63 320.01ZM169.81 320.01C169.81 321.6 170.16 322.79 170.85 323.6 171.55 324.39 172.42 324.78 173.47 324.78 174.52 324.78 175.39 324.38 176.08 323.58 176.78 322.78 177.12 321.56 177.12 319.94 177.12 318.4 176.77 317.24 176.07 316.45 175.37 315.65 174.51 315.25 173.47 315.25 172.43 315.25 171.54 315.64 170.85 316.43 170.16 317.22 169.81 318.41 169.81 320Z" fill="#231F20"/><path d="M181.76 326.23 181.76 313.78 183.66 313.78 183.66 315.55C184.57 314.18 185.89 313.5 187.62 313.5 188.36 313.5 189.05 313.64 189.68 313.91 190.3 314.18 190.78 314.53 191.1 314.96 191.26 315.18 191.39 315.42 191.5 315.68 191.61 315.94 191.7 316.22 191.76 316.52 191.8 316.72 191.83 316.98 191.85 317.32 191.87 317.66 191.88 318.08 191.88 318.57L191.88 326.22 189.77 326.22 189.77 318.65C189.77 317.79 189.69 317.15 189.52 316.73 189.36 316.3 189.06 315.96 188.64 315.71 188.23 315.45 187.74 315.32 187.18 315.32 186.27 315.32 185.5 315.61 184.85 316.18 184.2 316.76 183.88 317.84 183.88 319.43L183.88 326.23 181.77 326.23Z" fill="#231F20"/><path d="M52.91 374.23 52.91 357.05 55.18 357.05 55.18 374.23 52.91 374.23Z" fill="#231F20"/><path d="M58.27 374.23 58.27 361.78 60.17 361.78 60.17 363.55C61.08 362.18 62.4 361.5 64.13 361.5 64.87 361.5 65.56 361.64 66.19 361.91 66.81 362.18 67.29 362.53 67.61 362.96 67.77 363.18 67.9 363.42 68.01 363.68 68.12 363.94 68.21 364.22 68.27 364.52 68.31 364.72 68.34 364.98 68.36 365.32 68.38 365.66 68.39 366.08 68.39 366.57L68.39 374.22 66.28 374.22 66.28 366.65C66.28 365.79 66.2 365.15 66.03 364.73 65.87 364.3 65.57 363.96 65.15 363.71 64.74 363.45 64.25 363.32 63.69 363.32 62.78 363.32 62.01 363.61 61.36 364.18 60.71 364.76 60.39 365.84 60.39 367.43L60.39 374.23 58.28 374.23Z" fill="#231F20"/><path d="M78.91 374.23 78.91 372.66C78.12 373.89 76.96 374.51 75.43 374.51 74.43 374.51 73.52 374.24 72.69 373.69 71.85 373.14 71.21 372.38 70.76 371.4 70.31 370.42 70.08 369.29 70.08 368.01 70.08 366.73 70.29 365.65 70.7 364.63 71.11 363.61 71.73 362.84 72.56 362.3 73.39 361.76 74.31 361.49 75.34 361.49 76.1 361.49 76.77 361.65 77.34 361.96 77.91 362.27 78.39 362.69 78.77 363.2L78.77 357.04 80.87 357.04 80.87 374.22 78.91 374.22ZM72.24 368.02C72.24 369.61 72.58 370.81 73.25 371.59 73.92 372.37 74.71 372.77 75.63 372.77 76.55 372.77 77.33 372.39 77.97 371.65 78.62 370.88 78.94 369.73 78.94 368.19 78.94 366.49 78.61 365.24 77.96 364.44 77.31 363.64 76.5 363.24 75.53 363.24 74.56 363.24 73.81 363.62 73.17 364.39 72.55 365.16 72.23 366.36 72.23 368.01Z" fill="#231F20"/><path d="M83.41 359.48 83.41 357.05 85.52 357.05 85.52 359.48 83.41 359.48ZM83.41 374.23 83.41 361.78 85.52 361.78 85.52 374.23 83.41 374.23Z" fill="#231F20"/><path d="M96.52 372.7C95.73 373.37 94.98 373.84 94.26 374.11 93.53 374.38 92.76 374.52 91.94 374.52 90.57 374.52 89.52 374.19 88.79 373.52 88.06 372.85 87.69 372 87.69 370.95 87.69 370.48 87.77 370.05 87.93 369.66 88.09 369.27 88.31 368.92 88.58 368.62 88.85 368.32 89.17 368.06 89.54 367.85 89.91 367.64 90.3 367.48 90.71 367.38 91.12 367.28 91.74 367.17 92.59 367.06 94.27 366.86 95.52 366.62 96.35 366.33 96.35 366.18 96.36 366.06 96.36 365.97L96.36 365.78C96.36 364.92 96.16 364.32 95.76 363.96 95.23 363.48 94.43 363.25 93.36 363.25 92.37 363.25 91.63 363.43 91.16 363.78 90.69 364.12 90.34 364.74 90.12 365.62L88.06 365.34C88.25 364.46 88.56 363.74 88.99 363.2 89.42 362.66 90.04 362.24 90.85 361.95 91.67 361.65 92.61 361.5 93.67 361.5 94.73 361.5 95.6 361.62 96.26 361.88 96.92 362.14 97.41 362.45 97.72 362.83 98.02 363.19 98.24 363.67 98.38 364.26 98.45 364.63 98.49 365.28 98.49 366.21L98.49 369.02C98.49 370 98.5 370.81 98.53 371.42 98.56 372.03 98.58 372.48 98.62 372.74 98.71 373.26 98.89 373.76 99.16 374.23L96.96 374.23C96.74 373.8 96.6 373.29 96.54 372.69ZM96.34 367.99C95.96 368.15 95.48 368.29 94.91 368.42 94.34 368.55 93.67 368.67 92.89 368.78 92.03 368.9 91.42 369.05 91.05 369.2 90.7 369.35 90.42 369.58 90.22 369.89 90.02 370.18 89.93 370.51 89.93 370.89 89.93 371.17 89.98 371.43 90.09 371.68 90.2 371.93 90.35 372.13 90.56 372.31 90.77 372.49 91.03 372.62 91.35 372.72 91.67 372.82 92.03 372.87 92.44 372.87 92.85 372.87 93.23 372.82 93.6 372.73 93.97 372.64 94.3 372.5 94.61 372.33 94.92 372.16 95.19 371.95 95.42 371.7 95.65 371.45 95.85 371.18 96 370.87 96.23 370.38 96.34 369.67 96.34 368.76L96.34 367.99Z" fill="#231F20"/><path d="M101.48 374.23 101.48 361.78 103.38 361.78 103.38 363.55C104.29 362.18 105.61 361.5 107.34 361.5 108.08 361.5 108.77 361.64 109.4 361.91 110.02 362.18 110.5 362.53 110.82 362.96 110.98 363.18 111.11 363.42 111.22 363.68 111.33 363.94 111.42 364.22 111.48 364.52 111.52 364.72 111.55 364.98 111.57 365.32 111.59 365.66 111.6 366.08 111.6 366.57L111.6 374.22 109.49 374.22 109.49 366.65C109.49 365.79 109.41 365.15 109.24 364.73 109.08 364.3 108.78 363.96 108.36 363.71 107.95 363.45 107.46 363.32 106.9 363.32 105.99 363.32 105.22 363.61 104.57 364.18 103.92 364.76 103.6 365.84 103.6 367.43L103.6 374.23 101.49 374.23Z" fill="#231F20"/><path d="M123.05 374.23 123.05 361.78 124.95 361.78 124.95 363.67C125.43 362.79 125.88 362.21 126.29 361.92 126.7 361.63 127.15 361.5 127.65 361.5 128.36 361.5 129.08 361.73 129.82 362.18L129.09 364.14C128.57 363.84 128.06 363.68 127.54 363.68 127.07 363.68 126.66 363.82 126.29 364.1 125.92 364.38 125.67 364.76 125.51 365.25 125.28 366 125.16 366.82 125.16 367.71L125.16 374.23 123.05 374.23Z" fill="#231F20"/><path d="M132.38 359.48 132.38 357.05 134.49 357.05 134.49 359.48 132.38 359.48ZM132.38 374.23 132.38 361.78 134.49 361.78 134.49 374.23 132.38 374.23Z" fill="#231F20"/><path d="M147.57 369.95C147.34 371.38 146.76 372.5 145.82 373.31 144.9 374.11 143.75 374.52 142.39 374.52 140.69 374.52 139.32 373.97 138.28 372.86 137.25 371.75 136.73 370.15 136.73 368.07 136.73 366.73 136.95 365.55 137.4 364.54 137.85 363.53 138.52 362.78 139.43 362.28 140.35 361.77 141.34 361.52 142.41 361.52 143.77 361.52 144.88 361.86 145.73 362.54 146.58 363.22 147.13 364.19 147.38 365.46L145.33 365.78C145.13 364.94 144.79 364.31 144.3 363.89 143.81 363.47 143.21 363.26 142.5 363.26 141.45 363.26 140.58 363.64 139.91 364.41 139.25 365.17 138.91 366.37 138.91 368.02 138.91 369.67 139.23 370.91 139.87 371.66 140.51 372.41 141.35 372.8 142.38 372.8 143.21 372.8 143.9 372.55 144.45 372.04 145 371.53 145.36 370.75 145.5 369.7L147.57 369.97Z" fill="#231F20"/><path d="M160.39 370.5C160.04 371.78 159.4 372.77 158.48 373.47 157.56 374.17 156.37 374.52 154.92 374.52 153.1 374.52 151.65 373.96 150.58 372.84 149.52 371.72 148.99 370.15 148.99 368.12 148.99 366.09 149.53 364.41 150.61 363.24 151.69 362.08 153.09 361.51 154.81 361.51 156.53 361.51 157.83 362.08 158.89 363.21 159.94 364.35 160.47 365.94 160.47 367.99L160.47 368.22C160.47 368.31 160.47 368.42 160.46 368.55L151.18 368.55C151.26 369.92 151.64 370.96 152.34 371.69 153.03 372.42 153.89 372.78 154.94 372.78 155.71 372.78 156.37 372.58 156.92 372.17 157.47 371.76 157.9 371.12 158.22 370.22L160.4 370.49ZM158.23 366.82C158.14 365.78 157.87 365 157.43 364.46 156.76 363.65 155.89 363.24 154.82 363.24 153.86 363.24 153.04 363.56 152.37 364.21 151.71 364.86 151.35 365.73 151.28 366.81L158.23 366.81Z" fill="#231F20"/></g><g><path d="M172.95 426.73C173.42 424.17 173.63 422.66 173.74 421.69 173.85 420.61 174.71 419.6 176.26 419.64L176.84 419.64C177.74 419.64 178.89 419.6 179.97 419.57L180.29 419.57C181.05 419.53 182.13 419.5 182.52 419.5 186.7 419.5 190.19 420.76 190.19 425.22 190.19 426.95 189.47 435.08 178.02 435.08L176.4 435.08C176 437.24 175.64 439.4 175.25 441.59 175.25 441.66 175.21 441.73 175.21 441.81 175.21 441.85 175.21 441.88 175.14 442.03L175.18 441.99C175.14 442.31 175.11 442.6 175.07 442.85 174.89 443.97 173.77 444.9 172.23 444.9L171.62 444.9C170.32 444.9 169.39 443.93 169.64 442.96 170.14 441.45 170.54 439.54 170.86 437.88 170.9 437.74 170.93 437.56 170.97 437.41L172.95 426.72ZM176.8 432.31 177.45 432.31C179.11 432.31 180.69 432.06 181.88 431.55L181.84 431.55C184.32 430.25 184.86 426.83 184.86 425.43 184.86 421.9 182.02 421.9 180.47 421.9L180.07 421.9C179.89 421.9 179.67 421.94 179.42 421.94L179.1 421.94C178.99 421.94 179.17 421.98 178.88 421.98 178.52 423.49 178.34 424.46 178.2 425.15 178.2 425.22 178.16 425.26 178.16 425.33 178.12 425.51 178.09 425.65 178.05 425.83 177.98 426.12 177.91 426.41 177.83 426.77L176.79 432.31Z" fill="#231F20"/><path d="M191.24 431.59C191.6 429.65 191.71 428.46 191.67 427.63 191.6 426.73 192.21 425.83 193.47 425.65 193.83 425.61 194.15 425.58 194.41 425.54L194.37 425.54C195.67 425.29 196.89 426.01 196.82 426.87 196.78 426.98 196.78 427.34 196.71 427.59 196.67 427.77 196.6 427.88 196.57 428.06 197.15 427.3 197.83 426.58 198.66 426.01 199.27 425.61 200.03 425.29 200.75 425.04 202.08 424.64 203.16 425.65 202.84 426.66 202.52 427.6 201.15 428.24 199.78 428.57L199.82 428.57C198.45 428.93 196.62 430.44 195.64 434.01 195.1 435.88 194.27 440.6 194.09 442.94 193.98 444.02 192.79 444.88 191.39 444.85L191.21 444.85C189.95 444.85 188.8 444.02 189.05 443.05 189.23 442.44 189.41 441.79 189.48 441.32L191.24 431.6Z" fill="#231F20"/><path d="M207.08 436.13C206.43 439.73 206.14 441.85 206.04 443.08 205.97 444.12 204.67 444.84 203.3 444.84L203.01 444.84C201.86 444.88 200.96 443.87 201.07 442.97 201.07 442.93 201.11 442.86 201.11 442.79 201.29 442.03 201.54 441.03 201.79 439.55L202.4 436.02C203.26 431.27 203.59 428.93 203.55 427.63 203.51 426.77 203.91 425.72 205.28 425.65 205.78 425.58 206.14 425.51 206.54 425.43 207.76 425.18 208.81 426.08 208.74 427.01 208.7 427.15 208.67 427.41 208.67 427.59 208.53 428.24 208.35 429.1 208.13 430.29L207.09 436.12ZM209.96 420.33C209.96 421.52 208.88 423.35 206.79 423.35 205.57 423.35 204.31 422.77 204.31 421.44 204.31 420.32 205.32 418.49 207.55 418.49 208.81 418.49 209.96 419.1 209.96 420.32Z" fill="#231F20"/><path d="M224.72 425.15C225.84 425.4 226.2 426.45 225.91 427.17 225.69 427.75 225.05 427.96 224.25 427.96 223.78 427.96 223.39 427.89 223.1 427.74L223.14 427.74C222.71 427.6 222.24 427.49 221.7 427.49 217.31 427.49 214.72 432.31 214.72 437.21 214.72 438.97 215.01 441.13 216.63 442.14 217.57 442.75 218.47 442.97 219.33 442.97 220.12 442.97 220.81 442.83 221.49 442.57 222.53 442.28 223.29 443 223.04 443.72 222.72 444.55 221.64 445.16 220.45 445.34 219.91 445.41 219.23 445.45 218.58 445.45 212.89 445.45 209.44 442.35 209.44 437.46 209.44 431.84 213.54 424.9 222.25 424.9 223.33 424.9 224.12 425.01 224.73 425.15Z" fill="#231F20"/><path d="M233.21 442.97C234.51 442.97 235.59 442.61 236.45 442.25 237.35 441.85 238.43 442.39 238.21 443.19 237.96 443.98 237.2 444.77 235.91 445.13 235.01 445.31 233.89 445.49 232.38 445.49 226.12 445.31 224.57 441.96 224.5 437.46 224.5 433.61 226.44 430.37 227.67 428.89 230.15 425.79 233.68 424.79 236.27 424.79 240.12 424.79 242.07 426.7 242.07 429.18 242.07 430.19 241.57 431.59 240.77 432.82 239.91 434.12 238.32 435.16 237.06 435.77 234.79 436.92 232.38 437.07 229.64 437.17 229.6 437.31 229.57 437.78 229.57 438.47 229.57 440.2 230.07 443.01 233.21 442.97ZM229.79 436.17C231.77 435.88 233.86 434.59 235.66 432.89 236.49 432.06 237.14 430.8 237.14 429.33 237.14 427.86 236.38 427.06 235.48 427.06 234.94 427.06 233.72 427.31 232.17 429.11 231.05 430.44 230.08 433.18 229.79 436.17Z" fill="#231F20"/><path d="M246.21 440.59C247.69 440.59 248.69 441.38 248.69 442.5 248.69 443.9 247.14 445.34 245.38 445.34 244.3 445.34 242.82 444.87 242.82 443.4 242.82 441.74 244.73 440.59 246.2 440.59ZM248.98 425.22C250.42 425.22 251.43 426.01 251.43 427.16 251.43 428.56 249.92 429.97 248.15 429.97 247.07 429.97 245.56 429.43 245.56 428.03 245.56 426.37 247.5 425.22 248.98 425.22Z" fill="#231F20"/><path d="M267.34 431.12C268.38 430.4 269.86 429.39 272.06 429.39 276.56 429.39 278.86 432.16 278.86 435.55 278.86 438.03 277.71 440.95 274.47 443.29 272.06 445.09 269.18 445.49 266.23 445.49 264.61 445.49 263.46 445.31 262.45 445.06 261.19 444.74 260.61 443.62 260.87 442.72 261.09 442.11 261.81 441.78 262.63 441.78 263.1 441.78 263.6 441.89 264.07 442.14 264.36 442.32 264.61 442.43 264.83 442.5 265.87 442.82 266.63 442.86 267.21 442.86 271.96 442.86 273.47 438.79 273.47 436.13 273.47 433.32 271.63 432.39 269.4 432.39 268 432.39 266.77 432.71 265.62 433.15 264.43 433.69 262.92 433.01 263.14 431.96 264 428.4 264.62 425.3 265.23 421.41 265.45 420.22 266.85 419.47 268.43 419.5 268.61 419.5 268.83 419.54 269.01 419.54 269.23 419.54 269.44 419.54 269.62 419.58L269.58 419.58C269.9 419.62 270.26 419.65 270.52 419.65 271.89 419.69 273.22 419.72 274.34 419.72 275.82 419.72 277.33 419.72 278.66 419.58L278.59 419.58C278.7 419.54 278.84 419.54 279.02 419.54L278.98 419.54C280.31 419.43 281.64 420.19 281.25 421.12 281.11 421.44 280.82 421.88 280.28 422.45 279.2 423.46 277.69 423.6 274.02 423.6 272.04 423.6 270.78 423.6 268.8 423.46L267.36 431.13Z" fill="#231F20"/><path d="M282.39 442.64C281.56 441.24 281.1 439.26 281.1 437.39 281.1 435.12 282.25 429.36 284.09 425.73 287.15 420.44 291.33 419.22 293.95 419.22 295.97 419.22 301.19 419.58 301.19 426.31 301.19 433.51 297.48 445.39 288.3 445.39 285.28 445.39 283.19 444.09 282.36 442.65L282.4 442.65ZM288.8 426.3C287.5 429.14 286.39 434.22 286.39 437.75 286.39 438.83 286.39 442.5 288.98 442.5 291.57 442.5 292.9 439.66 293.48 438.36 294.96 434.51 296 428.1 296 425.55 296 421.99 294.09 421.81 293.44 421.81 291.14 421.81 289.59 424.55 288.8 426.31Z" fill="#231F20"/><path d="M327.93 421.91C327.68 422.56 326.96 422.88 326.09 422.88 325.62 422.88 325.19 422.81 324.87 422.63 323.93 422.16 322.93 421.98 321.95 421.91 321.81 422.34 321.59 422.88 321.41 423.35 321.23 423.89 321.09 424.39 320.91 424.9 320.69 425.33 320.08 425.55 319.54 425.55 318.89 425.55 318.28 425.23 318.35 424.65 318.39 424.22 318.42 423.82 318.46 423.43 318.5 423.07 318.53 422.89 318.53 422.53 317.45 423.03 316.05 424.22 316.05 426.49 316.05 428.76 317.49 429.44 318.43 429.95 318.61 430.06 318.75 430.17 318.9 430.24 322.28 431.97 325.16 433.7 325.16 437.12 325.16 438.99 324.15 441.04 322.6 442.52 320.98 443.92 318.93 444.68 317.2 445.11 317.13 445.51 317.06 445.94 316.98 446.33 316.91 446.73 316.8 447.09 316.73 447.45L316.73 447.59 316.69 447.7C316.62 448.35 315.79 448.89 314.71 448.89 313.99 448.89 313.27 448.31 313.23 447.88 313.27 447.84 313.34 447.77 313.41 447.63L313.37 447.63 313.37 447.27C313.44 446.98 313.48 446.69 313.55 446.37 313.62 446.05 313.73 445.83 313.73 445.51L313.23 445.51C311.18 445.51 309.85 445.37 308.73 445.01 307.58 444.58 307.07 443.21 307.47 442.27 307.76 441.66 308.44 441.37 309.27 441.37 309.74 441.37 310.31 441.51 310.67 441.69 311.53 442.12 312.83 442.45 314.31 442.48 314.45 442.05 314.63 441.58 314.81 441.11 314.99 440.61 315.13 440.14 315.28 439.71 315.46 439.17 316.04 438.95 316.61 438.95 317.29 438.95 317.98 439.31 317.91 439.99 317.91 440.31 317.87 440.71 317.84 441.03 317.84 441.21 317.84 441.5 317.8 441.82 318.3 441.57 318.81 441.21 319.49 440.34 319.96 439.76 320.17 438.9 320.17 437.93 320.31 435.81 318.59 434.94 317.61 434.47 317.54 434.43 317.36 434.36 317.36 434.36 314.8 433.03 311.06 431.01 311.06 427.52 311.06 426.76 311.17 426.01 311.38 425.29 311.81 423.85 312.96 422.48 314.3 421.33 315.78 420.07 317.32 419.6 319.09 419.24 319.34 418.27 319.45 417.73 319.52 417.04 319.59 416.39 320.53 415.92 321.46 415.92 322.39 415.92 323.12 416.53 322.97 417.11 323.22 416.61 322.83 417.83 322.72 418.3 322.68 418.44 322.61 418.95 322.61 418.95 324.27 419.02 324.99 419.13 326.17 419.45 327.43 419.77 328.22 420.93 327.9 421.9Z" fill="#231F20"/></g><circle cx="32.27" cy="179.4" r="6.27" fill="#231F20"/><circle cx="32.27" cy="226.38" r="6.27" fill="#231F20"/><circle cx="32.27" cy="273.37" r="6.27" fill="#231F20"/><circle cx="32.27" cy="320.36" r="6.27" fill="#231F20"/><circle cx="32.27" cy="367.35" r="6.27" fill="#231F20"/><rect x="23.48" y="439.4" width="135.28" height="4.04" fill="#606161"/><g><path d="M69.8 80.11C70.05 78.99 70.16 78.17 70.23 77.55 70.3 76.58 71.38 75.72 72.75 75.75 73 75.79 73.25 75.79 73.51 75.79 74.84 75.83 75.92 76.76 75.67 77.77 75.49 78.35 75.24 79.28 75.06 80.22 74.95 80.8 74.84 81.37 74.7 81.98 74.56 82.59 74.45 83.17 74.34 83.78 74.3 83.92 74.3 84.07 74.27 84.21L74.16 84.71C74.12 84.93 74.09 85.11 74.05 85.25 73.87 86.37 72.83 87.37 71.28 87.52 70.78 87.56 70.34 87.59 70.02 87.63L70.06 87.63C68.76 87.85 66.68 88.1 64.73 88.06 59.01 87.95 55.3 84.89 55.3 78.38 55.3 73.48 57.24 68.95 60.09 66.07 62.54 63.66 65.2 61.79 70.28 61.79 70.96 61.79 71.94 61.83 72.87 61.93 74.35 62.07 75.39 62.29 76.15 62.58 77.27 63.01 77.81 64.24 77.3 65.1 77.05 65.6 76.26 65.86 75.43 65.86 74.89 65.86 74.35 65.72 74.06 65.57 72.94 64.78 71.61 64.42 70.03 64.42 68.91 64.42 66 64.42 62.97 69.71 61.24 72.63 60.88 75.72 60.88 78.1 60.88 79.22 61.02 82.13 62.39 83.72L62.35 83.72C63.43 84.84 64.26 85.66 66.17 85.66 67.14 85.66 67.93 85.48 68.73 85.26 68.91 84.43 69.13 83.53 69.31 82.67 69.49 81.81 69.63 80.94 69.81 80.11Z" fill="#231F20"/><path d="M80.67 70.86C81.39 67.04 81.68 65.14 81.64 64.06 81.6 63.23 82 62.3 83.3 62.15 83.66 62.11 84.06 62.08 84.42 62.01 85.72 61.83 87.08 62.55 86.87 63.52 86.65 64.56 86.47 65.46 86.11 67.23 85.93 68.24 85.71 69.28 85.53 70.33 85.5033 70.4033 85.5033 70.4167 85.53 70.37 86.03 69.69 86.61 69.11 87.44 68.61 88.99 67.6 90.57 67.42 91.72 67.42 94.38 67.42 96.94 68.54 96.94 71.42 96.94 72.18 96.8 73.11 96.51 74.95L95.11 82.98C94.97 83.88 94.86 84.96 94.79 85.61 94.72 86.69 93.49 87.52 91.98 87.52 90.72 87.52 89.6 86.62 89.82 85.68 90 85 90.22 83.99 90.43 82.76 90.86 80.13 91.33 77.25 91.8 74.63 91.91 74.02 92.02 73.3 92.02 72.76 92.02 71.43 91.59 70.42 90.11 70.42 88.89 70.42 87.55 71.1 86.47 72.26 85.93 72.84 84.92 74.74 84.13 77.98 83.91 78.92 83.09 83.23 82.76 85.5 82.58 86.69 81.32 87.55 79.74 87.55 78.52 87.55 77.54 86.65 77.83 85.75 78.01 85.07 78.37 83.41 78.84 80.89L80.68 70.88Z" fill="#231F20"/><path d="M115.8 69.35C117.67 71.22 117.74 73.31 117.74 74.32 117.74 79.94 114.1 88.03 105.86 88.03 103.77 88.03 101.72 87.45 100.32 86.2 99.46 85.37 98.09 83.79 98.09 80.62 98.09 74.83 101.94 67.48 110.04 67.48 112.6 67.48 114.61 68.09 115.8 69.35ZM111.7 70.86C111.27 70.46 110.55 69.92 109.5 69.92 104.35 69.92 103.09 78.24 103.09 81.04 103.09 84.42 104.53 85.61 106.19 85.61 111.88 85.61 112.67 75.89 112.67 74.16 112.67 73.26 112.63 71.71 111.7 70.85Z" fill="#231F20"/><path d="M120.49 74.2C120.85 72.26 120.96 71.07 120.92 70.24 120.85 69.34 121.46 68.44 122.72 68.26 123.08 68.22 123.4 68.19 123.66 68.15L123.62 68.15C124.92 67.9 126.14 68.62 126.07 69.48 126.03 69.59 126.03 69.95 125.96 70.2 125.92 70.38 125.85 70.49 125.82 70.67 126.4 69.91 127.08 69.19 127.91 68.62 128.52 68.22 129.28 67.9 130 67.65 131.33 67.25 132.41 68.26 132.09 69.27 131.77 70.21 130.4 70.85 129.03 71.18L129.07 71.18C127.7 71.54 125.87 73.05 124.89 76.62 124.35 78.49 123.52 83.21 123.34 85.55 123.23 86.63 122.04 87.49 120.64 87.46L120.46 87.46C119.2 87.46 118.05 86.63 118.3 85.66 118.48 85.05 118.66 84.4 118.73 83.93L120.49 74.21Z" fill="#231F20"/><path d="M153.53 67.4C154.9 67.4 158.03 67.87 158.03 71.14 158.03 71.97 157.89 72.83 157.63 74.09 157.45 75.03 157.27 76.14 157.09 77.15 156.91 78.16 156.69 79.2 156.51 80.21 156.04 82.73 155.86 84.39 155.79 85.43 155.72 86.58 154.42 87.45 153.02 87.45L152.73 87.45C151.4 87.49 150.53 86.51 150.75 85.61 150.97 84.93 151.22 83.74 151.47 82.48 151.65 81.44 151.87 80.36 152.05 79.28 152.23 78.2 152.41 77.16 152.59 76.15 152.81 74.93 153.02 73.49 153.02 72.77 153.02 70.93 152.77 70.5 152.26 70.5 150.86 70.5 148.77 71.83 147.4 75.4 146.5 78.28 145.74 83.53 145.56 85.55 145.45 86.63 144.16 87.42 142.75 87.42 141.42 87.42 140.34 86.52 140.55 85.58 140.87 84.46 141.16 82.84 141.63 80.22 141.77 79.43 141.92 78.49 142.06 77.74 142.46 75.51 142.71 73.67 142.71 72.77 142.71 71.11 142.67 70.47 141.81 70.47 140.15 70.47 138.35 72.23 137.24 75.11 136.45 77.52 135.55 83.21 135.33 85.51 135.26 86.59 134 87.42 132.59 87.42L132.3 87.42C131.08 87.46 130.14 86.52 130.32 85.66 130.54 84.83 130.68 84.15 130.9 82.96 130.94 82.85 131.01 82.53 131.04 82.42L131 82.46C131.18 81.49 131.36 80.48 131.54 79.44 131.9 77.46 132.26 75.37 132.58 73.46 132.87 71.95 132.94 70.98 132.9 70.29 132.86 69.35 133.3 68.45 134.56 68.24 134.67 68.2 134.81 68.2 134.96 68.2 135.07 68.2 135.1 68.16 135.18 68.16 135.29 68.12 135.5 68.09 135.65 68.09 136.84 67.91 138.31 68.56 138.1 69.6 138.06 69.74 138.03 69.92 137.99 70.1 138.24 69.74 138.57 69.42 138.93 69.06 139.29 68.66 140.84 67.4 143.03 67.4 146.02 67.4 147.1 69.7 147.42 71.5 147.96 70.67 148.64 69.77 149.36 69.05 149.76 68.65 151.27 67.39 153.5 67.39Z" fill="#231F20"/><path d="M168.04 85.58C169.34 85.58 170.42 85.22 171.28 84.86 172.18 84.46 173.26 85 173.04 85.8 172.79 86.59 172.03 87.38 170.74 87.74 169.84 87.92 168.72 88.1 167.21 88.1 160.95 87.92 159.4 84.57 159.33 80.07 159.33 76.22 161.27 72.98 162.5 71.5 164.98 68.4 168.51 67.4 171.1 67.4 174.95 67.4 176.9 69.31 176.9 71.79 176.9 72.8 176.4 74.2 175.6 75.43 174.74 76.73 173.15 77.77 171.89 78.38 169.62 79.53 167.21 79.68 164.47 79.78 164.43 79.92 164.4 80.39 164.4 81.08 164.4 82.81 164.9 85.62 168.04 85.58ZM164.62 78.78C166.6 78.49 168.69 77.2 170.49 75.5 171.32 74.67 171.97 73.41 171.97 71.94 171.97 70.47 171.21 69.67 170.31 69.67 169.77 69.67 168.55 69.92 167 71.72 165.88 73.05 164.91 75.79 164.62 78.78Z" fill="#231F20"/><path d="M188.56 78.49C187.44 77.84 185.32 76.55 185.32 74.24 185.32 72.3 186.65 70.5 188.42 69.09 190.26 67.72 193.06 67.47 194.54 67.47 195.62 67.47 196.38 67.54 197.02 67.72L196.98 67.72C198.17 67.97 198.78 69.02 198.42 69.84 198.17 70.42 197.45 70.7 196.66 70.7 196.19 70.7 195.76 70.63 195.44 70.45L195.48 70.45C194.94 70.2 194.33 70.02 193.72 70.02 191.42 70.02 190.19 71.75 190.19 73.12 190.19 74.81 191.34 75.46 192.53 76.14L194.33 77.26C195.48 77.94 197.25 79.02 197.25 81.15 197.25 82.7 196.46 84.75 194.19 86.41 192.07 87.96 189.4 88.07 187.75 88.07 186.78 88.07 185.77 87.96 185.09 87.82 183.83 87.5 182.97 86.56 183.18 85.77 183.65 84.58 185.09 84.15 186.2 84.69L186.16 84.69C186.84 85.01 187.67 85.27 188.93 85.27 191.31 85.27 192.57 83.76 192.57 82.32 192.57 80.88 191.71 80.34 190.81 79.8L188.58 78.5Z" fill="#231F20"/><path d="M215.09 68.05C216.39 67.65 217.54 68.66 217.36 69.63 217.11 70.82 216.71 72.65 216.1 75.97L215.45 79.5C214.95 82.45 214.66 84.94 214.66 85.98 214.66 86.88 213.47 87.53 212.25 87.56 210.99 87.6 209.91 86.84 209.98 85.94 210.02 85.33 210.12 84.5 210.27 83.74 208.79 85.76 206.89 87.95 204.08 87.95 201.09 87.95 198.14 86.01 198.14 81.9 198.14 80.24 199.11 73.69 204.37 69.52 205.23 68.87 207.32 67.5 210.67 67.5 212.36 67.5 213.48 67.86 214.52 68.26L215.1 68.04ZM212.35 70.39C211.7 70.17 210.91 69.92 210.05 69.92 204.58 69.92 203.14 77.62 203.14 80.58 203.14 83.03 203.82 84.79 205.62 84.79 206.66 84.79 208 84.21 209.22 82.41 210.19 81.08 210.8 78.99 211.42 75.39L212.36 70.39Z" fill="#231F20"/><path d="M220.13 73.88C220.81 70.03 221.35 66.9 221.35 64.88 221.35 64.59 221.31 64.3 221.28 64.09 221.21 63.23 221.82 62.33 223.12 62.15 223.48 62.11 223.84 62.04 224.27 61.93 225.53 61.68 227.01 62.25 226.79 63.3 226.72 63.59 226.65 63.91 226.57 64.34 226.5 64.59 226.43 65.06 226.39 65.38 226.28 65.96 226.14 66.71 225.96 67.61 225.85 68.29 225.74 69.12 225.6 69.84 225.53 70.16 225.46 70.49 225.42 70.81 226.68 69.23 228.48 67.53 230.82 67.53 233.88 67.53 236.8 69.44 236.8 73.76 236.8 75.06 236.58 76.39 236.26 77.65 234.6 83.77 230.25 88.12 223.27 88.12 221.65 88.12 220.5 87.98 219.6 87.72L219.64 87.72C218.13 87.36 217.66 85.99 217.95 84.88 218.2 83.94 218.45 82.79 218.89 80.67L220.15 73.87ZM225.71 73.48C223.98 76.32 223.33 81.9 222.9 85.61 223.48 85.72 223.91 85.79 224.45 85.79 231.04 85.79 231.83 77.04 231.83 74.99 231.83 72.72 231.18 70.74 229.35 70.74 228.05 70.74 226.72 71.86 225.71 73.48Z" fill="#231F20"/><path d="M243.64 76.08C244.94 74.32 246.45 72.12 247.46 70.61L245.95 70.61C245.05 70.61 244.11 70.61 242.96 70.68 241.95 70.72 241.23 70.79 240.66 70.93 239.51 71.15 238.36 70.61 238.46 69.74 238.68 68.55 239.97 67.8 241.48 67.87 242.49 67.94 244.04 68.01 246.84 68.01 249.47 68.01 250.76 67.97 252.17 67.83 253.18 67.79 254.15 68.62 253.72 69.2L253.58 69.34 253.47 69.48 253.51 69.48C253.44 69.59 253.37 69.66 253.29 69.77L253.25 69.77C253.25 69.77 253.11 69.99 252.96 70.17 251.48 72.22 249.04 75.5 247.63 77.44 246.77 78.63 245.79 80 244.89 81.29 243.95 82.59 243.06 83.88 242.19 85.11L242.33 85.11C243.09 85.15 243.7 85.15 244.35 85.15 245.54 85.15 247.34 85.08 248.24 84.97 248.82 84.93 249.36 84.75 249.86 84.54 250.9 84.14 252.27 84.58 251.98 85.4 251.98 85.44 251.87 85.62 251.84 85.69 251.34 86.84 249.93 87.71 248.42 87.67 247.3 87.6 245.72 87.53 243.56 87.53 241.22 87.53 239.67 87.57 237.66 87.67 236.54 87.71 235.64 86.7 236.18 86.05 236.32 85.87 236.43 85.73 236.54 85.58 236.65 85.43 236.97 85 237.33 84.54 237.58 84.25 237.91 83.86 238.12 83.57 238.3 83.35 238.41 83.21 238.48 83.1L243.63 76.08Z" fill="#231F20"/><path d="M259.08 78.74C258.43 82.34 258.14 84.46 258.04 85.69 257.97 86.73 256.67 87.45 255.3 87.45L255.01 87.45C253.86 87.49 252.96 86.48 253.07 85.58 253.07 85.54 253.11 85.47 253.11 85.4 253.29 84.64 253.54 83.64 253.79 82.16L254.4 78.63C255.26 73.88 255.59 71.54 255.55 70.24 255.51 69.38 255.91 68.33 257.28 68.26 257.78 68.19 258.14 68.12 258.54 68.04 259.76 67.79 260.81 68.69 260.74 69.62 260.7 69.76 260.67 70.02 260.67 70.2 260.53 70.85 260.35 71.71 260.13 72.9L259.09 78.73ZM261.96 62.94C261.96 64.13 260.88 65.96 258.79 65.96 257.57 65.96 256.31 65.38 256.31 64.05 256.31 62.93 257.32 61.1 259.55 61.1 260.81 61.1 261.96 61.71 261.96 62.93Z" fill="#231F20"/></g></svg>